<?xml version="1.0" standalone="no"?>
<!DOCTYPE svg PUBLIC "-//W3C//DTD SVG 1.1//EN" "http://www.w3.org/Graphics/SVG/1.1/DTD/svg11.dtd" >
<svg>
<metadata>
Created by FontForge 20090914 at Thu Aug 27 22:48:09 2015
 By www-data
Times New Roman Cyrillic &#194;&#169; The Monotype Corporation plc. Data &#194;&#169; The Monotype Corporation plc, Type Solutions Inc 1990 - 1992. All Rights Reserved.
</metadata>
<defs>
<font id="TimesNRCyrMT-Bold" horiz-adv-x="1024" >
  <font-face 
    font-family="Times New Roman Cyr"
    font-weight="700"
    font-stretch="normal"
    units-per-em="2048"
    panose-1="2 2 8 3 7 5 5 2 3 4"
    ascent="1638"
    descent="-410"
    x-height="950"
    cap-height="1406"
    bbox="-44 -458.002 2284 1799"
    underline-thickness="102"
    underline-position="-154"
    unicode-range="U+0020-U+2122"
  />
<missing-glyph horiz-adv-x="1536" 
d="M256 0v1280h1024v-1280h-1024zM288 32h960v1216h-960v-1216z" />
    <glyph glyph-name=".notdef" horiz-adv-x="1536" 
d="M256 0v1280h1024v-1280h-1024zM288 32h960v1216h-960v-1216z" />
    <glyph glyph-name="space" unicode=" " horiz-adv-x="512" 
 />
    <glyph glyph-name="exclam" unicode="!" horiz-adv-x="555" 
d="M298 458l-41.001 0.000976562c-1.33301 68.667 -23.666 196 -66.999 382c-52.667 225.333 -79 366 -79 422c0 53.333 16.5 96 49.5 128s72.167 48 117.5 48c49.333 0 89.5 -16.5 120.5 -49.5s46.5 -76.167 46.5 -129.5c0 -52.667 -20 -164.334 -60 -335.001
c-58 -246.667 -87 -402 -87 -466zM278.999 306.001c45.333 0 84.333 -16.333 117 -49s49 -72 49 -118s-16.167 -85.333 -48.5 -118s-71.5 -49 -117.5 -49s-85.167 16.333 -117.5 49s-48.5 72 -48.5 118s16.333 85.333 49 118s71.667 49 117 49z" />
    <glyph glyph-name="quotedbl" unicode="&#x22;" horiz-adv-x="1131" 
d="M349 771h-48.999l-104 384c-13.333 50 -20 95 -20 135c0 38.667 14.333 73 43 103s64 45 106 45c41.333 0 76.166 -14.5 104.499 -43.5s42.5 -62.5 42.5 -100.5c0 -30 -8 -76.333 -24 -139zM832.001 771h-50l-101 384c-16 58.667 -24 104.667 -24 138
c0 34 14 66.667 42 98s64.667 47 110 47c44.667 0 80 -15.333 106 -46s39 -62.667 39 -96c0 -24 -8.66699 -71 -26 -141z" />
    <glyph glyph-name="numbersign" unicode="#" horiz-adv-x="1366" 
d="M78 1057h307l81 385h189l-80 -385h356l80 385h187l-80 -385h169v-184h-207l-63 -306h270v-185h-308l-80 -382h-189l80 382h-356l-79 -382h-190l80 382h-167v185h205l64 306h-269v184zM536 873l-64 -306h356l64 306h-356z" />
    <glyph glyph-name="dollar" unicode="$" 
d="M918 1277v-300.002h-35c-72 186.667 -183 297 -333 331v-454c163.333 -86 274.666 -166.5 333.999 -241.5s89 -156.5 89 -244.5c0 -100 -35.667 -186.667 -107 -260s-176.666 -117.333 -315.999 -132v-115h-84v115c-170.667 10 -303 33.333 -397 70v331h37
c56 -196.667 176 -307 360 -331v516c-2.66699 2 -26.334 16 -71.001 42c-151.333 85.333 -246.833 159.833 -286.5 223.5s-59.5 127.167 -59.5 190.5c0 105.333 40.833 189.333 122.5 252s179.834 99.334 294.501 110.001v49h84v-49
c139.333 -13.333 262 -47.666 368 -102.999zM466 1315c-60.667 -3.33301 -110.332 -20.333 -148.999 -51s-58 -72.667 -58 -126c0 -44 14.667 -82.833 44 -116.5s83.666 -73.167 162.999 -118.5v412zM550.002 510.998v-465c50.667 5.33301 96.5 24.5 137.5 57.5
s61.5 77.5 61.5 133.5c0 104 -66.333 195.333 -199 274z" />
    <glyph glyph-name="percent" unicode="%" horiz-adv-x="1792" 
d="M1412 1439l-909 -1495h-127l909 1495h127zM656 1068c0 -104.667 -24.5 -191.833 -73.5 -261.5s-117.833 -104.5 -206.5 -104.5c-84 0 -151.5 34.167 -202.5 102.5s-76.5 155.5 -76.5 261.5s26 193.167 78 261.5s119.333 102.5 202 102.5c82 0 149 -32.5 201 -97.5
s78 -153.167 78 -264.5zM467 1116c0 122 -5.33203 199.166 -15.999 231.499s-35 48.5 -73 48.5c-41.333 0 -67 -20.5 -77 -61.5s-15 -153.5 -15 -337.5c0 -129.333 8.16699 -205.666 24.5 -228.999s39.166 -35 68.499 -35c40 0 64.333 17.5 73 52.5s13.667 145.167 15 330.5
zM1696 352c0 -108.667 -25.667 -196.5 -77 -263.5s-119.333 -100.5 -204 -100.5c-84 0 -151.333 34 -202 102s-76 155.333 -76 262c0 105.333 26 192 78 260s119 102 201 102c82.667 0 150 -32.5 202 -97.5s78 -153.167 78 -264.5zM1506 402
c0 122.667 -5.16699 199.833 -15.5 231.5s-34.5 47.5 -72.5 47.5c-40.667 0 -66.167 -19.833 -76.5 -59.5s-15.5 -148.5 -15.5 -326.5c0 -140 8.33301 -221 25 -243s39 -33 67 -33c40 0 64.667 18.5 74 55.5s14 146.167 14 327.5z" />
    <glyph glyph-name="ampersand" unicode="&#x26;" horiz-adv-x="1579" 
d="M1458 838v-36.002c-49.333 -1.33301 -89.166 -17.833 -119.499 -49.5s-77.5 -106.5 -141.5 -224.5c-47.333 -88 -84.333 -147.333 -111 -178c109.333 -118 195.333 -177 258 -177c38.667 0 68.667 14.667 90 44l32 -20c-82.667 -150 -186.667 -225 -312 -225
c-47.333 0 -90.666 11.333 -129.999 34s-91.333 64.334 -156 125.001c-141.333 -106 -278.666 -159 -411.999 -159c-118 0 -213.667 35.833 -287 107.5s-110 157.167 -110 256.5c0 68.667 16.667 133.5 50 194.5s73.666 110.333 120.999 148s116.333 78.834 207 123.501
c-28.667 80 -43 158.667 -43 236c0 118.667 37.833 215 113.5 289s168.5 111 278.5 111c88 0 156.5 -26 205.5 -78s73.5 -110.667 73.5 -176c0 -48.667 -13.333 -95.334 -40 -140.001s-56.334 -77.5 -89.001 -98.5s-99.334 -54.167 -200.001 -99.5
c88 -160 187.667 -306.333 299 -439c81.333 116 122 210 122 282c0 37.333 -11 65.333 -33 84s-48 28.334 -78 29.001v36h412zM705 905.998c105.333 38.667 158.001 99 158.001 181c0 64.667 -15 124.667 -45 180s-67 83 -111 83c-28.667 0 -51.834 -10.5 -69.501 -31.5
s-26.5 -49.167 -26.5 -84.5c0 -74 31.333 -183.333 94 -328zM462.001 732.998c-95.333 -46.667 -143 -104.999 -143 -174.999c0 -76.667 38 -166.834 114 -270.501s148 -155.5 216 -155.5c56 0 109.667 20.667 161 62c-150.667 177.333 -266.667 357 -348 539z" />
    <glyph glyph-name="quotesingle" unicode="'" horiz-adv-x="575" 
d="M313 772l-47.999 -0.000976562l-105 383c-13.333 47.333 -20 91.333 -20 132c0 40 13.667 75.167 41 105.5s62.666 45.5 105.999 45.5c45.333 0 81.5 -15 108.5 -45s40.5 -64 40.5 -102c0 -29.333 -8 -74.666 -24 -135.999z" />
    <glyph glyph-name="parenleft" unicode="(" horiz-adv-x="682" 
d="M649 1442l-0.000976562 -59.999c-208.667 -99.333 -313 -382.333 -313 -849c0 -252 25.167 -448 75.5 -588s129.5 -235.333 237.5 -286v-61c-165.333 52 -303.666 165.5 -414.999 340.5s-167 369.167 -167 582.5c0 222 59 420.167 177 594.5s253 283.166 405 326.499z
" />
    <glyph glyph-name="parenright" unicode=")" horiz-adv-x="682" 
d="M33 1442c152.667 -43.333 287.833 -152.169 405.5 -326.502s176.5 -372.5 176.5 -594.5c0 -210.667 -56 -404.5 -168 -581.5s-250 -290.833 -414 -341.5v61c108 50.667 187.333 145.834 238 285.501s76 335.834 76 588.501c0 461.333 -104.667 744.333 -314 849v60z" />
    <glyph glyph-name="asterisk" unicode="*" 
d="M546 1010c27.333 -40 77.3281 -78.6689 149.995 -116.002c68.667 -36 103 -78.667 103 -128c0 -27.333 -9 -51 -27 -71s-42.333 -30 -73 -30c-69.333 0 -111 49.333 -125 148c-8.66699 62.667 -29.667 123 -63 181c-28.667 -36 -48 -84.333 -58 -145
c-9.33301 -56.667 -16.833 -93.5 -22.5 -110.5s-18.667 -33.5 -39 -49.5s-42.166 -24 -65.499 -24c-26.667 0 -49.667 9.5 -69 28.5s-29 41.5 -29 67.5c0 54.667 38 101 114 139c60.667 30.667 109 67.334 145 110.001c-27.333 10 -60.666 15 -99.999 15
c-19.333 0 -38 -1.33301 -56 -4c-57.333 -9.33301 -90.666 -14 -99.999 -14c-26 0 -52.167 10.167 -78.5 30.5s-39.5 47.833 -39.5 82.5c0 27.333 10.5 50.166 31.5 68.499s46.167 27.5 75.5 27.5c38 0 81.667 -24.333 131 -73c54.667 -54.667 103 -88 145 -100
c0 49.333 -15 103 -45 161c-26.667 51.333 -40 91 -40 119c0 32.667 10.167 60 30.5 82s44.5 33 72.5 33s52.167 -11.167 72.5 -33.5s30.5 -48.5 30.5 -78.5c0 -25.333 -10 -58 -30 -98c-35.333 -72 -53.333 -133.667 -54 -185c44 14.667 93 49.334 147 104.001
c46 47.333 88.333 71 127 71c28 0 52.333 -8.66699 73 -26s31 -40 31 -68c0 -35.333 -13.667 -63.166 -41 -83.499s-53.666 -30.5 -78.999 -30.5c-8 0 -38.667 3.66699 -92 11c-15.333 2 -31.666 3 -48.999 3c-36 0 -70.667 -4.66699 -104 -14z" />
    <glyph glyph-name="plus" unicode="+" horiz-adv-x="1366" 
d="M127 807h452v452h208v-452h452v-208h-452v-452h-208v452h-452v208z" />
    <glyph glyph-name="comma" unicode="," horiz-adv-x="555" 
d="M127 -366v43.999c60.667 22.667 112.667 61.5 156 116.5s65 112.167 65 171.5c0 14 -1.66699 24.333 -5 31s-8.33301 10 -15 10l-15 -8c-24 -18 -50 -27 -78 -27c-42 0 -76.333 17.333 -103 52s-40 71.334 -40 110.001c0 44.667 16.167 84.5 48.5 119.5
s73.833 52.5 124.5 52.5c61.333 0 110.833 -24.667 148.5 -74s56.5 -107.333 56.5 -174c0 -106.667 -31.667 -196 -95 -268s-146 -124 -248 -156z" />
    <glyph glyph-name="hyphen" unicode="-" horiz-adv-x="682" 
d="M634 581v-212h-586v212h586z" />
    <glyph glyph-name="hyphen" unicode="&#xad;" horiz-adv-x="682" 
d="M634 581v-212h-586v212h586z" />
    <glyph glyph-name="period" unicode="." horiz-adv-x="555" 
d="M277 303c44.667 0 83.332 -15.667 115.999 -47s49 -70.666 49 -117.999c0 -46 -16.167 -85.167 -48.5 -117.5s-71.166 -48.5 -116.499 -48.5c-44.667 0 -83.167 16.167 -115.5 48.5s-48.5 71.5 -48.5 117.5c0 45.333 16.167 84.166 48.5 116.499s70.833 48.5 115.5 48.5z
" />
    <glyph glyph-name="slash" unicode="/" horiz-adv-x="575" 
d="M343 1438h232l-343 -1466h-232z" />
    <glyph glyph-name="zero" unicode="0" 
d="M978 705c0 -118.667 -16.001 -235.334 -48.001 -350.001s-85.667 -206.5 -161 -275.5s-161.666 -103.5 -258.999 -103.5c-90.667 0 -172.667 32 -246 96s-128 153.333 -164 268s-54 236 -54 364c0 212.667 43.667 386.834 131 522.501s199 203.5 335 203.5
c138.667 0 251 -65.667 337 -197s129 -307.333 129 -528zM661.999 703l-0.999023 212.001c0 74.667 -2.16699 144.167 -6.5 208.5s-9.83301 109.666 -16.5 135.999s-15.167 46 -25.5 59s-23.833 23.667 -40.5 32s-35.334 12.5 -56.001 12.5
c-69.333 0 -112.333 -40.167 -129 -120.5s-25 -308.833 -25 -685.5c0 -237.333 11.5 -383.333 34.5 -438s62.833 -82 119.5 -82c64 0 104.333 35 121 105s25 257 25 561z" />
    <glyph glyph-name="one" unicode="1" 
d="M667 1430l0.000976562 -1203c0 -72.667 11.667 -122.5 35 -149.5s72.666 -40.5 147.999 -40.5h21v-37h-727v37h62c54.667 0 95.167 11.167 121.5 33.5s39.5 66.833 39.5 133.5v864c0 88 -35.333 132 -106 132c-29.333 0 -68.333 -11.333 -117 -34l-19 35l508 229h34z" />
    <glyph glyph-name="two" unicode="2" 
d="M977 407l-76.001 -407.001h-860v27c6 8 27.333 32 64 72c162 178 285.5 334.333 370.5 469s127.5 253.667 127.5 357c0 82 -23.667 148.667 -71 200s-107.333 77 -180 77c-117.333 0 -201.333 -58.333 -252 -175l-35 12c68.667 260.667 214.334 391 437.001 391
c116 0 212.5 -34.167 289.5 -102.5s115.5 -155.166 115.5 -260.499c0 -94.667 -42.667 -204.5 -128 -329.5s-226.333 -279.167 -423 -462.5h361c125.333 0 199.333 44 222 132h38z" />
    <glyph glyph-name="three" unicode="3" 
d="M333 747c94 16.667 165.502 51.165 214.502 103.498s73.5 109.833 73.5 172.5c0 64 -22 116.833 -66 158.5s-99.333 62.5 -166 62.5c-116.667 0 -205.667 -55.333 -267 -166l-36 11c93.333 227.333 247.333 341 462 341c103.333 0 188 -28.667 254 -86
s99 -127.333 99 -210c0 -113.333 -65 -203.666 -195 -270.999c70 -26.667 132 -72.167 186 -136.5s81 -142.166 81 -233.499c0 -138 -56 -258.667 -168 -362s-259 -155 -441 -155c-108 0 -188.667 15.833 -242 47.5s-80 70.834 -80 117.501c0 30 10.667 55.167 32 75.5
s45.666 30.5 72.999 30.5c39.333 0 88.333 -24.667 147 -74c88 -75.333 164.333 -113 229 -113c55.333 0 105.166 21.167 149.499 63.5s66.5 97.166 66.5 164.499c0 98.667 -39 188 -117 268s-174.333 130.667 -289 152v39z" />
    <glyph glyph-name="four" unicode="4" 
d="M859 1430v-903h124v-225h-124v-302h-295v302h-534v225l708 903h121zM564 527v553l-436 -553h436z" />
    <glyph glyph-name="five" unicode="5" 
d="M973 1406l-109 -270h-571l-48 -134c235.333 -4.66699 413.5 -55.5 534.5 -152.5s181.5 -219.5 181.5 -367.5c0 -154.667 -59.5 -277.667 -178.5 -369s-251.833 -137 -398.5 -137c-96.667 0 -176.834 14.667 -240.501 44s-95.5 69.333 -95.5 120
c0 28 10.667 53.167 32 75.5s46.333 33.5 75 33.5c38.667 0 102.334 -27 191.001 -81c98 -59.333 172.667 -89 224 -89c60.667 0 112.167 22.833 154.5 68.5s63.5 97.5 63.5 155.5c0 111.333 -57.833 206 -173.5 284s-271.5 117 -467.5 117
c-21.333 0 -53.333 -0.666992 -96 -2l254 704h668z" />
    <glyph glyph-name="six" unicode="6" 
d="M986 1430l0.000976562 -38.998c-331.333 -63.333 -528.333 -249 -591 -557c34 19.333 68.833 33.666 104.5 42.999s72.167 14 109.5 14c96.667 0 183.167 -36.833 259.5 -110.5s114.5 -176.834 114.5 -309.501c0 -146 -42.833 -265 -128.5 -357
s-192.834 -138 -321.501 -138c-136.667 0 -251 55 -343 165s-138 250 -138 420c0 209.333 78.333 402 235 578s389.667 273 699 291zM382.001 749.002c-6.66699 -48.667 -10.001 -106.332 -10.001 -172.999c0 -180 15.5 -315.167 46.5 -405.5s77.5 -135.5 139.5 -135.5
c44 0 76.833 22.167 98.5 66.5s32.5 110.5 32.5 198.5c0 165.333 -16.667 286.666 -50 363.999s-84.666 116 -153.999 116c-18 0 -35.5 -2.5 -52.5 -7.5s-33.833 -12.833 -50.5 -23.5z" />
    <glyph glyph-name="seven" unicode="7" 
d="M987 1406l-472.001 -1430h-162l382 1153h-357c-165.333 0 -268.666 -52 -309.999 -156h-39l104 433h854z" />
    <glyph glyph-name="eight" unicode="8" 
d="M701 795c184.667 -130.667 276.999 -272 276.999 -424c0 -109.333 -43.167 -202.5 -129.5 -279.5s-203.833 -115.5 -352.5 -115.5c-147.333 0 -259 36.833 -335 110.5s-114 154.5 -114 242.5c0 154.667 98 270 294 346c-117.333 90 -191.666 165.5 -222.999 226.5
s-47 120.167 -47 177.5c0 108 44.667 193.5 134 256.5s200.333 94.5 333 94.5c116 0 213.5 -30.167 292.5 -90.5s118.5 -135.833 118.5 -226.5c0 -126.667 -82.667 -232.667 -248 -318zM625.999 849c47.333 48 71 134.668 71 260.001c0 86 -14.5 150.5 -43.5 193.5
s-72.833 64.5 -131.5 64.5c-50 0 -92.167 -17.5 -126.5 -52.5s-51.5 -77.167 -51.5 -126.5c0 -92.667 75.333 -192.334 226 -299.001zM411.999 627.001c-68 -58.667 -102.001 -161 -102.001 -307c0 -93.333 16.333 -163.5 49 -210.5s81.667 -70.5 147 -70.5
c56.667 0 102.834 18.5 138.501 55.5s53.5 85.167 53.5 144.5c0 132.667 -95.333 262 -286 388z" />
    <glyph glyph-name="nine" unicode="9" 
d="M39 -24v39.002c330.667 63.333 527.667 249 591 557c-34 -18.667 -68.833 -32.834 -104.5 -42.501s-72.167 -14.5 -109.5 -14.5c-101.333 0 -189.166 38.167 -263.499 114.5s-111.5 178.166 -111.5 305.499c0 146 43 265 129 357s193.333 138 322 138
c138.667 0 253.5 -56 344.5 -168s136.5 -251.333 136.5 -418c0 -169.333 -47.333 -322.5 -142 -459.5s-203.334 -235.833 -326.001 -296.5s-278 -98 -466 -112zM642 657.002c7.33301 52 11 109.668 11 173.001c0 180 -15.5 315 -46.5 405s-77.5 135 -139.5 135
c-44 0 -77 -22 -99 -66s-33 -110 -33 -198c0 -132.667 14 -245.834 42 -339.501s82 -140.5 162 -140.5c18.667 0 36.5 2.66699 53.5 8s33.5 13 49.5 23z" />
    <glyph glyph-name="colon" unicode=":" horiz-adv-x="555" 
d="M276 972c46.667 0 86 -16 118 -48s48 -70.333 48 -115c0 -45.333 -16.167 -84 -48.5 -116s-70.833 -48 -115.5 -48c-46 0 -85 16 -117 48s-48 70.667 -48 116c0 44.667 15.833 83 47.5 115s70.167 48 115.5 48zM277 303c44.667 0 83.332 -15.667 115.999 -47
s49 -70.666 49 -117.999c0 -46 -16.167 -85.167 -48.5 -117.5s-71.166 -48.5 -116.499 -48.5c-44.667 0 -83.167 16.167 -115.5 48.5s-48.5 71.5 -48.5 117.5c0 45.333 16.167 84.166 48.5 116.499s70.833 48.5 115.5 48.5z" />
    <glyph glyph-name="semicolon" unicode=";" horiz-adv-x="555" 
d="M281 972c45.333 0 84.333 -15.667 117 -47s49 -70 49 -116c0 -45.333 -16 -84 -48 -116s-71 -48 -117 -48c-45.333 0 -84 16.167 -116 48.5s-48 70.833 -48 115.5c0 45.333 15.833 83.833 47.5 115.5s70.167 47.5 115.5 47.5zM127 -366v43.999
c60.667 22.667 112.667 61.5 156 116.5s65 112.167 65 171.5c0 14 -1.66699 24.333 -5 31s-8.33301 10 -15 10l-15 -8c-24 -18 -50 -27 -78 -27c-42 0 -76.333 17.333 -103 52s-40 71.334 -40 110.001c0 44.667 16.167 84.5 48.5 119.5s73.833 52.5 124.5 52.5
c61.333 0 110.833 -24.667 148.5 -74s56.5 -107.333 56.5 -174c0 -106.667 -31.667 -196 -95 -268s-146 -124 -248 -156z" />
    <glyph glyph-name="less" unicode="&#x3c;" horiz-adv-x="1366" 
d="M1238 145l-1110 464v188l1110 464v-226l-789 -332l789 -332v-226z" />
    <glyph glyph-name="equal" unicode="=" horiz-adv-x="1366" 
d="M127 1045h1112v-208h-1112v208zM127 569h1112v-209h-1112v209z" />
    <glyph glyph-name="greater" unicode="&#x3e;" horiz-adv-x="1366" 
d="M128 1261l1110 -464v-188l-1110 -464v226l789 332l-789 332v226z" />
    <glyph glyph-name="question" unicode="?" horiz-adv-x="789" 
d="M363 459l-45.001 0.00195312c1.33301 90.667 6 154.5 14 191.5s25.667 82.833 53 137.5c26 52.667 44 97.334 54 134.001s15 86 15 148c0 98.667 -13.5 172.667 -40.5 222s-67.5 74 -121.5 74c-24.667 0 -45.167 -6.16699 -61.5 -18.5s-24.5 -24.5 -24.5 -36.5
c0 -16 7.66699 -36.667 23 -62c34 -55.333 51 -103.333 51 -144c0 -30.667 -11.667 -58.834 -35 -84.501s-51.666 -38.5 -84.999 -38.5c-36.667 0 -67.834 14.333 -93.501 43s-38.5 68.334 -38.5 119.001c0 85.333 33.833 155.666 101.5 210.999s149.167 83 244.5 83
c98 0 185.667 -28.333 263 -85s116 -140.334 116 -251.001c0 -74.667 -18.667 -139.334 -56 -194.001s-96.666 -111 -177.999 -169c-68.667 -49.333 -111.667 -92.833 -129 -130.5s-26.333 -87.5 -27 -149.5zM351.999 306.002c44.667 0 83.332 -16 115.999 -48
s49 -71.667 49 -119c0 -45.333 -16.167 -84.5 -48.5 -117.5s-71.166 -49.5 -116.499 -49.5c-46 0 -85.167 16.333 -117.5 49s-48.5 72 -48.5 118s16.167 85.333 48.5 118s71.5 49 117.5 49z" />
    <glyph glyph-name="at" unicode="@" horiz-adv-x="1962" 
d="M1220 959l252.004 10.9961l-190 -652c-20.667 -71.333 -31 -126 -31 -164c0 -20 8.16699 -38.167 24.5 -54.5s35.5 -24.5 57.5 -24.5c50 0 112.333 27.667 187 83s137 133.5 187 234.5s75 209.833 75 326.5c0 186.667 -60.667 342.334 -182 467.001s-282 187 -482 187
c-158.667 0 -308.5 -37.167 -449.5 -111.5s-254.167 -189.666 -339.5 -345.999s-128 -323.166 -128 -500.499c0 -240.667 77 -436.834 231 -588.501s347.333 -227.5 580 -227.5c187.333 0 360.166 51.667 518.499 155s268.833 242.333 331.5 417h64
c-80 -202 -200.5 -357.333 -361.5 -466s-345.833 -163 -554.5 -163c-258.667 0 -476.334 83.833 -653.001 251.5s-265 386.834 -265 657.501c0 280 94 514.5 282 703.5s428.333 283.5 721 283.5c232 0 414.167 -66.667 546.5 -200s198.5 -298.666 198.5 -495.999
c0 -136 -28.833 -263.667 -86.5 -383s-133.334 -209 -227.001 -269s-195.167 -90 -304.5 -90c-76.667 0 -131.5 18.667 -164.5 56s-49.5 78 -49.5 122c0 40.667 8.33301 90.334 25 149.001c-126.667 -218 -246.334 -327 -359.001 -327c-56 0 -98.833 22 -128.5 66
s-44.5 98 -44.5 162c0 139.333 33.833 271.666 101.5 396.999s143.667 218.833 228 280.5s153.166 92.5 206.499 92.5c42.667 0 76.334 -13.5 101.001 -40.5s40 -67.5 46 -121.5zM1060 923.996c-54.667 0 -116.999 -81.5 -186.999 -244.5s-105 -294.833 -105 -395.5
c0 -26 6 -48.167 18 -66.5s26.333 -27.5 43 -27.5c25.333 0 62.166 27.167 110.499 81.5s93.333 132.333 135 234s62.5 196.5 62.5 284.5c0 44.667 -6.33301 78.167 -19 100.5s-32 33.5 -58 33.5z" />
    <glyph glyph-name="A" unicode="A" horiz-adv-x="1473" 
d="M840 398h-448.999l-68 -163c-16 -38.667 -24 -69 -24 -91c0 -38 13.5 -65 40.5 -81s73.833 -24.667 140.5 -26v-37h-451v37c89.333 2 170.666 92.333 243.999 271l462 1122h20l486 -1184c56.667 -139.333 123.667 -209 201 -209v-37h-657v37h25
c92.667 0 139 23.667 139 71c0 12.667 -5.66699 33.667 -17 63zM810.001 472l-193 473l-195 -473h388z" />
    <glyph glyph-name="B" unicode="B" horiz-adv-x="1366" 
d="M919 740c110 -16 202.666 -55.498 277.999 -118.498s113 -143.833 113 -242.5c0 -78.667 -25 -147.834 -75 -207.501s-115.167 -103.167 -195.5 -130.5s-166.166 -41 -257.499 -41h-757v37h42c57.333 0 96.833 14.167 118.5 42.5s32.5 76.166 32.5 143.499v958
c0 81.333 -14.167 133 -42.5 155s-64.5 33 -108.5 33h-29v37h686c177.333 0 309.333 -31.5 396 -94.5s130 -145.833 130 -248.5c0 -85.333 -27.5 -155 -82.5 -209s-137.833 -92 -248.5 -114zM543.999 1332v-565.002h29c110.667 0 193.667 23.667 249 71s83 118.333 83 213
c0 64.667 -15 120.334 -45 167.001s-65.5 77.334 -106.5 92.001s-96.833 22 -167.5 22h-42zM543.999 693l-0.000976562 -475.001c0 -56.667 8.83301 -95 26.5 -115s48.834 -30 93.501 -30c88.667 0 158.167 27.833 208.5 83.5s75.5 126.5 75.5 212.5
c0 84.667 -28 159.834 -84 225.501s-153 98.5 -291 98.5h-29z" />
    <glyph glyph-name="C" unicode="C" horiz-adv-x="1473" 
d="M1391 1436l0.000976562 -471.003h-40c-23.333 130 -78.333 226.333 -165 289s-177.334 94 -272.001 94c-82.667 0 -157.334 -23.667 -224.001 -71s-121.5 -117.166 -164.5 -209.499s-64.5 -214.166 -64.5 -365.499c0 -222 42.5 -384.833 127.5 -488.5
s190.833 -155.5 317.5 -155.5c94 0 182.667 25.833 266 77.5s147.333 114.167 192 187.5v-121c-140 -153.333 -314.667 -230 -524 -230c-231.333 0 -413.333 70.333 -546 211s-199 306.334 -199 497.001c0 210 73.5 388.833 220.5 536.5s317.5 221.5 511.5 221.5
c96.667 0 202.334 -23.333 317.001 -70c47.333 -20 83.333 -30 108 -30c53.333 0 86.333 32.667 99 98h40z" />
    <glyph glyph-name="D" unicode="D" horiz-adv-x="1579" 
d="M36 0l0.00195312 36.999h42c44.667 0 81 10.333 109 31s42 72.334 42 155.001v958c0 66 -10.667 113.833 -32 143.5s-61 44.5 -119 44.5h-42v37h668c152.667 0 284.167 -20.667 394.5 -62s206.166 -118.5 287.499 -231.5s122 -252.5 122 -418.5
c0 -124.667 -23.5 -234.667 -70.5 -330s-108.5 -170.833 -184.5 -226.5s-154.833 -92.5 -236.5 -110.5s-185.834 -27 -312.501 -27h-668zM556.002 1331v-1097c0 -66 8.83301 -109 26.5 -129s59.5 -30 125.5 -30c145.333 0 254.333 50.833 327 152.5s109 253.834 109 456.501
c0 216 -39.5 377.833 -118.5 485.5s-197.833 161.5 -356.5 161.5h-113z" />
    <glyph glyph-name="E" unicode="E" horiz-adv-x="1366" 
d="M569 1333l0.000976562 -579.001h26c66.667 0 116.5 9.33301 149.5 28s60.5 51.667 82.5 99s38.333 113 49 197h38v-715h-38c-10 86.667 -27.5 153.334 -52.5 200.001s-54.333 77.834 -88 93.501s-80.5 23.5 -140.5 23.5h-26v-442c0 -64.667 8.5 -108 25.5 -130
s54.167 -33 111.5 -33h134c225.333 0 374.666 119.667 447.999 359h35l-64 -434h-1222v37h54c44.667 0 81 10.333 109 31s42 72.334 42 155.001v958c0 81.333 -14.167 133 -42.5 155s-64.5 33 -108.5 33h-54v37h1186v-398h-36c-14 81.333 -40 148.166 -78 200.499
s-82 86.166 -132 101.499s-122.333 23 -217 23h-191z" />
    <glyph glyph-name="F" unicode="F" horiz-adv-x="1237" 
d="M555 1330l0.000976562 -585.001h50c103.333 0 176.833 30.5 220.5 91.5s65.5 129.5 65.5 205.5h41v-686h-41c-10 210.667 -109 316 -297 316h-39v-449c0 -65.333 10.667 -112.666 32 -141.999s61.333 -44 120 -44h60v-37h-742v37h54c55.333 0 93.666 14 114.999 42
s32 76 32 144v958c0 80.667 -13.833 132.167 -41.5 154.5s-65.167 33.5 -112.5 33.5h-47v37h1167v-387h-37c-20 207.333 -140.667 311 -362 311h-238z" />
    <glyph glyph-name="G" unicode="G" horiz-adv-x="1579" 
d="M1385 1434v-477h-39c-40.667 124 -105.334 221.833 -194.001 293.5s-185.334 107.5 -290.001 107.5c-125.333 0 -224.833 -59.667 -298.5 -179s-110.5 -288.666 -110.5 -507.999c0 -226 38.333 -387.833 115 -485.5s174 -146.5 292 -146.5
c64.667 0 131.334 16.333 200.001 49v341c0 47.333 -14.333 80.666 -43 99.999s-74 29 -136 29v35h669v-35c-48.667 0 -85.334 -7.16699 -110.001 -21.5s-40 -32 -46 -53s-9 -58.833 -9 -113.5v-282c-145.333 -77.333 -322.666 -116 -531.999 -116
c-218 0 -399.833 62.833 -545.5 188.5s-218.5 296.167 -218.5 511.5c0 214 74.167 395.167 222.5 543.5s321.833 222.5 520.5 222.5c100.667 0 215.334 -25.667 344.001 -77c33.333 -13.333 58.333 -20 75 -20c46 0 77.667 31 95 93h39z" />
    <glyph glyph-name="H" unicode="H" horiz-adv-x="1685" 
d="M1141 679l-597 -0.00195312v-456c0 -65.333 10.5 -112.666 31.5 -141.999s60.833 -44 119.5 -44h37v-37h-698v37h32c56 0 95.167 14 117.5 42s33.5 76 33.5 144v958c0 66.667 -10.833 114.667 -32.5 144s-61.167 44 -118.5 44h-32v37h698v-37h-37
c-56.667 0 -96 -14.167 -118 -42.5s-33 -76.833 -33 -145.5v-416h597v416c0 66.667 -10.833 114.667 -32.5 144s-61.167 44 -118.5 44h-32v37h693v-37h-33c-56 0 -95.167 -14.167 -117.5 -42.5s-33.5 -76.833 -33.5 -145.5v-958c0 -65.333 10.667 -112.666 32 -141.999
s61 -44 119 -44h33v-37h-693v37h32c56 0 95.167 14 117.5 42s33.5 76 33.5 144v456z" />
    <glyph glyph-name="I" unicode="I" horiz-adv-x="789" 
d="M755 37v-37h-721v37h46c56.667 0 96 14.167 118 42.5s33 76.166 33 143.499v958c0 66 -10.667 113.833 -32 143.5s-61 44.5 -119 44.5h-46v37h721v-37h-46c-56.667 0 -96.167 -14.167 -118.5 -42.5s-33.5 -76.833 -33.5 -145.5v-958
c0 -65.333 10.667 -112.666 32 -141.999s61.333 -44 120 -44h46z" />
    <glyph glyph-name="J" unicode="J" horiz-adv-x="1131" 
d="M363 1369l-0.000976562 37.001h734v-37h-42c-44.667 0 -81 -10.5 -109 -31.5s-42 -73.167 -42 -156.5v-763c0 -94 -13.667 -171.5 -41 -232.5s-78.833 -111.833 -154.5 -152.5s-157.167 -61 -244.5 -61c-132 0 -234.667 29.5 -308 88.5s-110 124.5 -110 196.5
c0 51.333 15 90.5 45 117.5s65 40.5 105 40.5s73.833 -12.833 101.5 -38.5s41.5 -58.167 41.5 -97.5c0 -36 -14.333 -73 -43 -111c-14.667 -18.667 -22 -33.334 -22 -44.001c0 -20.667 13.5 -38.334 40.5 -53.001s59.833 -22 98.5 -22c46.667 0 85.834 13.833 117.501 41.5
s47.5 86.834 47.5 177.501v913c0 80.667 -14 132.167 -42 154.5s-64.333 33.5 -109 33.5h-64z" />
    <glyph glyph-name="K" unicode="K" horiz-adv-x="1473" 
d="M802 888l446.999 -701.998c44 -68.667 77 -110.667 99 -126s54.333 -23 97 -23v-37h-656v37c84.667 0 127 18.333 127 55c0 24 -17.667 64 -53 120l-272 429l-47 -55v-363c0 -76.667 12.667 -126.834 38 -150.501s67 -35.5 125 -35.5v-37h-679v37h39
c56.667 0 96 14.167 118 42.5s33 76.166 33 143.499v958c0 66 -10.667 113.833 -32 143.5s-61 44.5 -119 44.5h-39v37h679v-37c-57.333 0 -98.833 -11.833 -124.5 -35.5s-38.5 -74.5 -38.5 -152.5v-478l356 419c63.333 74 95 129.667 95 167c0 53.333 -44 80 -132 80h-20v37
h528v-37c-66.667 -4 -130.167 -28 -190.5 -72s-144.166 -130.333 -251.499 -259z" />
    <glyph glyph-name="L" unicode="L" horiz-adv-x="1366" 
d="M1318 480l-50.001 -479.998h-1235v37h70c56.667 0 96 14.167 118 42.5s33 76.166 33 143.499v958c0 66 -10.667 113.833 -32 143.5s-61 44.5 -119 44.5h-70v37h795v-37h-96c-56.667 0 -96 -14.167 -118 -42.5s-33 -76.833 -33 -145.5v-940c0 -66 7.5 -110.667 22.5 -134
s51.5 -35 109.5 -35h136c73.333 0 135.833 11.167 187.5 33.5s98.834 63.666 141.501 123.999s77 143.833 103 250.5h37z" />
    <glyph glyph-name="M" unicode="M" horiz-adv-x="2027" 
d="M1018 440l435.001 965.998h545v-37h-35c-56.667 0 -95.834 -14.167 -117.501 -42.5s-32.5 -76.833 -32.5 -145.5v-958c0 -65.333 10.5 -112.666 31.5 -141.999s60.5 -44 118.5 -44h35v-37h-713v37h50c56.667 0 96 14 118 42s33 76 33 144v1077l-586 -1300h-29l-583 1290
v-1033c0 -63.333 4.66699 -107.333 14 -132s29 -45.5 59 -62.5s63.333 -25.5 100 -25.5h25v-37h-457v37c42 0 78.5 9.16699 109.5 27.5s51.5 40.333 61.5 66s15 67.834 15 126.501v924c0 66 -10.667 113.833 -32 143.5s-61 44.5 -119 44.5h-35v37h552z" />
    <glyph glyph-name="N" unicode="N" horiz-adv-x="1579" 
d="M497 1406l804.001 -911.001v642c0 90 -14 151.167 -42 183.5s-83.667 48.5 -167 48.5v37h459v-37c-46 -0.666992 -82.333 -9.66699 -109 -27s-44.5 -40 -53.5 -68s-13.5 -73.667 -13.5 -137v-1158h-36l-1036 1170v-919c0 -52.667 7.66699 -92.667 23 -120
s36.666 -46 63.999 -56s72.333 -15.667 135 -17v-37h-494v37c72 1.33301 123 16.333 153 45s45 78 45 148v1003l-33 35c-57.333 64.667 -112.333 98.334 -165 101.001v37h466z" />
    <glyph glyph-name="O" unicode="O" horiz-adv-x="1685" 
d="M1600 698c0 -205.333 -69 -377.666 -207 -516.999s-321.333 -209 -550 -209c-139.333 0 -264 27.167 -374 81.5s-201.5 137.666 -274.5 249.999s-109.5 246.5 -109.5 402.5c0 158 37.833 293.333 113.5 406s170.5 195.167 284.5 247.5s233 78.5 357 78.5
c220.667 0 402.5 -68.667 545.5 -206s214.5 -315.333 214.5 -534zM1235 688c0 217.333 -36.334 384.167 -109.001 500.5s-167 174.5 -283 174.5c-117.333 0 -212.333 -57 -285 -171s-109 -276 -109 -486c0 -194.667 34.333 -354 103 -478s164.334 -186 287.001 -186
c120 0 216 58 288 174s108 273.333 108 472z" />
    <glyph glyph-name="P" unicode="P" horiz-adv-x="1366" 
d="M564 642v-419c0 -65.333 10.5 -112.666 31.5 -141.999s60.167 -44 117.5 -44h39v-37h-715v37h50c56.667 0 96 14.167 118 42.5s33 76.166 33 143.499v958c0 66.667 -10.667 114.667 -32 144s-61 44 -119 44h-50v37h715c198 0 341.667 -37.833 431 -113.5
s134 -164.167 134 -265.5c0 -100 -43.333 -189.167 -130 -267.5s-244.667 -117.5 -474 -117.5h-149zM564 1334v-617h106c98.667 0 172.5 25 221.5 75s73.5 125 73.5 225c0 98.667 -20 176.167 -60 232.5s-118.333 84.5 -235 84.5h-106z" />
    <glyph glyph-name="Q" unicode="Q" horiz-adv-x="1685" 
d="M1025 -14c24.667 -85.333 73.1641 -153.668 145.497 -205.001s156.833 -77 253.5 -77c33.333 0 68.333 3.33301 105 10v-58c-90 -28 -184.667 -42 -284 -42c-134.667 0 -253.167 33.333 -355.5 100s-176.166 157.334 -221.499 272.001c-184 37.333 -327.333 122 -430 254
s-154 286.667 -154 464c0 221.333 72.833 399 218.5 533s323.834 201 534.501 201c218.667 0 400.334 -68.5 545.001 -205.5s217 -313.833 217 -530.5c0 -179.333 -51.167 -334 -153.5 -464s-242.5 -214 -420.5 -252zM1234 696.998c0 203.333 -35 365.167 -105 485.5
s-166 180.5 -288 180.5c-119.333 0 -214.333 -59.5 -285 -178.5s-106 -276.833 -106 -473.5c0 -212 35.833 -376.5 107.5 -493.5s165.5 -175.5 281.5 -175.5c68.667 0 132.5 21.667 191.5 65s107.667 115 146 215s57.5 225 57.5 375z" />
    <glyph glyph-name="R" unicode="R" horiz-adv-x="1473" 
d="M561 642l0.00195312 -450c0 -59.333 12.667 -100 38 -122s71.666 -33 138.999 -33h21v-37h-720v37h20c66.667 0 113 10.667 139 32s39 62.333 39 123v1022c0 60.667 -13 101.667 -39 123s-72.333 32 -139 32h-20v37h699c190 0 326.5 -37.333 409.5 -112
s124.5 -166.667 124.5 -276c0 -88 -25.833 -161 -77.5 -219s-129.167 -101 -232.5 -129l290 -463c69.333 -110 130.666 -166.667 183.999 -170v-37h-411l-401 642h-63zM561.002 1332v-615h78c112 0 189.833 27.667 233.5 83s65.5 130 65.5 224
c0 78 -14.167 140.333 -42.5 187s-64.5 78.5 -108.5 95.5s-103 25.5 -177 25.5h-49z" />
    <glyph glyph-name="S" unicode="S" horiz-adv-x="1237" 
d="M1076 1438l9.99707 -457.003h-39c-16 100.667 -68.667 188.667 -158 264s-195.333 113 -318 113c-83.333 0 -151.666 -20.167 -204.999 -60.5s-80 -90.166 -80 -149.499c0 -54 22.333 -99 67 -135s131.334 -75 260.001 -117c140.667 -46 246 -87.167 316 -123.5
s127.333 -87.833 172 -154.5s67 -141 67 -223c0 -125.333 -49.833 -227.166 -149.5 -305.499s-229.5 -117.5 -389.5 -117.5c-92.667 0 -199.334 22.333 -320.001 67c-41.333 15.333 -71.333 23 -90 23c-47.333 0 -83.333 -30 -108 -90h-42v515h40
c22.667 -135.333 81.334 -243 176.001 -323s206 -120 334 -120c96.667 0 174 20 232 60s87 94.333 87 163c0 67.333 -27 122.666 -81 165.999c-54.667 42.667 -149 87.334 -283 134.001s-232.667 87.167 -296 121.5s-113.666 80.833 -150.999 139.5s-56 125.334 -56 200.001
c0 115.333 45.167 212.5 135.5 291.5s204.833 118.5 343.5 118.5c96.667 0 199 -24.333 307 -73c52.667 -23.333 88.667 -35 108 -35c48.667 0 73 36 73 108h38z" />
    <glyph glyph-name="T" unicode="T" horiz-adv-x="1366" 
d="M1316 1406l-0.000976562 -371.002h-38c-26.667 195.333 -126.667 293 -300 293h-132v-1105c0 -65.333 10.667 -112.666 32 -141.999s61 -44 119 -44h51v-37h-733v37h54c44.667 0 80.834 10.333 108.501 31s41.5 72.334 41.5 155.001v1105h-143
c-55.333 0 -101 -9.16699 -137 -27.5s-68.333 -52.5 -97 -102.5s-46 -104.333 -52 -163h-41v371h1267z" />
    <glyph glyph-name="U" unicode="U" horiz-adv-x="1579" 
d="M1550 1406l0.000976562 -37.001c-54.667 0 -98.834 -13 -132.501 -39s-50.5 -79.667 -50.5 -161v-547c0 -118.667 -5.16699 -209.667 -15.5 -273s-38.5 -125.333 -84.5 -186s-107.667 -107.667 -185 -141s-172 -50 -284 -50c-107.333 0 -198.833 14.167 -274.5 42.5
s-136 65.333 -181 111s-75.833 95.834 -92.5 150.501s-25 128 -25 220v673c0 56.667 -3.5 96.667 -10.5 120s-22 42.5 -45 57.5s-61.5 22.5 -115.5 22.5h-26v37h697v-37h-23c-40 0 -71.667 -7.66699 -95 -23s-38.333 -34 -45 -56s-10 -62.333 -10 -121v-700
c0 -106.667 6.83301 -182.834 20.5 -228.501s48.167 -86.667 103.5 -123s126 -54.5 212 -54.5c76.667 0 143.5 14.833 200.5 44.5s101 68.167 132 115.5s51 98.833 60 154.5s13.5 140.5 13.5 254.5v537c0 70.667 -12.667 120.334 -38 149.001s-71.333 45.667 -138 51v37h432
z" />
    <glyph glyph-name="V" unicode="V" horiz-adv-x="1473" 
d="M1440 1406v-37.002c-42.667 -3.33301 -82.5 -24.666 -119.5 -63.999s-86.5 -134.666 -148.5 -285.999l-431 -1052h-36l-499 1247c-16 40 -36 75.667 -60 107s-61 47.333 -111 48v37h626v-37c-92 0 -138 -23.333 -138 -70c0 -20 6 -44.333 18 -73l313 -787l292 714
c18.667 44.667 28 80.667 28 108c0 70 -51.667 106 -155 108v37h421z" />
    <glyph glyph-name="W" unicode="W" horiz-adv-x="2027" 
d="M2006 1406l-0.000976562 -37c-28 -4.66699 -51.667 -21.5 -71 -50.5s-46.666 -92.5 -81.999 -190.5l-433 -1158h-33l-339 907l-376 -907h-38l-478 1237c-27.333 72 -48.5 116.667 -63.5 134s-37.833 26.666 -68.5 27.999v37h571v-37c-79.333 -2 -119 -28.667 -119 -80
c0 -25.333 12.667 -71 38 -137l273 -708l224 535l-78 207c-28.667 76.667 -58.167 126 -88.5 148s-69.833 33.667 -118.5 35v37h661v-37c-58 -0.666992 -97.167 -6.16699 -117.5 -16.5s-30.5 -28.166 -30.5 -53.499c0 -23.333 11.667 -66 35 -128l257 -691l241 648
c24.667 65.333 37 118 37 158c0 53.333 -45.667 81 -137 83v37h334z" />
    <glyph glyph-name="X" unicode="X" horiz-adv-x="1473" 
d="M858 822l384.998 -609c72.667 -114.667 137.667 -173.334 195 -176.001v-37h-654v37c86.667 0 130 22 130 66c0 20.667 -18.667 60.667 -56 120l-205 329l-220 -294c-40.667 -54 -61 -98.333 -61 -133c0 -53.333 59.667 -82.666 179 -87.999v-37h-517v37
c62.667 0 119.334 23.667 170.001 71s99 102 145 164l259 348l-371 584c-40 62.667 -73 104.834 -99 126.501s-60.667 34.5 -104 38.5v37h676v-37c-54 -0.666992 -90.333 -5.66699 -109 -15s-28 -27 -28 -53c0 -20.667 11.667 -50 35 -88l206 -325l165 223
c48 65.333 72 116 72 152c0 70.667 -50 106 -150 106v37h493v-37c-59.333 -2 -108.166 -19.333 -146.499 -52s-78.5 -77.334 -120.5 -134.001z" />
    <glyph glyph-name="Y" unicode="Y" horiz-adv-x="1473" 
d="M882 653l263.001 503c27.333 52 41 93 41 123c0 58.667 -53.333 88.667 -160 90v37h417v-37c-36.667 0 -69.334 -12.667 -98.001 -38s-69.334 -88.333 -122.001 -189l-297 -562v-357c0 -65.333 10.5 -112.666 31.5 -141.999s60.5 -44 118.5 -44h69v-37h-762v37h65
c56.667 0 96 14.167 118 42.5s33 76.166 33 143.499v298l-361 672c-44.667 83.333 -80.167 133.5 -106.5 150.5s-60.833 25.5 -103.5 25.5v37h654v-37c-55.333 -2 -91.666 -6.83301 -108.999 -14.5s-26 -23.5 -26 -47.5c0 -19.333 10 -47.333 30 -84z" />
    <glyph glyph-name="Z" unicode="Z" horiz-adv-x="1473" 
d="M1330 1406l-845 -1331h295c104.667 0 182.167 4.5 232.5 13.5s102 31.167 155 66.5s96.833 82.333 131.5 141s58 124.334 70 197.001h39l-55 -493h-1287l848 1332h-276c-239.333 0 -380 -109.667 -422 -329h-34l34 403h1114z" />
    <glyph glyph-name="bracketleft" unicode="[" horiz-adv-x="555" 
d="M128 1406h397v-37h-22c-53.333 0 -87 -8.66699 -101 -26s-21 -56.333 -21 -117v-1418c0 -58.667 6.66699 -96 20 -112s47.333 -24 102 -24h22v-39h-397v1773z" />
    <glyph glyph-name="backslash" unicode="\" horiz-adv-x="575" 
d="M232 1438l343 -1466h-232l-343 1466h232z" />
    <glyph glyph-name="bracketright" unicode="]" horiz-adv-x="555" 
d="M427 1406v-1773h-397v39h22c54 0 87.667 7.83301 101 23.5s20 53.167 20 112.5v1418c0 59.333 -6.5 98 -19.5 116s-46.833 27 -101.5 27h-22v37h397z" />
    <glyph glyph-name="asciicircum" unicode="^" horiz-adv-x="1045" 
d="M244 691h-166l411 715h66l411 -715h-173l-276 478z" />
    <glyph glyph-name="underscore" unicode="_" 
d="M-12 -154h1048v-102h-1048v102z" />
    <glyph glyph-name="grave" unicode="`" horiz-adv-x="682" 
d="M104 1442h302l117 -350h-85z" />
    <glyph glyph-name="a" unicode="a" 
d="M976 142l20.0049 -18.999c-48 -100.667 -123.667 -151 -227 -151c-55.333 0 -98.333 12.667 -129 38s-49.334 63 -56.001 113c-8.66699 -6 -29.667 -21.667 -63 -47c-92 -69.333 -175 -104 -249 -104c-50 0 -94 18 -132 54s-57 83.333 -57 142
c0 68.667 31.667 133 95 193s198.666 137.333 405.999 232v123c0 52.667 -2.33301 88.667 -7 108s-17.834 36.5 -39.501 51.5s-50.167 22.5 -85.5 22.5c-37.333 0 -69.833 -7.83301 -97.5 -23.5s-41.5 -35.5 -41.5 -59.5c0 -12.667 8 -28.334 24 -47.001
c26.667 -32 40 -62.333 40 -91c0 -32.667 -12.333 -59 -37 -79s-56 -30 -94 -30c-45.333 0 -81.5 11.833 -108.5 35.5s-40.5 54.167 -40.5 91.5c0 70.667 41 134.5 123 191.5s183.667 85.5 305 85.5c88 0 156.667 -12.333 206 -37s84.166 -56.5 104.499 -95.5
s30.5 -95.5 30.5 -169.5v-376c0 -81.333 3.66699 -134 11 -158s22.666 -36 45.999 -36c20 0 37.667 14 53 42zM584.005 520.001c-147.333 -75.333 -221 -163.333 -221 -264c0 -34 9.5 -60.833 28.5 -80.5s42.5 -29.5 70.5 -29.5c20 0 40.167 4.33301 60.5 13
s40.833 21.667 61.5 39v322z" />
    <glyph glyph-name="b" unicode="b" 
d="M416 1406l0.000976562 -542.001c36 36 73.167 63 111.5 81s77.833 27 118.5 27c60.667 0 116.667 -18.667 168 -56s92.666 -90 123.999 -158s47 -147.667 47 -239c0 -156.667 -42.5 -287 -127.5 -391s-187.5 -156 -307.5 -156c-92 0 -166.667 35.667 -224 107
c-24.667 -17.333 -77.667 -52 -159 -104h-34v1208c0 72.667 -6.5 121.334 -19.5 146.001s-41.167 38 -84.5 40v37h387zM416.001 769.999l-0.00195312 -336.002c0 -163.333 8.83301 -269.666 26.5 -318.999s48.834 -74 93.501 -74c51.333 0 89.833 37.333 115.5 112
s38.5 186.334 38.5 335.001c0 123.333 -11.167 215.833 -33.5 277.5s-56.166 92.5 -101.499 92.5c-20 0 -41.667 -7.33301 -65 -22s-48 -36.667 -74 -66z" />
    <glyph glyph-name="c" unicode="c" horiz-adv-x="895" 
d="M840 240l31.002 -22.001c-88 -164 -216.667 -246 -386 -246c-134.667 0 -241 48.167 -319 144.5s-117 208.833 -117 337.5c0 148.667 44.167 272.167 132.5 370.5s199.166 147.5 332.499 147.5c91.333 0 169.333 -23.333 234 -70s97 -103 97 -169
c0 -33.333 -11.5 -62.333 -34.5 -87s-53.167 -37 -90.5 -37c-90 0 -141.667 61.333 -155 184c-8 72 -39.667 108 -95 108c-46.667 0 -83.667 -26.667 -111 -80s-41 -125.666 -41 -216.999c0 -114.667 25.333 -222.5 76 -323.5s126 -151.5 226 -151.5
c79.333 0 152.666 37 219.999 111z" />
    <glyph glyph-name="d" unicode="d" 
d="M880 1406v-1130c0 -76.667 7.66699 -126.5 23 -149.5s46.333 -34.5 93 -34.5v-37l-396 -82v138c-24.667 -46 -55 -80.667 -91 -104s-77.333 -35 -124 -35c-98 0 -178.833 47 -242.5 141s-95.5 217.667 -95.5 371c0 146.667 35.833 264.667 107.5 354s154.5 134 248.5 134
c38 0 73.333 -8.16699 106 -24.5s63 -41.166 91 -74.499v310c0 73.333 -6.66699 122.666 -20 147.999s-40 38 -80 38h-40v37h420zM600 753c-20 42 -42 73.5 -66 94.5s-50 31.5 -78 31.5c-37.333 0 -65.5 -26.5 -84.5 -79.5s-28.5 -132.833 -28.5 -239.5
c0 -190 12.167 -314.667 36.5 -374s56.5 -89 96.5 -89c24 0 46.333 10.167 67 30.5s39.667 50.833 57 91.5v534z" />
    <glyph glyph-name="e" unicode="e" horiz-adv-x="895" 
d="M818 282l38 -22c-88 -192 -218.333 -288 -391 -288c-132.667 0 -235.5 46.5 -308.5 139.5s-109.5 207.833 -109.5 344.5c0 146 43.167 268.5 129.5 367.5s185.166 148.5 296.499 148.5c104 0 193.833 -43.333 269.5 -130s113.5 -199 113.5 -337h-538
c6 -114 35.833 -205.667 89.5 -275s116.834 -104 189.501 -104c90 0 163.667 52 221 156zM318 572h287c0.666992 22.667 1 44.667 1 66c0 93.333 -13 161.333 -39 204s-58.667 64 -98 64c-40 0 -75.167 -26 -105.5 -78s-45.5 -137.333 -45.5 -256z" />
    <glyph glyph-name="f" unicode="f" horiz-adv-x="682" 
d="M584 950l0.00195312 -102h-130v-627c0 -72 6.66699 -120.667 20 -146s40.333 -38 81 -38h47v-37h-562v37h34c40 0 66.833 12.5 80.5 37.5s20.5 73.833 20.5 146.5v627h-135v102h135v69c0 88.667 8.5 157.667 25.5 207s58.167 95.666 123.5 138.999s147 65 245 65
c73.333 0 130.666 -14 171.999 -42s62 -62.667 62 -104c0 -36 -14 -63.833 -42 -83.5s-60.667 -29.5 -98 -29.5c-38 0 -66.333 8.83301 -85 26.5s-28 36.167 -28 55.5c0 10.667 2.33301 26 7 46c2.66699 10 4 19 4 27c0 29.333 -14.667 44 -44 44
c-24.667 0 -41.334 -11.667 -50.001 -35s-13 -68.666 -13 -135.999v-249h130z" />
    <glyph glyph-name="g" unicode="g" 
d="M978 827l-180.001 0.00195312c63.333 -54.667 95 -124 95 -208c0 -94 -40.667 -172 -122 -234c-81.333 -62.667 -175 -94 -281 -94c-18 0 -37 1 -57 3c-16.667 2 -29.334 3 -38.001 3c-26.667 0 -52 -9.33301 -76 -28s-36 -42 -36 -70c0 -54 43.333 -81 130 -81l191 2
c250 0 375 -82 375 -246c0 -86.667 -37.167 -159.667 -111.5 -219s-194.5 -89 -360.5 -89c-148 0 -259 15.5 -333 46.5s-111 77.5 -111 139.5c0 32.667 13.167 61 39.5 85s65.833 43.667 118.5 59c-82 41.333 -123 100.666 -123 177.999
c0 49.333 16.167 93.666 48.5 132.999s89.833 77.333 172.5 114c-86 32.667 -149.333 79.167 -190 139.5s-61 121.5 -61 183.5c0 88.667 38.667 165.5 116 230.5s175 97.5 293 97.5c34.667 0 67.334 -3 98.001 -9s59.334 -15 86.001 -27h317v-109zM352.999 616.002
c0 -88.667 11.332 -155.168 33.999 -199.501s56.334 -66.5 101.001 -66.5c45.333 0 79.333 23.667 102 71s34 118 34 212c0 93.333 -11.167 163.333 -33.5 210s-55.833 70 -100.5 70c-45.333 0 -79.5 -24.667 -102.5 -74s-34.5 -123.666 -34.5 -222.999zM232.998 -218.999
c0 -47.333 23.999 -82.833 71.999 -106.5s119.667 -35.5 215 -35.5c106 0 181.833 14.167 227.5 42.5s68.5 60.5 68.5 96.5c0 26 -15.333 48.5 -46 67.5s-135 28.5 -313 28.5c-64 0 -107.667 -1.83301 -131 -5.5s-44.666 -15 -63.999 -34s-29 -36.833 -29 -53.5z" />
    <glyph glyph-name="h" unicode="h" 
d="M399 1406l-0.000976562 -585.998c38.667 50.667 80.334 88.667 125.001 114s92.667 38 144 38c170.667 0 256 -115.667 256 -347v-404c0 -66.667 3.83301 -110.167 11.5 -130.5s23.834 -35.5 48.501 -45.5l17 -8v-37h-443v37c36 7.33301 59 22.5 69 45.5
s15 69.167 15 138.5v460c0 105.333 -29 158 -87 158c-24.667 0 -50 -9.66699 -76 -29s-52.667 -48.333 -80 -87v-502c0 -68.667 5 -114.334 15 -137.001s33 -38.334 69 -47.001v-37h-448v37c35.333 10.667 58.166 26.5 68.499 47.5s15.5 66.5 15.5 136.5v962
c0 71.333 -5 118.833 -15 142.5s-33 38.167 -69 43.5v37h364z" />
    <glyph glyph-name="i" unicode="i" horiz-adv-x="555" 
d="M288 1438c44 0 81.667 -15.167 113 -45.5s47 -67.833 47 -112.5c0 -43.333 -15.5 -80.5 -46.5 -111.5s-68.5 -46.5 -112.5 -46.5s-81.333 15.5 -112 46.5s-46 68.5 -46 112.5c0 42 15 78.667 45 110s67.333 47 112 47zM425 950v-728.998
c0 -72.667 6.5 -120.834 19.5 -144.501s40.5 -36.834 82.5 -39.501v-37h-501v37c48 0 79.667 11.333 95 34s23 72.667 23 150v505c0 78.667 -7.66699 129.5 -23 152.5s-47 34.5 -95 34.5v37h399z" />
    <glyph glyph-name="j" unicode="j" horiz-adv-x="555" 
d="M279 1438c44.667 0 82.5 -15.166 113.5 -45.499s46.5 -67.833 46.5 -112.5c0 -43.333 -15.5 -80.5 -46.5 -111.5s-68.167 -46.5 -111.5 -46.5c-44 0 -81.5 15.667 -112.5 47s-46.5 68.666 -46.5 111.999c0 42 15 78.667 45 110s67.333 47 112 47zM428 950.001v-937
c0 -112.667 -6.33301 -195.334 -19 -248.001s-43.334 -99 -92.001 -139s-108 -60 -178 -60c-54.667 0 -98.334 11.833 -131.001 35.5s-49 52.834 -49 87.501c0 24 9 45.5 27 64.5s41.667 28.5 71 28.5c42.667 0 76.334 -28.667 101.001 -86
c16.667 -38.667 35.334 -58 56.001 -58c16 0 28 5 36 15s12 25 12 45c0 24.667 -19 80.334 -57 167.001c-38 88 -57 179 -57 273v589c0 73.333 -6.83301 122.666 -20.5 147.999s-40.5 38 -80.5 38h-21v37h402z" />
    <glyph glyph-name="k" unicode="k" horiz-adv-x="1131" 
d="M433 1406l-0.000976562 -934.998l196 225c56 64 84 112.333 84 145c0 48 -36 72 -108 72v37h410v-37c-46.667 -4 -88.167 -18.167 -124.5 -42.5s-87.166 -73.833 -152.499 -148.5l-84 -95l254 -389c84 -129.333 148.333 -196.333 193 -201v-37h-472v37
c39.333 3.33301 59 16.666 59 39.999c0 16 -19.667 53.667 -59 113l-152 236l-44 -51v-153c0 -74.667 7.33301 -124.167 22 -148.5s46 -36.5 94 -36.5v-37h-520v37h24c40 0 66.833 12.667 80.5 38s20.5 74.333 20.5 147v961c0 73.333 -6.66699 122.666 -20 147.999
s-40.333 38 -81 38h-24v37h404z" />
    <glyph glyph-name="l" unicode="l" horiz-adv-x="555" 
d="M430 1406v-1178l-1 -87c0 -69.333 34.667 -104 104 -104v-37h-507v37c38.667 0.666992 66.667 7.33398 84 20.001s28.5 29.167 33.5 49.5s7.5 60.833 7.5 121.5v923c0 82 -2.5 132.833 -7.5 152.5s-16 35.5 -33 47.5s-45.167 18 -84.5 18v37h404z" />
    <glyph glyph-name="m" unicode="m" horiz-adv-x="1579" 
d="M402 950l-0.000976562 -133c40.667 52 84 90.833 130 116.5s94.333 38.5 145 38.5c56 0 107 -15 153 -45s74 -72.667 84 -128c40 58 84.833 101.333 134.5 130s103.834 43 162.501 43c76 0 136.5 -23.833 181.5 -71.5s67.5 -112.5 67.5 -194.5v-485
c0 -70.667 5.66699 -118 17 -142s36 -38 74 -42v-37h-459v37c36.667 6 60.334 20.833 71.001 44.5s16 70.167 16 139.5v467c0 56.667 -6.16699 96.167 -18.5 118.5s-34.166 33.5 -65.499 33.5c-26.667 0 -53.667 -10.333 -81 -31s-55 -51.667 -83 -93v-495
c0 -69.333 5.16699 -116 15.5 -140s34.166 -38.667 71.499 -44v-37h-453v37c36 6.66699 59.167 21.667 69.5 45s15.5 69.666 15.5 138.999v460c0 58 -6.16699 98.5 -18.5 121.5s-35.833 34.5 -70.5 34.5c-26 0 -52.333 -10 -79 -30s-53.334 -50.333 -80.001 -91v-495
c0 -70 5.5 -117 16.5 -141s35.167 -38.333 72.5 -43v-37h-464v37c38.667 2.66699 64 16.167 76 40.5s18 72.166 18 143.499v505c0 72.667 -6 121.334 -18 146.001s-37.333 38.334 -76 41.001v37h375z" />
    <glyph glyph-name="n" unicode="n" 
d="M400 950v-127.003c41.333 50 84.833 87.333 130.5 112s93.167 37 142.5 37c62 0 114.5 -17.667 157.5 -53s69.5 -75.333 79.5 -120s15 -114.667 15 -210v-368c0 -67.333 3.83301 -110.666 11.5 -129.999s27.167 -37.333 58.5 -54v-37h-435v37c36 8 58.833 23.333 68.5 46
s14.5 68.667 14.5 138v422c0 82.667 -6.16699 136.334 -18.5 161.001s-35.5 37 -69.5 37c-26 0 -51.833 -9.5 -77.5 -28.5s-51.5 -47.833 -77.5 -86.5v-505c0 -68.667 5 -114.667 15 -138s33.333 -38.666 70 -45.999v-37h-444v37c33.333 10 54.666 26.167 63.999 48.5
s14 67.5 14 135.5v505c0 68 -4.66699 113.667 -14 137s-30.666 40 -63.999 50v37h359z" />
    <glyph glyph-name="o" unicode="o" 
d="M966 469c0 -160.667 -47.332 -283.667 -141.999 -369s-197 -128 -307 -128c-114.667 0 -219.834 42.833 -315.501 128.5s-143.5 210.167 -143.5 373.5c0 148 43.667 268 131 360s194 138 320 138c128.667 0 237 -45.167 325 -135.5s132 -212.833 132 -367.5zM672.001 449
c0 182.667 -11 304.333 -33 365s-63.667 91 -125 91c-55.333 0 -96 -27.667 -122 -83s-39 -150.333 -39 -285c0 -198.667 10.833 -330.167 32.5 -394.5s64.167 -96.5 127.5 -96.5c58 0 99 28.833 123 86.5s36 163.167 36 316.5z" />
    <glyph glyph-name="p" unicode="p" 
d="M423 950l-0.00195312 -112.998c28.667 45.333 61.334 79.166 98.001 101.499s77.334 33.5 122.001 33.5c90 0 167.667 -45.833 233 -137.5s98 -212.834 98 -363.501c0 -156 -36.5 -278.167 -109.5 -366.5s-154.5 -132.5 -244.5 -132.5c-40 0 -76.333 9 -109 27
s-62 45 -88 81v-293c0 -71.333 6.66699 -119.333 20 -144s40.333 -37 81 -37h42v-38h-537v38c46.667 0 77.167 11.667 91.5 35s21.5 72 21.5 146v940c0 76 -7.33301 126 -22 150s-45 36 -91 36v37h394zM422.998 729.002l-0.000976562 -559c26 -33.333 50.667 -58.333 74 -75
s45.333 -25 66 -25c37.333 0 66 24.667 86 74s30 156.333 30 321c0 128.667 -10.667 225 -32 289s-53.666 96 -96.999 96c-24.667 0 -47.5 -10 -68.5 -30s-40.5 -50.333 -58.5 -91z" />
    <glyph glyph-name="q" unicode="q" horiz-adv-x="1034" 
d="M898 972l-0.00195312 -1185c0 -71.333 6.5 -118.833 19.5 -142.5s40.833 -36.5 83.5 -38.5v-38h-503v38c48.667 0 80.667 11.167 96 33.5s23 71.5 23 147.5v299c-33.333 -38 -69.166 -66.5 -107.499 -85.5s-78.833 -28.5 -121.5 -28.5
c-94.667 0 -174.667 43.5 -240 130.5s-98 197.5 -98 331.5c0 177.333 46 311.333 138 402s189.667 136 293 136c45.333 0 86.833 -8.83301 124.5 -26.5s71.834 -44.167 102.501 -79.5l162 106h28zM616.998 174l-0.000976562 400.002c0 131.333 -9.66699 219.666 -29 264.999
s-49.666 68 -90.999 68c-50.667 0 -88.667 -36.333 -114 -109s-38 -181.667 -38 -327c0 -150.667 12.5 -251.834 37.5 -303.501s58.833 -77.5 101.5 -77.5c20 0 41.167 7 63.5 21s45.5 35 69.5 63z" />
    <glyph glyph-name="r" unicode="r" horiz-adv-x="789" 
d="M408 950v-170.001c34 64 70 112 108 144s78 48 120 48c32.667 0 59 -12.5 79 -37.5s30 -57.5 30 -97.5c0 -45.333 -11 -80.166 -33 -104.499s-48.667 -36.5 -80 -36.5c-26.667 0 -56 12.333 -88 37c-25.333 18.667 -44.666 28 -57.999 28
c-26.667 0 -46.334 -19.667 -59.001 -59s-19 -108.333 -19 -207v-274c0 -72 6.66699 -120.667 20 -146s40 -38 80 -38h23v-37h-509v37c42 0 69.833 12.333 83.5 37s20.5 73.667 20.5 147v506c0 72.667 -6.5 121.167 -19.5 145.5s-41.167 37.833 -84.5 40.5v37h386z" />
    <glyph glyph-name="s" unicode="s" horiz-adv-x="789" 
d="M53 310l23.0029 -0.00195312c34 -87.333 81.5 -153.833 142.5 -199.5s123.167 -68.5 186.5 -68.5c37.333 0 71.166 10.833 101.499 32.5s45.5 51.167 45.5 88.5c0 34 -14.667 64.333 -44 91c-30 26.667 -85.333 58.667 -166 96c-108 50 -185 99 -231 147
s-69 109.333 -69 184c0 80.667 29 149.334 87 206.001s130 85 216 85c45.333 0 97.666 -12 156.999 -36c38 -15.333 63.333 -23 76 -23c32 0 59.667 19.667 83 59h23l17 -321h-25c-26.667 76 -70 136.667 -130 182s-122 68 -186 68c-35.333 0 -65.166 -9.5 -89.499 -28.5
s-36.5 -42.167 -36.5 -69.5c0 -52 61 -107.333 183 -166c129.333 -62 218.666 -117.667 267.999 -167c48.667 -49.333 73 -113.666 73 -192.999c0 -82 -30.333 -153.333 -91 -214s-140.334 -91 -239.001 -91c-52.667 0 -115.667 14 -189 42c-38 14.667 -63.333 22 -76 22
c-27.333 0 -50 -21.333 -68 -64h-19z" />
    <glyph glyph-name="t" unicode="t" horiz-adv-x="682" 
d="M648 950l0.00195312 -99.999h-215v-598c0 -66 5.33301 -109.667 16 -131s29.667 -32 57 -32c46 0 85.333 32 118 96l24 -34c-54 -119.333 -140 -179 -258 -179c-54.667 0 -100.834 12.5 -138.501 37.5s-64 55.667 -79 92s-22.5 94.166 -22.5 173.499v575h-116v36
c71.333 50.667 143.666 117 216.999 199s122.333 151 147 207h35v-342h215z" />
    <glyph glyph-name="u" unicode="u" 
d="M919 950v-800.001l-1 -44c6 -43.333 29.667 -66.333 71 -69v-37h-354v123c-42.667 -50 -86.5 -87.667 -131.5 -113s-91.167 -38 -138.5 -38c-80.667 0 -143.667 27 -189 81c-46 53.333 -69 132.666 -69 237.999v484c0 49.333 -5.83301 83.333 -17.5 102
s-31.834 30.667 -60.501 36v37h362v-659c0 -60 7.33301 -105 22 -135s36.334 -45 65.001 -45c30.667 0 59 10.333 85 31s50 51.334 72 92.001v541c0 48 -7.66699 82.333 -23 103s-46 32.334 -92 35.001v37h399z" />
    <glyph glyph-name="v" unicode="v" horiz-adv-x="895" 
d="M876 950v-36.999c-48.667 -12.667 -98 -90.334 -148 -233.001l-251 -707h-46l-277 762c-28 76.667 -50 125 -66 145s-38.667 31 -68 33v37h476v-37c-56 -2 -84 -25.333 -84 -70c0 -18.667 6.33301 -45.334 19 -80.001l132 -361l118 333
c12.667 36.667 19 66.334 19 89.001c0 54 -27.333 83.667 -82 89v37h258z" />
    <glyph glyph-name="w" unicode="w" horiz-adv-x="1366" 
d="M1325 950v-37.0029c-34 -17.333 -75 -96.666 -123 -237.999l-235 -699h-51l-229 688l-232 -688h-53l-276 800c-30 86.667 -58.667 132.334 -86 137.001v37h431v-37c-52 0 -78 -17.667 -78 -53c0 -16.667 5.66699 -42 17 -76l126 -367l118 347l-22 66
c-16.667 50.667 -48.667 78.334 -96 83.001v37h467v-37c-56.667 -3.33301 -85 -23 -85 -59c0 -16 6 -42 18 -78l115 -349l103 309c13.333 39.333 20 69.666 20 90.999c0 44.667 -23 73.334 -69 86.001v37h220z" />
    <glyph glyph-name="x" unicode="x" horiz-adv-x="1131" 
d="M668 564l283.001 -412.999c34 -49.333 59.333 -80.666 76 -93.999s38.334 -20 65.001 -20v-37h-528v37h22c46 0 69 13.333 69 40c0 17.333 -16 49.333 -48 96l-117 175l-112 -135c-44 -53.333 -66 -93.333 -66 -120c0 -37.333 32 -56 96 -56v-37h-368v37
c42.667 0.666992 78 8.16699 106 22.5s61.333 44.833 100 91.5l208 250l-271 390c-36.667 53.333 -63.334 87 -80.001 101s-37.667 21 -63 21v37h524v-37c-60 0 -90 -13.667 -90 -41c0 -17.333 11 -42 33 -74l125 -181l124 152c27.333 33.333 41 62.333 41 87
c0 38 -28 57 -84 57v37h336v-37c-44 -2.66699 -78.333 -12.834 -103 -30.501s-63.334 -58.834 -116.001 -123.501z" />
    <glyph glyph-name="y" unicode="y" 
d="M989 950l-0.000976562 -36.999c-36 -2.66699 -65.167 -19.5 -87.5 -50.5s-57.5 -114.5 -105.5 -250.5l-262 -743c-44 -126 -87.833 -208 -131.5 -246s-94.5 -57 -152.5 -57c-52.667 0 -95.667 14.833 -129 44.5s-50 68.167 -50 115.5c0 39.333 12.167 72.166 36.5 98.499
s54.5 39.5 90.5 39.5c72 0 108 -46 108 -138c0 -36.667 11 -55 33 -55c44.667 0 93.334 77 146.001 231l18 54l-290 701c-42 101.333 -73.5 166.833 -94.5 196.5s-49.167 49.5 -84.5 59.5v37h500v-37c-60.667 -2.66699 -91 -22.334 -91 -59.001
c0 -26 10.667 -65.333 32 -118l162 -392l119 344c19.333 57.333 29 103.333 29 138c0 32 -8.16699 54.333 -24.5 67s-43.833 19.334 -82.5 20.001v37h311z" />
    <glyph glyph-name="z" unicode="z" horiz-adv-x="895" 
d="M864 950l-0.00292969 -28.002l-492 -859h65c78 0 138.333 5.83301 181 17.5s81.334 36.834 116.001 75.501s62.667 93.334 84 164.001h32l-32 -320h-791l499 885h-142c-75.333 0 -130.666 -12.5 -165.999 -37.5s-63.666 -82.833 -84.999 -173.5h-36v276h767z" />
    <glyph glyph-name="braceleft" unicode="{" horiz-adv-x="811" 
d="M720 1442v-45.9961c-68 -10.667 -117.5 -34.334 -148.5 -71.001s-46.5 -75.334 -46.5 -116.001c0 -45.333 7.66699 -99.666 23 -162.999c16.667 -68.667 25 -128.334 25 -179.001c0 -62 -25.167 -124.333 -75.5 -187s-133.833 -108.334 -250.5 -137.001
c126 -36.667 212.167 -86.334 258.5 -149.001s69.5 -121.334 69.5 -176.001c0 -42.667 -8 -97 -24 -163c-16.667 -66 -25 -124.333 -25 -175c0 -102.667 64.667 -167 194 -193v-46c-140 0 -243.833 34.833 -311.5 104.5s-101.5 139.5 -101.5 209.5
c0 48 10.333 111.667 31 191c15.333 59.333 23 113.333 23 162c0 50.667 -16.833 95 -50.5 133s-82.167 61.333 -145.5 70v61c69.333 10 119.333 36.333 150 79s46 87.334 46 134.001c0 47.333 -7.33301 99 -22 155c-20.667 79.333 -31 140.333 -31 183c0 74 35 145 105 213
s172.333 103.333 307 106z" />
    <glyph glyph-name="bar" unicode="|" horiz-adv-x="449" 
d="M116 1438h217v-1872h-217v1872z" />
    <glyph glyph-name="braceright" unicode="}" horiz-adv-x="811" 
d="M91 -360v46.0029c67.333 11.333 116.666 35.333 147.999 72s47 75 47 115c0 45.333 -7.66699 100 -23 164c-16.667 68 -25 127.333 -25 178c0 62.667 25 125.167 75 187.5s133.667 107.833 251 136.5c-126.667 37.333 -213.167 87.166 -259.5 149.499
s-69.5 120.833 -69.5 175.5c0 42.667 8.33301 97 25 163c16 66 24 124.667 24 176c0 102 -64.333 166 -193 192v46c71.333 0 135.833 -9.66699 193.5 -29s108.667 -56.833 153 -112.5s66.5 -113.167 66.5 -172.5c0 -48 -10.333 -111.667 -31 -191
c-15.333 -59.333 -23 -113.333 -23 -162c0 -50.667 16.667 -95 50 -133s82 -61.333 146 -70v-61c-69.333 -10 -119.333 -36.333 -150 -79s-46 -87.334 -46 -134.001s7.33301 -98.334 22 -155.001c20 -79.333 30 -140 30 -182c0 -84 -36.667 -157 -110 -219
s-173.666 -95.667 -300.999 -101z" />
    <glyph glyph-name="asciitilde" unicode="~" horiz-adv-x="1366" 
d="M1168 883h69.002c-4 -117.333 -33 -206.833 -87 -268.5s-121.667 -92.5 -203 -92.5c-41.333 0 -82.833 6.16699 -124.5 18.5s-125.834 45.5 -252.501 99.5c-92.667 39.333 -160.667 59 -204 59c-94 0 -150 -58.667 -168 -176h-69c4.66699 128 34.5 220.167 89.5 276.5
s118.833 84.5 191.5 84.5c79.333 0 207.666 -39 384.999 -117c95.333 -41.333 163.666 -62 204.999 -62c50 0 89.333 16.833 118 50.5s45.334 76.167 50.001 127.5z" />
    <glyph glyph-name="nbspace" unicode="&#xa0;" horiz-adv-x="512" 
 />
    <glyph glyph-name="currency" unicode="&#xa4;" horiz-adv-x="1429" 
d="M968 1097l132.003 132.998l140 -143l-131 -132c48.667 -79.333 73 -162.666 73 -249.999c0 -90 -24.333 -174.333 -73 -253l131 -130l-140 -142l-132 130c-38.667 -24.667 -79.334 -43.167 -122.001 -55.5s-87.334 -18.5 -134.001 -18.5
c-44 0 -86.833 6.16699 -128.5 18.5s-81.834 30.833 -120.501 55.5l-131 -130l-142 142l132 130c-49.333 76.667 -74 161.334 -74 254.001c0 88.667 24.667 171.667 74 249l-132 132l142 143l131 -133c40 24.667 81 43 123 55s84.667 18 128 18c44 0 87.167 -6 129.5 -18
s83.833 -30.333 124.5 -55zM715.003 970.998c-73.333 0 -136.166 -26.167 -188.499 -78.5s-78.5 -115.5 -78.5 -189.5c0 -73.333 26.167 -136.333 78.5 -189s115.166 -79 188.499 -79s136.333 26.333 189 79s79 115.667 79 189c0 76.667 -26.667 140.5 -80 191.5
s-116 76.5 -188 76.5z" />
    <glyph glyph-name="brokenbar" unicode="&#xa6;" horiz-adv-x="449" 
d="M116 1438h217v-799h-217v799zM116 363h217v-797h-217v797z" />
    <glyph glyph-name="section" unicode="&#xa7;" 
d="M725 158c48 -37.333 83.999 -78.9951 107.999 -124.995s36 -96.667 36 -152c0 -84.667 -32.833 -158.334 -98.5 -221.001s-156.5 -94 -272.5 -94c-96.667 0 -175.5 23 -236.5 69s-91.5 104.333 -91.5 175c0 36 10.667 66.667 32 92s50 38 86 38
c30.667 0 57.334 -10.167 80.001 -30.5s34 -45.833 34 -76.5c0 -18 -3 -36.667 -9 -56c-7.33301 -26 -11 -42.333 -11 -49c0 -20 11 -36.833 33 -50.5s49.667 -20.5 83 -20.5c60 0 106.667 14.833 140 44.5s50 64.167 50 103.5c0 43.333 -16.333 82.666 -49 117.999
c-33.333 35.333 -114 97.666 -242 186.999c-114.667 80.667 -194.167 148.667 -238.5 204s-66.5 123.333 -66.5 204c0 134 67.667 254.333 203 361c-46.667 41.333 -81.667 84.166 -105 128.499s-35 90.5 -35 138.5c0 81.333 30.833 155 92.5 221s154.167 99 277.5 99
c108.667 0 191.667 -24.667 249 -74s86 -105.333 86 -168c0 -40.667 -12.167 -72.5 -36.5 -95.5s-51.833 -34.5 -82.5 -34.5c-32.667 0 -59.834 11.667 -81.501 35s-32.5 52.666 -32.5 87.999c0 14 3 32.333 9 55c5.33301 16.667 8 28.334 8 35.001
c0 23.333 -9.5 40.666 -28.5 51.999s-47.833 17 -86.5 17c-54 0 -98.667 -14.667 -134 -44s-53 -66 -53 -110c0 -36 14.333 -70.333 43 -103c28.667 -33.333 78 -74.333 148 -123c114 -78.667 195.833 -139.5 245.5 -182.5s88.334 -90.5 116.001 -142.5
s41.5 -106.333 41.5 -163c0 -135.333 -70.333 -252 -211 -350zM668.999 208.005c66.667 60 100 122.666 100 187.999c0 52 -19.167 101.833 -57.5 149.5s-117.833 113.834 -238.5 198.501l-53 38c-34.667 26.667 -55 41.667 -61 45c-67.333 -58.667 -101 -122.667 -101 -192
c0 -42.667 17.5 -88.5 52.5 -137.5s154.5 -145.5 358.5 -289.5z" />
    <glyph glyph-name="copyright" unicode="&#xa9;" horiz-adv-x="1579" 
d="M791 1438c199.333 0 370.668 -71.333 514.001 -214s215 -315.334 215 -518.001c0 -200.667 -71.667 -372.667 -215 -516s-315.333 -215 -516 -215c-201.333 0 -373.333 71.5 -516 214.5s-214 315.167 -214 516.5c0 202.667 72.167 375.334 216.5 518.001
s316.166 214 515.499 214zM789.002 1344c-106.667 0 -210.333 -27.166 -311 -81.499s-180.334 -132.333 -239.001 -234s-88 -209.167 -88 -322.5c0 -176 62.333 -326.5 187 -451.5s275 -187.5 451 -187.5s326.5 62.667 451.5 188s187.5 275.666 187.5 450.999
c0 176 -62.667 326.333 -188 451s-275.666 187 -450.999 187zM1135 1146l-0.00195312 -271.999h-40c-11.333 69.333 -41 123.833 -89 163.5s-102.667 59.5 -164 59.5c-80 0 -144.5 -31.333 -193.5 -94s-73.5 -156.334 -73.5 -281.001c0 -146 26.667 -246.667 80 -302
s114 -83 182 -83c101.333 0 191 47.333 269 142v-72c-83.333 -86.667 -192.666 -130 -327.999 -130c-124 0 -227.333 38 -310 114s-124 177.667 -124 305c0 132.667 43.667 241.167 131 325.5s195 126.5 323 126.5c58.667 0 126 -14 202 -42c22 -8 38 -12 48 -12
c26.667 0 42.334 17.333 47.001 52h40z" />
    <glyph glyph-name="guillemotleft" unicode="&#xab;" 
d="M990 982l-238 -460l238 -465h-75l-427 465l427 460h75zM538 982l-240 -460l240 -465h-79l-426 465l426 460h79z" />
    <glyph glyph-name="logicalnot" unicode="&#xac;" horiz-adv-x="1366" 
d="M127 1045h1112v-685h-209v477h-903v208z" />
    <glyph glyph-name="registered" unicode="&#xae;" horiz-adv-x="1579" 
d="M791 1438c199.333 0 370.668 -71.333 514.001 -214s215 -315.334 215 -518.001c0 -200.667 -71.667 -372.667 -215 -516s-315.333 -215 -516 -215c-201.333 0 -373.333 71.5 -516 214.5s-214 315.167 -214 516.5c0 202.667 72.167 375.334 216.5 518.001
s316.166 214 515.499 214zM789.002 1344c-106.667 0 -210.333 -27.166 -311 -81.499s-180.334 -132.333 -239.001 -234s-88 -209.167 -88 -322.5c0 -176 62.333 -326.5 187 -451.5s275 -187.5 451 -187.5s326.5 62.667 451.5 188s187.5 275.666 187.5 450.999
c0 176 -62.667 326.333 -188 451s-275.666 187 -450.999 187zM399.003 1131l372.998 0.00195312c90.667 0 158.834 -6.83301 204.501 -20.5s83.834 -39.334 114.501 -77.001s46 -80.834 46 -129.501c0 -53.333 -15.333 -97.833 -46 -133.5s-76.667 -62.167 -138 -79.5
l141 -257c36 -65.333 72 -99.333 108 -102v-35h-249l-211 379h-48v-204c0 -58 7.83301 -95.333 23.5 -112s49.167 -26 100.5 -28v-35h-436v35c40 0 68 7.66699 84 23s24 54.333 24 117v486c0 56 -5.83301 91.833 -17.5 107.5s-36.167 25.5 -73.5 29.5v36zM694.001 729.003
c24 -3.33301 43.666 -5 58.999 -5c43.333 0 81.333 16.5 114 49.5s49 78.167 49 135.5c0 58.667 -15.167 102.667 -45.5 132s-76.166 44 -137.499 44h-39v-356z" />
    <glyph glyph-name="degree" unicode="&#xb0;" horiz-adv-x="811" 
d="M405 1438c93.333 0 174.333 -33 243 -99s103 -148.333 103 -247c0 -94.667 -33.833 -176 -101.5 -244s-149.167 -102 -244.5 -102c-96 0 -177.667 33.833 -245 101.5s-101 149.167 -101 244.5s34 176.833 102 244.5s149.333 101.5 244 101.5zM405 1307
c-58.667 0 -109.167 -21 -151.5 -63s-63.5 -92.667 -63.5 -152s21 -110 63 -152s92.667 -63 152 -63s110 21.167 152 63.5s63 92.833 63 151.5c0 59.333 -21.167 110 -63.5 152s-92.833 63 -151.5 63z" />
    <glyph glyph-name="plusminus" unicode="&#xb1;" horiz-adv-x="1366" 
d="M127 1018h452v451h208v-451h452v-209h-452v-452h-208v452h-452v209zM127 208h1112v-208h-1112v208z" />
    <glyph glyph-name="mu" unicode="&#xb5;" horiz-adv-x="1173" 
d="M135 950l287.002 -0.00195312v-619c0 -96 5.16699 -156.333 15.5 -181s34.166 -37 71.499 -37c32.667 0 63.334 10.5 92.001 31.5s55 52.167 79 93.5v712h286v-630c0 -84 5.16699 -137.167 15.5 -159.5s29.166 -33.5 56.499 -33.5c42 0 68 49.333 78 148h44
c-0.666992 -99.333 -28.167 -174.666 -82.5 -225.999s-115.5 -77 -183.5 -77c-54 0 -98.333 13.5 -133 40.5s-59.334 67.167 -74.001 120.5c-46.667 -53.333 -95 -93.5 -145 -120.5s-101.667 -40.5 -155 -40.5c-50.667 0 -101.667 19 -153 57c0 -64 12 -139.333 36 -226
c16 -57.333 24 -97.666 24 -120.999c0 -41.333 -11 -74.5 -33 -99.5s-51.667 -37.5 -89 -37.5c-74.667 0 -112 40 -112 120c0 31.333 8.33301 79 25 143c22 86 35.833 154 41.5 204s8.5 135.333 8.5 256v682z" />
    <glyph glyph-name="paragraph" unicode="&#xb6;" horiz-adv-x="1153" 
d="M664 1328l0.00195312 -1760h-104v877c-200.667 6.66699 -343.834 55.667 -429.501 147s-128.5 206.333 -128.5 345c0 124 31.167 220.833 93.5 290.5s125.666 116.834 189.999 141.501s200.833 37 409.5 37h456v-45h-45c-44.667 0 -77.667 -7.33301 -99 -22
s-35.333 -32.167 -42 -52.5s-10 -65.833 -10 -136.5v-1582h-102v1760h-189z" />
    <glyph glyph-name="periodcentered" unicode="&#xb7;" horiz-adv-x="555" 
d="M278 868c44.667 0 83.3311 -15.667 115.998 -47s49 -70.666 49 -117.999c0 -45.333 -16.167 -84.166 -48.5 -116.499s-71.166 -48.5 -116.499 -48.5c-46 0 -85 16.167 -117 48.5s-48 71.166 -48 116.499c0 47.333 16.333 86.666 49 117.999s71.334 47 116.001 47z" />
    <glyph glyph-name="periodcentered" unicode="&#x2219;" horiz-adv-x="555" 
d="M278 868c44.667 0 83.3311 -15.667 115.998 -47s49 -70.666 49 -117.999c0 -45.333 -16.167 -84.166 -48.5 -116.499s-71.166 -48.5 -116.499 -48.5c-46 0 -85 16.167 -117 48.5s-48 71.166 -48 116.499c0 47.333 16.333 86.666 49 117.999s71.334 47 116.001 47z" />
    <glyph glyph-name="guillemotright" unicode="&#xbb;" 
d="M33 982h75l427 -460l-427 -465h-75l239 465zM486 982h78l426 -460l-426 -465h-78l239 465z" />
    <glyph glyph-name="afii10023" unicode="&#x401;" horiz-adv-x="1366" 
d="M431 1799c40 0 74.5 -14.333 103.5 -43s43.5 -63.667 43.5 -105c0 -40.667 -14.5 -75.5 -43.5 -104.5s-63.5 -43.5 -103.5 -43.5c-40.667 0 -75.5 14.5 -104.5 43.5s-43.5 63.833 -43.5 104.5s14.5 75.5 43.5 104.5s63.833 43.5 104.5 43.5zM937 1798
c39.333 0 73.668 -14.001 103.001 -42.001s44 -63 44 -105c0 -40 -14.333 -74.333 -43 -103s-63.334 -43 -104.001 -43c-40 0 -74.333 14.333 -103 43s-43 63 -43 103c0 40.667 14.333 75.334 43 104.001s63 43 103 43zM569.002 1333v-579h26
c66.667 0 116.5 9.33301 149.5 28s60.333 51.334 82 98.001s38.167 112.667 49.5 198h38v-715h-38c-10.667 87.333 -28.167 154 -52.5 200s-53.5 77 -87.5 93s-81 24 -141 24h-26v-442c0 -70 9.5 -114.667 28.5 -134s55.167 -29 108.5 -29h134
c224.667 0 373.667 119.667 447 359h36l-65 -434h-1221v37h54c56.667 0 96 14.167 118 42.5s33 76.166 33 143.499v958c0 66 -10.667 113.833 -32 143.5s-61 44.5 -119 44.5h-54v37h1186v-398h-36c-14.667 81.333 -40.667 148 -78 200s-80.833 85.833 -130.5 101.5
s-122.5 23.5 -218.5 23.5h-191z" />
    <glyph glyph-name="afii10051" unicode="&#x402;" horiz-adv-x="1685" 
d="M45 1406l1196 -0.00195312v-338h-37c-30 100.667 -68.833 167.834 -116.5 201.501s-116.834 50.5 -207.501 50.5h-108v-529c63.333 60.667 126.166 106 188.499 136s124.5 45 186.5 45c139.333 0 251.833 -48 337.5 -144s128.5 -210.667 128.5 -344
s-39.667 -250 -119 -350s-178.666 -150 -297.999 -150c-46 0 -94.667 17.667 -146 53v57c38 -33.333 69.333 -50 94 -50c44 0 74.5 31.167 91.5 93.5s25.5 163.166 25.5 302.499c0 123.333 -18.667 215.833 -56 277.5s-93.666 92.5 -168.999 92.5
c-46 0 -91 -9.83301 -135 -29.5s-87 -49.167 -129 -88.5v-499c0 -63.333 12.833 -105.166 38.5 -125.499s73.167 -30.5 142.5 -30.5v-37h-703v37c75.333 0 126.666 10.833 153.999 32.5s41 62.834 41 123.501v1127h-88c-140.667 0 -232.334 -84 -275.001 -252h-37v338z" />
    <glyph glyph-name="afii10052" unicode="&#x403;" horiz-adv-x="1323" 
d="M1000 1737l-446 -227h-148l148 227h446zM1303 1406l0.000976562 -371.998h-38c-14.667 73.333 -36 132.666 -64 177.999s-56.833 74.666 -86.5 87.999s-73.5 20 -131.5 20h-411v-1124c0 -57.333 12.333 -98.166 37 -122.499s71.667 -36.5 141 -36.5h54v-37h-768v37h50
c62.667 0 105 12.667 127 38s33 72.666 33 141.999v989c0 70.667 -13.833 115.5 -41.5 134.5s-73.834 28.5 -138.501 28.5h-30v37h1267z" />
    <glyph glyph-name="afii10053" unicode="&#x404;" horiz-adv-x="1429" 
d="M1009 768l-0.000976562 -87.001h-568c0 -204 39.333 -359.5 118 -466.5s188.667 -160.5 330 -160.5c152.667 0 296.667 74 432 222l47 -43c-149.333 -174 -332 -261 -548 -261c-208 0 -384.167 64.667 -528.5 194s-216.5 309.333 -216.5 540
c0 206.667 69.167 380.334 207.5 521.001s307.5 211 507.5 211c120.667 0 227 -20.333 319 -61c44.667 -20 78.334 -30 101.001 -30c56 0 90.333 30.333 103 91h37v-462h-37c-62.667 248.667 -208.334 373 -437.001 373c-135.333 0 -241.666 -53.833 -318.999 -161.5
s-116 -247.5 -116 -419.5h568z" />
    <glyph glyph-name="afii10054" unicode="&#x405;" horiz-adv-x="1237" 
d="M1076 1438l9.99707 -457.003h-39c-16 100.667 -68.667 188.667 -158 264s-195.333 113 -318 113c-83.333 0 -151.666 -20.167 -204.999 -60.5s-80 -90.166 -80 -149.499c0 -54 22.333 -99 67 -135s131.334 -75 260.001 -117c140.667 -46 246 -87.167 316 -123.5
s127.333 -87.833 172 -154.5s67 -141 67 -223c0 -125.333 -49.833 -227.166 -149.5 -305.499s-229.5 -117.5 -389.5 -117.5c-92.667 0 -199.334 22.333 -320.001 67c-41.333 15.333 -71.333 23 -90 23c-47.333 0 -83.333 -30 -108 -90h-42v515h40
c22.667 -135.333 81.334 -243 176.001 -323s206 -120 334 -120c96.667 0 174 20 232 60s87 94.333 87 163c0 67.333 -27 122.666 -81 165.999c-54.667 42.667 -149 87.334 -283 134.001s-232.667 87.167 -296 121.5s-113.666 80.833 -150.999 139.5s-56 125.334 -56 200.001
c0 115.333 45.167 212.5 135.5 291.5s204.833 118.5 343.5 118.5c96.667 0 199 -24.333 307 -73c52.667 -23.333 88.667 -35 108 -35c48.667 0 73 36 73 108h38z" />
    <glyph glyph-name="afii10055" unicode="&#x406;" horiz-adv-x="789" 
d="M755 37v-37h-721v37h46c56.667 0 96 14.167 118 42.5s33 76.166 33 143.499v958c0 66 -10.667 113.833 -32 143.5s-61 44.5 -119 44.5h-46v37h721v-37h-46c-56.667 0 -96.167 -14.167 -118.5 -42.5s-33.5 -76.833 -33.5 -145.5v-958
c0 -65.333 10.667 -112.666 32 -141.999s61.333 -44 120 -44h46z" />
    <glyph glyph-name="afii10056" unicode="&#x407;" horiz-adv-x="789" 
d="M141 1799c39.333 0 73.667 -14 103 -42s44 -63.333 44 -106c0 -40.667 -14.5 -75.5 -43.5 -104.5s-63.5 -43.5 -103.5 -43.5c-40.667 0 -75.5 14.5 -104.5 43.5s-43.5 63.833 -43.5 104.5c0 42 14.667 77.167 44 105.5s64 42.5 104 42.5zM648.001 1798
c39.333 0 73.667 -13.833 103 -41.5s44 -62.834 44 -105.501c0 -40.667 -14.5 -75.167 -43.5 -103.5s-63.5 -42.5 -103.5 -42.5s-74.5 14.333 -103.5 43s-43.5 63 -43.5 103c0 40.667 14.5 75.334 43.5 104.001s63.5 43 103.5 43zM754.002 37v-36.998h-720v37h46
c56.667 0 96 14.167 118 42.5s33 76.166 33 143.499v958c0 66 -10.667 113.833 -32 143.5s-61 44.5 -119 44.5h-46v37h720v-37h-45c-57.333 0 -97 -14.167 -119 -42.5s-33 -76.833 -33 -145.5v-958c0 -80.667 14.333 -131.834 43 -153.501s65 -32.5 109 -32.5h45z" />
    <glyph glyph-name="afii10057" unicode="&#x408;" horiz-adv-x="1131" 
d="M363 1369l-0.000976562 37.001h734v-37h-42c-44.667 0 -81 -10.5 -109 -31.5s-42 -73.167 -42 -156.5v-763c0 -94 -13.667 -171.5 -41 -232.5s-78.833 -111.833 -154.5 -152.5s-157.167 -61 -244.5 -61c-132 0 -234.667 29.5 -308 88.5s-110 124.5 -110 196.5
c0 51.333 15 90.5 45 117.5s65 40.5 105 40.5s73.833 -12.833 101.5 -38.5s41.5 -58.167 41.5 -97.5c0 -36 -14.333 -73 -43 -111c-14.667 -18.667 -22 -33.334 -22 -44.001c0 -20.667 13.5 -38.334 40.5 -53.001s59.833 -22 98.5 -22c46.667 0 85.834 13.833 117.501 41.5
s47.5 86.834 47.5 177.501v913c0 80.667 -14 132.167 -42 154.5s-64.333 33.5 -109 33.5h-64z" />
    <glyph glyph-name="afii10058" unicode="&#x409;" horiz-adv-x="2005" 
d="M641 1320l-0.000976562 -597.002c0 -260 -42.5 -448.167 -127.5 -564.5s-189.5 -174.5 -313.5 -174.5c-61.333 0 -110.333 17.333 -147 52s-55 78.334 -55 131.001c0 42 12.167 76.833 36.5 104.5s56.5 41.5 96.5 41.5c70.667 0 109.667 -41.333 117 -124
c5.33301 -57.333 22 -86 50 -86c62 0 119.833 50 173.5 150s80.5 243.333 80.5 430v498c0 82 -10.833 133.833 -32.5 155.5s-63.5 32.5 -125.5 32.5h-33v37h1048v-37c-55.333 -2.66699 -92.5 -15.5 -111.5 -38.5s-28.5 -64.167 -28.5 -123.5v-439
c168.667 0 293.334 -9.5 374.001 -28.5s152.5 -63.333 215.5 -133s94.5 -147.167 94.5 -232.5c0 -108 -45.167 -197.333 -135.5 -268s-204.5 -106 -342.5 -106h-696v37c62 0 104.5 13.333 127.5 40s34.5 71.334 34.5 134.001v1109h-300zM1269 680.998v-445.001
c0 -64 6.5 -107.833 19.5 -131.5s39.5 -35.5 79.5 -35.5c62.667 0 115.334 28.333 158.001 85s64 126.334 64 209.001c0 92.667 -25.167 169 -75.5 229s-122.5 90 -216.5 90c-8.66699 0 -18.334 -0.333008 -29.001 -1z" />
    <glyph glyph-name="afii10059" unicode="&#x40a;" horiz-adv-x="2048" 
d="M546 768l403.001 -0.000976562v451c0 57.333 -10.833 95.833 -32.5 115.5s-63.834 31.167 -126.501 34.5v37h630v-37c-54 0 -91.333 -12.667 -112 -38s-31 -67 -31 -125v-438c188 0 323.5 -9.16699 406.5 -27.5s155.833 -61.833 218.5 -130.5s94 -149.667 94 -243
c0 -105.333 -42.167 -192.833 -126.5 -262.5s-218.833 -104.5 -403.5 -104.5h-676v37c55.333 1.33301 95.666 11 120.999 29s38 59 38 123v492h-403v-492c0 -62.667 12.333 -103.167 37 -121.5s65.334 -28.5 122.001 -30.5v-37h-671v37
c71.333 1.33301 119.833 12.5 145.5 33.5s38.5 60.5 38.5 118.5v1030c0 58 -12.667 97.5 -38 118.5s-74 31.5 -146 31.5v37h671v-37c-62 -2 -104 -13.167 -126 -33.5s-33 -59.166 -33 -116.499v-451zM1277 680.999v-452.999c0 -58.667 7.5 -99.834 22.5 -123.501
s45.833 -35.5 92.5 -35.5c66.667 0 122.834 28.167 168.501 84.5s68.5 126.5 68.5 210.5c0 72.667 -16.333 134.667 -49 186s-71.334 86 -116.001 104s-107 27 -187 27z" />
    <glyph glyph-name="afii10060" unicode="&#x40b;" horiz-adv-x="1685" 
d="M763 791c66 60.667 130.333 105.999 193 135.999s123.667 45 183 45c81.333 0 151.333 -19.833 210 -59.5s97.167 -85 115.5 -136s27.5 -115.5 27.5 -193.5v-391c0 -52.667 11.167 -91.167 33.5 -115.5s63.833 -37.5 124.5 -39.5v-37h-628v37
c94.667 4.66699 142 53.667 142 147v387c0 88 -15.333 146.667 -46 176s-68 44 -112 44c-40 0 -80.167 -8 -120.5 -24s-81.166 -40.333 -122.499 -73v-502c0 -65.333 13.333 -107.5 40 -126.5s73.667 -28.5 141 -28.5v-37h-703v37c84 0 137.5 12 160.5 36
s34.5 63.667 34.5 119v1128h-88c-140.667 0 -232.334 -84 -275.001 -252h-37v338h1128v-338h-38c-30 100.667 -68.833 167.834 -116.5 201.501s-116.5 50.5 -206.5 50.5h-40v-529z" />
    <glyph glyph-name="afii10061" unicode="&#x40c;" horiz-adv-x="1548" 
d="M1107 1737l-446 -227h-148l148 227h446zM37 1406l702.996 0.00195312v-37c-53.333 -0.666992 -90.333 -4.33398 -111 -11.001s-38 -21.167 -52 -43.5s-21 -56.833 -21 -103.5v-446h95c70 0 115.167 2.83301 135.5 8.5s41.666 20.5 63.999 44.5s38.833 48.667 49.5 74
s32 97 64 215c30.667 114 70 195 118 243s114.667 72 200 72c70.667 0 123.834 -17.667 159.501 -53s53.5 -78.333 53.5 -129c0 -42.667 -13 -78.167 -39 -106.5s-57.667 -42.5 -95 -42.5c-70.667 0 -110.334 44.667 -119.001 134
c-3.33301 31.333 -7.16602 51.333 -11.499 60s-12.833 13 -25.5 13c-69.333 0 -125.666 -86.333 -168.999 -259c-28 -110.667 -52.167 -182.667 -72.5 -216s-48.5 -67.333 -84.5 -102c76.667 -13.333 142.334 -63.333 197.001 -150l243 -391
c58 -93.333 123.667 -141 197 -143v-37h-440l-369 585c-27.333 43.333 -50.333 69.666 -69 78.999s-46 14 -82 14v-483c0 -44 6.5 -77.5 19.5 -100.5s30 -38.167 51 -45.5s58.833 -11.333 113.5 -12v-37h-703v37c62.667 1.33301 105.167 6 127.5 14s38.833 22.5 49.5 43.5
s16 58.167 16 111.5v994c0 53.333 -5.16699 90.5 -15.5 111.5s-26.166 35.5 -47.499 43.5s-64.666 12.667 -129.999 14v37z" />
    <glyph glyph-name="afii10062" unicode="&#x40e;" horiz-adv-x="1557" 
d="M839 1512c-140.667 0 -240.666 19.002 -299.999 57.002s-89 82.333 -89 133c0 27.333 9.66699 49.833 29 67.5s43 26.5 71 26.5c54 0 95.667 -34.667 125 -104c28 -68.667 81 -103 159 -103c49.333 0 85.666 7.66699 108.999 23s45 43.666 65 84.999
c31.333 66 73.333 99 126 99c28 0 51.667 -9 71 -27s29 -42.667 29 -74c0 -52.667 -31.667 -96.334 -95 -131.001s-163.333 -52 -300 -52zM25.001 1406h663.002v-37h-39c-78.667 0 -118 -19.333 -118 -58c0 -19.333 10 -45.333 30 -78l389 -644l292 576
c23.333 46 35 82.667 35 110c0 62.667 -55.333 94 -166 94h-34v37h454v-37c-49.333 -10.667 -85.5 -27.167 -108.5 -49.5s-52.5 -68.833 -88.5 -139.5l-459 -915c-36.667 -73.333 -79.667 -140.333 -129 -201c-49.333 -61.333 -117.333 -92 -204 -92
c-68 0 -123 15.667 -165 47s-63 77 -63 137c0 42.667 11.667 77.667 35 105s55.666 41 96.999 41c38.667 0 66 -9.33301 82 -28s27 -50 33 -94c8.66699 -62 33 -93 73 -93c24 0 48.5 14.833 73.5 44.5s50.833 74.167 77.5 133.5l-599 986
c-30.667 51.333 -54.834 83.833 -72.501 97.5s-47.167 20.5 -88.5 20.5v37z" />
    <glyph glyph-name="afii10145" unicode="&#x40f;" horiz-adv-x="1706" 
d="M872 -394l-37.9971 -0.00292969c-4 262.667 -113.333 394 -328 394h-468v37c61.333 0 103.166 3.83301 125.499 11.5s39.166 21.834 50.499 42.501s17 55.334 17 104.001v1016c0 47.333 -5.33301 81.333 -16 102s-27.167 35.167 -49.5 43.5s-64.833 12.5 -127.5 12.5v37
h704v-37c-69.333 -1.33301 -117.5 -13 -144.5 -35s-40.5 -65 -40.5 -129v-1118h592v1118c0 65.333 -13.833 108.833 -41.5 130.5s-75.5 32.834 -143.5 33.501v37h704v-37h-35c-60.667 0 -102.167 -11.333 -124.5 -34s-33.5 -64 -33.5 -124v-1016
c0 -47.333 5.33301 -81.333 16 -102s27.334 -35.167 50.001 -43.5s65 -12.5 127 -12.5v-37h-468c-122.667 0 -207.834 -37 -255.501 -111s-71.834 -168.333 -72.501 -283z" />
    <glyph glyph-name="afii10017" unicode="&#x410;" horiz-adv-x="1473" 
d="M840 398h-448.999l-68 -163c-16 -38.667 -24 -69 -24 -91c0 -38 13.5 -65 40.5 -81s73.833 -24.667 140.5 -26v-37h-451v37c89.333 2 170.666 92.333 243.999 271l462 1122h20l486 -1184c56.667 -139.333 123.667 -209 201 -209v-37h-657v37h25
c92.667 0 139 23.667 139 71c0 12.667 -5.66699 33.667 -17 63zM810.001 472l-193 473l-195 -473h388z" />
    <glyph glyph-name="afii10018" unicode="&#x411;" horiz-adv-x="1368" 
d="M38 1406l1177 -0.000976562v-371h-38c-12.667 66.667 -33.5 122.5 -62.5 167.5s-61.833 75.833 -98.5 92.5s-86 25 -148 25h-307v-552h231c179.333 0 310.833 -39.833 394.5 -119.5s125.5 -170.167 125.5 -271.5c0 -80 -26.333 -152.167 -79 -216.5
s-112 -107.166 -178 -128.499s-149.667 -32 -251 -32h-766v37h22c71.333 0 118.166 14.167 140.499 42.5s33.5 81.166 33.5 158.499v978c0 60.667 -13.333 101.334 -40 122.001s-71.334 31 -134.001 31h-22v37zM561.002 680.999l-0.000976562 -450.999
c0 -70.667 13.667 -115.167 41 -133.5s58 -27.5 92 -27.5c78.667 0 141.5 28.667 188.5 86s70.5 128.666 70.5 213.999c0 74 -16.833 136.333 -50.5 187s-73.667 84.167 -120 100.5s-120.166 24.5 -221.499 24.5z" />
    <glyph glyph-name="afii10019" unicode="&#x412;" horiz-adv-x="1366" 
d="M919 740c110 -16 202.666 -55.498 277.999 -118.498s113 -143.833 113 -242.5c0 -78.667 -25 -147.834 -75 -207.501s-115.167 -103.167 -195.5 -130.5s-166.166 -41 -257.499 -41h-757v37h42c57.333 0 96.833 14.167 118.5 42.5s32.5 76.166 32.5 143.499v958
c0 81.333 -14.167 133 -42.5 155s-64.5 33 -108.5 33h-29v37h686c177.333 0 309.333 -31.5 396 -94.5s130 -145.833 130 -248.5c0 -85.333 -27.5 -155 -82.5 -209s-137.833 -92 -248.5 -114zM543.999 1332v-565.002h29c110.667 0 193.667 23.667 249 71s83 118.333 83 213
c0 64.667 -15 120.334 -45 167.001s-65.5 77.334 -106.5 92.001s-96.833 22 -167.5 22h-42zM543.999 693l-0.000976562 -475.001c0 -56.667 8.83301 -95 26.5 -115s48.834 -30 93.501 -30c88.667 0 158.167 27.833 208.5 83.5s75.5 126.5 75.5 212.5
c0 84.667 -28 159.834 -84 225.501s-153 98.5 -291 98.5h-29z" />
    <glyph glyph-name="afii10020" unicode="&#x413;" horiz-adv-x="1323" 
d="M1303 1406l0.000976562 -371.998h-38c-14.667 73.333 -36 132.666 -64 177.999s-56.833 74.666 -86.5 87.999s-73.5 20 -131.5 20h-411v-1124c0 -57.333 12.333 -98.166 37 -122.499s71.667 -36.5 141 -36.5h54v-37h-768v37h50c62.667 0 105 12.667 127 38
s33 72.666 33 141.999v989c0 70.667 -13.833 115.5 -41.5 134.5s-73.834 28.5 -138.501 28.5h-30v37h1267z" />
    <glyph glyph-name="afii10021" unicode="&#x414;" horiz-adv-x="1473" 
d="M272 1406h1164v-37c-80.667 0 -133.834 -11.167 -159.501 -33.5s-38.5 -71.833 -38.5 -148.5v-979c0 -65.333 13.5 -109 40.5 -131s79.5 -33.667 157.5 -35v-436h-37c-5.33301 104.667 -46.666 196.5 -123.999 275.5s-186.666 118.5 -327.999 118.5h-450
c-138.667 -0 -247 -38.167 -325 -114.5s-122 -169.5 -132 -279.5h-37v436c144.667 23.333 258 122.833 340 298.5s123 470.5 123 884.5c0 50 -11.667 86.5 -35 109.5s-65 34.5 -125 34.5h-34v37zM954.999 1320h-400.001v-123c0 -186.667 -16.167 -390.167 -48.5 -610.5
s-108.166 -386.833 -227.499 -499.5h572c45.333 0 74 5.83301 86 17.5s18 39.167 18 82.5v1133z" />
    <glyph glyph-name="afii10022" unicode="&#x415;" horiz-adv-x="1366" 
d="M569 1333l0.000976562 -579.001h26c66.667 0 116.5 9.33301 149.5 28s60.5 51.667 82.5 99s38.333 113 49 197h38v-715h-38c-10 86.667 -27.5 153.334 -52.5 200.001s-54.333 77.834 -88 93.501s-80.5 23.5 -140.5 23.5h-26v-442c0 -64.667 8.5 -108 25.5 -130
s54.167 -33 111.5 -33h134c225.333 0 374.666 119.667 447.999 359h35l-64 -434h-1222v37h54c44.667 0 81 10.333 109 31s42 72.334 42 155.001v958c0 81.333 -14.167 133 -42.5 155s-64.5 33 -108.5 33h-54v37h1186v-398h-36c-14 81.333 -40 148.166 -78 200.499
s-82 86.166 -132 101.499s-122.333 23 -217 23h-191z" />
    <glyph glyph-name="afii10024" unicode="&#x416;" horiz-adv-x="2007" 
d="M673 0l-0.000976562 37.0059h22c61.333 0 102.166 13.167 122.499 39.5s30.5 72.166 30.5 137.499v471c-31.333 0 -55.5 -6.66699 -72.5 -20s-32.833 -34.666 -47.5 -63.999l-304 -601h-394v37c50 0.666992 94 35.667 132 105l204 367
c50.667 91.333 94 149.666 130 174.999s80 41.666 132 48.999c-41.333 24.667 -71.666 57.834 -90.999 99.501s-55 152.167 -107 331.5c-25.333 87.333 -55 131 -89 131c-20.667 0 -32.667 -21.667 -36 -65c-7.33301 -92.667 -46.333 -139 -117 -139
c-40 0 -72.167 13 -96.5 39s-36.5 61.333 -36.5 106c0 58 19 103.5 57 136.5s89.333 49.5 154 49.5c56 0 100.667 -11 134 -33s57.833 -51.333 73.5 -88s38.167 -111.334 67.5 -224.001c35.333 -132.667 72.333 -218.167 111 -256.5s88.334 -57.5 149.001 -57.5h47v430
c0 63.333 -9.83301 108.5 -29.5 135.5s-60.834 40.5 -123.501 40.5h-22v37h661v-37h-23c-61.333 0 -102 -13.333 -122 -40s-30 -72 -30 -136v-430h46c57.333 0 105.833 17.667 145.5 53s78.167 122.333 115.5 261c30 112.667 52.333 187 67 223s39 65.333 73 88
s79 34 135 34c62 0 112.667 -15.833 152 -47.5s59 -77.834 59 -138.501c0 -42.667 -11.667 -77.5 -35 -104.5s-56 -40.5 -98 -40.5c-70.667 0 -109.667 46.333 -117 139c-3.33301 43.333 -15 65 -35 65c-16 0 -30.667 -6.66699 -44 -20s-28.666 -50.333 -45.999 -111
c-52 -180.667 -87.833 -291.5 -107.5 -332.5s-49.834 -73.833 -90.501 -98.5c103.333 -11.333 187.333 -79.333 252 -204c2.66699 -6.66699 6 -13.334 10 -20.001l205 -367c39.333 -69.333 83 -104.333 131 -105v-37h-394l-304 601
c-15.333 29.333 -31.666 50.666 -48.999 63.999s-41 20 -71 20v-471c0 -64.667 10 -110.334 30 -137.001s60.667 -40 122 -40h23v-37h-661z" />
    <glyph glyph-name="afii10025" unicode="&#x417;" horiz-adv-x="1118" 
d="M115 1438l37.001 -0.000976562c6.66699 -46.667 23.667 -70 51 -70c17.333 0 40.333 6.66699 69 20c72 33.333 160.333 50 265 50c146 0 259.167 -36.167 339.5 -108.5s120.5 -155.166 120.5 -248.499c0 -84 -29 -154.333 -87 -211s-145.333 -99.667 -262 -129
c124.667 -16 222.167 -59.167 292.5 -129.5s105.5 -153.833 105.5 -250.5c0 -120 -50.667 -214.833 -152 -284.5s-229.333 -104.5 -384 -104.5c-200.667 0 -354 66.333 -460 199l44 44c82.667 -104.667 184.667 -157 306 -157c104 0 177.167 31.333 219.5 94
s63.5 136 63.5 220c0 102.667 -25.667 179.5 -77 230.5s-128.333 76.5 -231 76.5h-62v89h62c92 0 161 25 207 75s69 124.667 69 224c0 96.667 -18 169.167 -54 217.5s-90 72.5 -162 72.5c-90.667 0 -158.834 -34 -204.501 -102s-68.5 -146 -68.5 -234h-47v417z" />
    <glyph glyph-name="afii10026" unicode="&#x418;" horiz-adv-x="1706" 
d="M37 1406h703.003v-37c-68.667 0 -116.334 -10.5 -143.001 -31.5s-40 -69.167 -40 -144.5v-832l593 845c0 60 -11.333 102.167 -34 126.5s-72 36.5 -148 36.5v37h701v-37h-22c-64 0 -108.667 -10.833 -134 -32.5s-38 -61.167 -38 -118.5v-1020
c0 -47.333 6.16699 -81.333 18.5 -102s28.666 -35.167 48.999 -43.5s62.5 -13.5 126.5 -15.5v-37h-701v37c70.667 0 118.667 12 144 36s38 71 38 141v836l-593 -844c0 -66 12.667 -110.667 38 -134s73.666 -35 144.999 -35v-37h-703v37h22c66 0 111.167 11 135.5 33
s36.5 61.333 36.5 118v1030c0 54.667 -11.5 93.5 -34.5 116.5s-68.833 34.5 -137.5 34.5h-22v37z" />
    <glyph glyph-name="afii10027" unicode="&#x419;" horiz-adv-x="1706" 
d="M868 1512c-140.667 0 -240.666 19.002 -299.999 57.002s-89 82.333 -89 133c0 27.333 9.66699 49.833 29 67.5s43 26.5 71 26.5c54 0 95.667 -34.667 125 -104c28 -68.667 81 -103 159 -103c49.333 0 85.666 7.66699 108.999 23s45 43.666 65 84.999
c31.333 66 73.333 99 126 99c28 0 51.667 -9 71 -27s29 -42.667 29 -74c0 -52.667 -31.667 -96.334 -95 -131.001s-163.333 -52 -300 -52zM37.001 1406h703.003v-37c-68.667 0 -116.334 -10.5 -143.001 -31.5s-40 -69.167 -40 -144.5v-867l593 916
c-4.66699 48 -20.167 81.167 -46.5 99.5s-71.5 27.5 -135.5 27.5v37h701v-37h-22c-64 0 -108.667 -10.833 -134 -32.5s-38 -61.167 -38 -118.5v-1020c0 -47.333 6.16699 -81.333 18.5 -102s28.666 -35.167 48.999 -43.5s62.5 -13.5 126.5 -15.5v-37h-701v37
c70.667 0 118.667 12 144 36s38 71 38 141v866l-593 -915c5.33301 -48.667 21.166 -82.167 47.499 -100.5s71.5 -27.5 135.5 -27.5v-37h-703v37h22c66 0 111.167 11 135.5 33s36.5 61.333 36.5 118v1030c0 54.667 -11.5 93.5 -34.5 116.5s-68.833 34.5 -137.5 34.5h-22v37z
" />
    <glyph glyph-name="afii10028" unicode="&#x41a;" horiz-adv-x="1548" 
d="M37 1406l702.996 0.00195312v-37c-53.333 -0.666992 -90.333 -4.33398 -111 -11.001s-38 -21.167 -52 -43.5s-21 -56.833 -21 -103.5v-446h95c70 0 115.167 2.83301 135.5 8.5s41.666 20.5 63.999 44.5s38.833 48.667 49.5 74s32 97 64 215c30.667 114 70 195 118 243
s114.667 72 200 72c70.667 0 123.834 -17.667 159.501 -53s53.5 -78.333 53.5 -129c0 -42.667 -13 -78.167 -39 -106.5s-57.667 -42.5 -95 -42.5c-70.667 0 -110.334 44.667 -119.001 134c-3.33301 31.333 -7.16602 51.333 -11.499 60s-12.833 13 -25.5 13
c-69.333 0 -125.666 -86.333 -168.999 -259c-28 -110.667 -52.167 -182.667 -72.5 -216s-48.5 -67.333 -84.5 -102c76.667 -13.333 142.334 -63.333 197.001 -150l243 -391c58 -93.333 123.667 -141 197 -143v-37h-440l-369 585c-27.333 43.333 -50.333 69.666 -69 78.999
s-46 14 -82 14v-483c0 -44 6.5 -77.5 19.5 -100.5s30 -38.167 51 -45.5s58.833 -11.333 113.5 -12v-37h-703v37c62.667 1.33301 105.167 6 127.5 14s38.833 22.5 49.5 43.5s16 58.167 16 111.5v994c0 53.333 -5.16699 90.5 -15.5 111.5s-26.166 35.5 -47.499 43.5
s-64.666 12.667 -129.999 14v37z" />
    <glyph glyph-name="afii10029" unicode="&#x41b;" horiz-adv-x="1475" 
d="M578 1320v-406.999c0 -349.333 -25.333 -591.5 -76 -726.5s-144.334 -202.5 -281.001 -202.5c-78 0 -134.667 18.167 -170 54.5s-53 79.166 -53 128.499c0 42.667 12.5 77.667 37.5 105s56.833 41 95.5 41c68 0 106.667 -40.333 116 -121
c4.66699 -37.333 10.334 -61.666 17.001 -72.999s19 -17 37 -17c58 0 103.833 58.167 137.5 174.5s50.5 316.166 50.5 599.499v305c0 82.667 -11 134.667 -33 156s-63.667 32 -125 32h-33v37h1142v-37h-29c-65.333 0 -109.333 -12.333 -132 -37s-34 -71 -34 -139v-980
c0 -68 10.833 -114.333 32.5 -139s66.167 -37 133.5 -37h29v-37h-702v37h25c60 0 101.5 12.5 124.5 37.5s34.5 65.833 34.5 122.5v1123h-344z" />
    <glyph glyph-name="afii10030" unicode="&#x41c;" horiz-adv-x="2027" 
d="M1018 440l435.001 965.998h545v-37h-35c-56.667 0 -95.834 -14.167 -117.501 -42.5s-32.5 -76.833 -32.5 -145.5v-958c0 -65.333 10.5 -112.666 31.5 -141.999s60.5 -44 118.5 -44h35v-37h-713v37h50c56.667 0 96 14 118 42s33 76 33 144v1077l-586 -1300h-29l-583 1290
v-1033c0 -63.333 4.66699 -107.333 14 -132s29 -45.5 59 -62.5s63.333 -25.5 100 -25.5h25v-37h-457v37c42 0 78.5 9.16699 109.5 27.5s51.5 40.333 61.5 66s15 67.834 15 126.501v924c0 66 -10.667 113.833 -32 143.5s-61 44.5 -119 44.5h-35v37h552z" />
    <glyph glyph-name="afii10031" unicode="&#x41d;" horiz-adv-x="1685" 
d="M1141 679l-597 -0.00195312v-456c0 -65.333 10.5 -112.666 31.5 -141.999s60.833 -44 119.5 -44h37v-37h-698v37h32c56 0 95.167 14 117.5 42s33.5 76 33.5 144v958c0 66.667 -10.833 114.667 -32.5 144s-61.167 44 -118.5 44h-32v37h698v-37h-37
c-56.667 0 -96 -14.167 -118 -42.5s-33 -76.833 -33 -145.5v-416h597v416c0 66.667 -10.833 114.667 -32.5 144s-61.167 44 -118.5 44h-32v37h693v-37h-33c-56 0 -95.167 -14.167 -117.5 -42.5s-33.5 -76.833 -33.5 -145.5v-958c0 -65.333 10.667 -112.666 32 -141.999
s61 -44 119 -44h33v-37h-693v37h32c56 0 95.167 14 117.5 42s33.5 76 33.5 144v456z" />
    <glyph glyph-name="afii10032" unicode="&#x41e;" horiz-adv-x="1685" 
d="M1600 698c0 -205.333 -69 -377.666 -207 -516.999s-321.333 -209 -550 -209c-139.333 0 -264 27.167 -374 81.5s-201.5 137.666 -274.5 249.999s-109.5 246.5 -109.5 402.5c0 158 37.833 293.333 113.5 406s170.5 195.167 284.5 247.5s233 78.5 357 78.5
c220.667 0 402.5 -68.667 545.5 -206s214.5 -315.333 214.5 -534zM1235 688c0 217.333 -36.334 384.167 -109.001 500.5s-167 174.5 -283 174.5c-117.333 0 -212.333 -57 -285 -171s-109 -276 -109 -486c0 -194.667 34.333 -354 103 -478s164.334 -186 287.001 -186
c120 0 216 58 288 174s108 273.333 108 472z" />
    <glyph glyph-name="afii10033" unicode="&#x41f;" horiz-adv-x="1706" 
d="M1149 1320l-592.003 0.00292969v-1119c0 -64.667 13.833 -107.834 41.5 -129.501s75.5 -33.167 143.5 -34.5v-37h-704v37h35c60.667 0 102.167 11.333 124.5 34s33.5 64 33.5 124v1016c0 47.333 -5.33301 81.333 -16 102s-27.167 35.167 -49.5 43.5
s-64.833 12.5 -127.5 12.5v37h1630v-37c-61.333 0 -103.166 -3.83301 -125.499 -11.5s-39.166 -21.834 -50.499 -42.501s-17 -55.334 -17 -104.001v-1016c0 -47.333 5.33301 -81.333 16 -102s27.334 -35.167 50.001 -43.5s65 -12.5 127 -12.5v-37h-704v37
c69.333 2 117.5 13.833 144.5 35.5s40.5 64.5 40.5 128.5v1119z" />
    <glyph glyph-name="afii10034" unicode="&#x420;" horiz-adv-x="1366" 
d="M564 642v-419c0 -65.333 10.5 -112.666 31.5 -141.999s60.167 -44 117.5 -44h39v-37h-715v37h50c56.667 0 96 14.167 118 42.5s33 76.166 33 143.499v958c0 66.667 -10.667 114.667 -32 144s-61 44 -119 44h-50v37h715c198 0 341.667 -37.833 431 -113.5
s134 -164.167 134 -265.5c0 -100 -43.333 -189.167 -130 -267.5s-244.667 -117.5 -474 -117.5h-149zM564 1334v-617h106c98.667 0 172.5 25 221.5 75s73.5 125 73.5 225c0 98.667 -20 176.167 -60 232.5s-118.333 84.5 -235 84.5h-106z" />
    <glyph glyph-name="afii10035" unicode="&#x421;" horiz-adv-x="1473" 
d="M1391 1436l0.000976562 -471.003h-40c-23.333 130 -78.333 226.333 -165 289s-177.334 94 -272.001 94c-82.667 0 -157.334 -23.667 -224.001 -71s-121.5 -117.166 -164.5 -209.499s-64.5 -214.166 -64.5 -365.499c0 -222 42.5 -384.833 127.5 -488.5
s190.833 -155.5 317.5 -155.5c94 0 182.667 25.833 266 77.5s147.333 114.167 192 187.5v-121c-140 -153.333 -314.667 -230 -524 -230c-231.333 0 -413.333 70.333 -546 211s-199 306.334 -199 497.001c0 210 73.5 388.833 220.5 536.5s317.5 221.5 511.5 221.5
c96.667 0 202.334 -23.333 317.001 -70c47.333 -20 83.333 -30 108 -30c53.333 0 86.333 32.667 99 98h40z" />
    <glyph glyph-name="afii10036" unicode="&#x422;" horiz-adv-x="1366" 
d="M1316 1406l-0.000976562 -371.002h-38c-26.667 195.333 -126.667 293 -300 293h-132v-1105c0 -65.333 10.667 -112.666 32 -141.999s61 -44 119 -44h51v-37h-733v37h54c44.667 0 80.834 10.333 108.501 31s41.5 72.334 41.5 155.001v1105h-143
c-55.333 0 -101 -9.16699 -137 -27.5s-68.333 -52.5 -97 -102.5s-46 -104.333 -52 -163h-41v371h1267z" />
    <glyph glyph-name="afii10037" unicode="&#x423;" horiz-adv-x="1557" 
d="M25 1406h663.002v-37h-39c-78.667 0 -118 -19.333 -118 -58c0 -19.333 10 -45.333 30 -78l389 -644l292 576c23.333 46 35 82.667 35 110c0 62.667 -55.333 94 -166 94h-34v37h454v-37c-49.333 -10.667 -85.5 -27.167 -108.5 -49.5s-52.5 -68.833 -88.5 -139.5l-459 -915
c-36.667 -73.333 -79.667 -140.333 -129 -201c-49.333 -61.333 -117.333 -92 -204 -92c-68 0 -123 15.667 -165 47s-63 77 -63 137c0 42.667 11.667 77.667 35 105s55.666 41 96.999 41c38.667 0 66 -9.33301 82 -28s27 -50 33 -94c8.66699 -62 33 -93 73 -93
c24 0 48.5 14.833 73.5 44.5s50.833 74.167 77.5 133.5l-599 986c-30.667 51.333 -54.834 83.833 -72.501 97.5s-47.167 20.5 -88.5 20.5v37z" />
    <glyph glyph-name="afii10038" unicode="&#x424;" horiz-adv-x="1798" 
d="M1257 1406v-37h-40c-60.667 0 -101.667 -12.667 -123 -38s-32 -66.333 -32 -123c131.333 -0.666992 241.333 -15.5 330 -44.5s165.5 -83.5 230.5 -163.5s97.5 -177 97.5 -291c0 -104.667 -27.167 -192.5 -81.5 -263.5s-126 -127.5 -215 -169.5s-209.5 -63.333 -361.5 -64
c0 -63.333 10 -108.333 30 -135s61.667 -40 125 -40h40v-37h-716v37h41c64.667 0 106.667 13.5 126 40.5s29 71.833 29 134.5c-144.667 0.666992 -260.834 20 -348.501 58s-161.167 93.167 -220.5 165.5s-89 163.5 -89 273.5c0 86 17.667 161.333 53 226
s87.833 120 157.5 166s136.834 75.167 201.501 87.5s146.667 18.833 246 19.5c0 57.333 -10.833 98.5 -32.5 123.5s-62.5 37.5 -122.5 37.5h-41v37h716zM737 1135c-72.667 0 -130.169 -9.16797 -172.502 -27.501s-79.5 -59.333 -111.5 -123s-48 -153.167 -48 -268.5
c0 -113.333 14.333 -202.166 43 -266.499s65.834 -107.833 111.501 -130.5s104.834 -34 177.501 -34v850zM1062 1135l0.000976562 -850.001c76 0 137.167 12.5 183.5 37.5s82.666 69.5 108.999 133.5s39.5 153 39.5 267c0 110 -16 196.833 -48 260.5
s-68.667 104.834 -110 123.501s-99.333 28 -174 28z" />
    <glyph glyph-name="afii10039" unicode="&#x425;" horiz-adv-x="1473" 
d="M858 822l384.998 -609c72.667 -114.667 137.667 -173.334 195 -176.001v-37h-654v37c86.667 0 130 22 130 66c0 20.667 -18.667 60.667 -56 120l-205 329l-220 -294c-40.667 -54 -61 -98.333 -61 -133c0 -53.333 59.667 -82.666 179 -87.999v-37h-517v37
c62.667 0 119.334 23.667 170.001 71s99 102 145 164l259 348l-371 584c-40 62.667 -73 104.834 -99 126.501s-60.667 34.5 -104 38.5v37h676v-37c-54 -0.666992 -90.333 -5.66699 -109 -15s-28 -27 -28 -53c0 -20.667 11.667 -50 35 -88l206 -325l165 223
c48 65.333 72 116 72 152c0 70.667 -50 106 -150 106v37h493v-37c-59.333 -2 -108.166 -19.333 -146.499 -52s-78.5 -77.334 -120.5 -134.001z" />
    <glyph glyph-name="afii10040" unicode="&#x426;" horiz-adv-x="1706" 
d="M60 1406l666.999 -0.000976562v-37c-67.333 0 -112.666 -10.667 -135.999 -32s-35 -63.333 -35 -126v-1023c0 -44 6 -71.833 18 -83.5s41.333 -17.5 88 -17.5h381c47.333 0 77 5.83301 89 17.5s18 39.5 18 83.5v1023c0 68 -12.333 111.333 -37 130
s-69.334 28 -134.001 28v37h667v-37c-64 0 -108.5 -9.33301 -133.5 -28s-37.5 -62 -37.5 -130v-1016c0 -63.333 11.833 -105.5 35.5 -126.5s68.834 -31.5 135.501 -31.5v-431h-38c-4.66699 70 -26 135.333 -64 196s-88.833 108.834 -152.5 144.501s-165.5 53.5 -305.5 53.5
h-1026v37c67.333 0 112.5 10.833 135.5 32.5s34.5 63.5 34.5 125.5v1016c0 63.333 -11.667 105.5 -35 126.5s-68.333 31.5 -135 31.5v37z" />
    <glyph glyph-name="afii10041" unicode="&#x427;" horiz-adv-x="1579" 
d="M24 1406h707.002v-37c-69.333 0 -117.5 -10.167 -144.5 -30.5s-40.5 -72.5 -40.5 -156.5v-368c0 -50.667 14.5 -88.834 43.5 -114.501s72.5 -38.5 130.5 -38.5c100 0 202 26 306 78v443c0 84.667 -13.667 137 -41 157s-75.333 30 -144 30v37h707v-37
c-60.667 -0.666992 -101.834 -4.5 -123.501 -11.5s-39.334 -21.5 -53.001 -43.5s-20.5 -54 -20.5 -96v-1030c0 -41.333 6.83301 -73.166 20.5 -95.499s31.334 -37 53.001 -44s62.834 -10.833 123.501 -11.5v-37h-707v37c75.333 0 125 12.667 149 38s36 75 36 149v432
c-46.667 -25.333 -119.167 -53.333 -217.5 -84s-184.5 -46 -258.5 -46c-90.667 0 -160.667 15.5 -210 46.5s-81.5 65.333 -96.5 103s-22.5 103.834 -22.5 198.501v344c0 41.333 -6.83301 73.166 -20.5 95.499s-31.334 37 -53.001 44s-62.834 10.833 -123.501 11.5v37z" />
    <glyph glyph-name="afii10042" unicode="&#x428;" horiz-adv-x="2245" 
d="M36 1406l593.001 0.00195312v-37c-46 -2 -78.833 -15.5 -98.5 -40.5s-29.5 -69.5 -29.5 -133.5v-1008c0 -44.667 6 -72.5 18 -83.5s41.667 -16.5 89 -16.5h258c39.333 0 64.833 6 76.5 18s17.5 39.333 17.5 82v1008c0 63.333 -9.83301 107.666 -29.5 132.999
s-52.834 39 -99.501 41v37h583v-37c-46 -2 -79 -15.5 -99 -40.5s-30 -69.5 -30 -133.5v-1008c0 -44.667 5.5 -72.5 16.5 -83.5s39.833 -16.5 86.5 -16.5h253c44.667 0 73 5.66699 85 17s18 39 18 83v1008c0 63.333 -9.83301 107.666 -29.5 132.999s-52.5 39 -98.5 41v37h593
v-37c-40 -1.33301 -73.167 -12.333 -99.5 -33s-39.5 -63.667 -39.5 -129v-1008c0 -54 10.5 -94.167 31.5 -120.5s56.833 -40.166 107.5 -41.499v-37h-2173v37c39.333 1.33301 72.333 12.333 99 33s40 63.667 40 129v1008c0 54 -10.667 94.167 -32 120.5
s-57 40.166 -107 41.499v37z" />
    <glyph glyph-name="afii10043" unicode="&#x429;" horiz-adv-x="2245" 
d="M36 0l0.00195312 37.002c39.333 1.33301 72.333 12.5 99 33.5s40 64.167 40 129.5v1007c0 54 -10.667 94.167 -32 120.5s-57 40.166 -107 41.499v37h593v-37c-46 -2 -78.833 -15.5 -98.5 -40.5s-29.5 -69.5 -29.5 -133.5v-1008l-1 -30c0 -28.667 7.66699 -47.5 23 -56.5
s43.666 -13.5 84.999 -13.5h258c39.333 0 64.833 6 76.5 18s17.5 39.333 17.5 82v1008c0 63.333 -9.83301 107.666 -29.5 132.999s-52.834 39 -99.501 41v37h583v-37c-46 -2 -79 -15.5 -99 -40.5s-30 -69.5 -30 -133.5v-1008c0 -44.667 5.5 -72.5 16.5 -83.5
s39.833 -16.5 86.5 -16.5h253c44.667 0 73 5.66699 85 17s18 39 18 83v1008c0 63.333 -9.83301 107.666 -29.5 132.999s-52.5 39 -98.5 41v37h593v-37c-40 -1.33301 -73.167 -12.333 -99.5 -33s-39.5 -63.667 -39.5 -129v-1007c0 -54.667 10.5 -95.167 31.5 -121.5
s56.833 -40.166 107.5 -41.499v-431h-37c-5.33301 70 -27.166 135.5 -65.5 196.5c-38.333 61 -89.5 109.167 -153.5 144.5s-165.333 53 -304 53h-1613z" />
    <glyph glyph-name="afii10044" unicode="&#x42a;" horiz-adv-x="1579" 
d="M34 1406l918.004 -0.00195312v-37c-80.667 0 -133.334 -11 -158.001 -33s-37 -66 -37 -132v-436h209c169.333 0 302.5 -34.667 399.5 -104s145.5 -162.666 145.5 -279.999c0 -76.667 -25.5 -147.167 -76.5 -211.5s-114.833 -109.166 -191.5 -134.499
s-176.334 -38 -299.001 -38h-709v37h31c53.333 0 94.166 10.333 122.499 31s42.5 67.667 42.5 141v1111h-35c-70 0 -123.833 -7.66699 -161.5 -23s-70.334 -42.833 -98.001 -82.5s-49.5 -99.5 -65.5 -179.5h-37v371zM757.004 680.998l0.000976562 -448
c0 -62 8.66699 -104.833 26 -128.5s47.666 -35.5 90.999 -35.5c75.333 0 139.5 25 192.5 75s79.5 121.333 79.5 214c0 93.333 -27.333 170.5 -82 231.5s-157 91.5 -307 91.5z" />
    <glyph glyph-name="afii10045" unicode="&#x42b;" horiz-adv-x="2048" 
d="M2012 37v-37h-720v37h46c56.667 0 96 14.167 118 42.5s33 76.166 33 143.499v958c0 66 -10.667 113.833 -32 143.5s-61 44.5 -119 44.5h-46v37h720v-37h-45c-56.667 0 -96.167 -14.167 -118.5 -42.5s-33.5 -76.833 -33.5 -145.5v-958
c0 -65.333 10.667 -112.666 32 -141.999s61.333 -44 120 -44h45zM39 1406l721.999 0.000976562v-37c-78.667 0 -131.5 -10.667 -158.5 -32s-40.5 -65 -40.5 -131v-438h219c128 0 226.333 -15 295 -45s125.834 -76 171.501 -138s68.5 -130 68.5 -204
c0 -96 -42.667 -183.5 -128 -262.5s-226.333 -118.5 -423 -118.5h-726v37c83.333 0 137 11.167 161 33.5s36 71.166 36 146.499v972c0 76 -12.167 125 -36.5 147s-77.833 33 -160.5 33v37zM561.999 681.001v-432c0 -68 11.333 -115 34 -141s57 -39 103 -39
c66 0 124.667 26.333 176 79s77 122.667 77 210c0 92 -25.5 168.833 -76.5 230.5s-126.5 92.5 -226.5 92.5h-87z" />
    <glyph glyph-name="afii10046" unicode="&#x42c;" horiz-adv-x="1366" 
d="M35 1406l721.999 0.000976562v-37c-78.667 0 -131.5 -10.667 -158.5 -32s-40.5 -65 -40.5 -131v-438h219c128 0 226.333 -15 295 -45s125.834 -76 171.501 -138s68.5 -130 68.5 -204c0 -96 -42.667 -183.5 -128 -262.5s-226.333 -118.5 -423 -118.5h-726v37
c83.333 0 137 11.167 161 33.5s36 71.166 36 146.499v972c0 76 -12.167 125 -36.5 147s-77.833 33 -160.5 33v37zM557.999 681.001v-432c0 -68 11.333 -115 34 -141s57 -39 103 -39c66 0 124.667 26.333 176 79s77 122.667 77 210c0 92 -25.5 168.833 -76.5 230.5
s-126.5 92.5 -226.5 92.5h-87z" />
    <glyph glyph-name="afii10047" unicode="&#x42d;" horiz-adv-x="1429" 
d="M420 768l0.000976562 -87.001h568c0 -204 -39.333 -359.5 -118 -466.5s-188.667 -160.5 -330 -160.5c-152.667 0 -296.667 74 -432 222l-47 -43c149.333 -174 332 -261 548 -261c208 0 384.167 64.667 528.5 194s216.5 309.333 216.5 540
c0 206.667 -69.167 380.334 -207.5 521.001s-307.5 211 -507.5 211c-120.667 0 -227 -20.333 -319 -61c-44.667 -20 -78.334 -30 -101.001 -30c-56 0 -90.333 30.333 -103 91h-37v-462h37c62.667 248.667 208.334 373 437.001 373c135.333 0 241.666 -53.833 318.999 -161.5
s116 -247.5 116 -419.5h-568z" />
    <glyph glyph-name="afii10048" unicode="&#x42e;" horiz-adv-x="2359" 
d="M554 764l222.998 0.00195312c11.333 184.667 85.333 343.167 222 475.5s313.334 198.5 530.001 198.5c148.667 0 277 -29.667 385 -89s196.667 -143 266 -251s104 -236.667 104 -386c0 -221.333 -73.667 -400 -221 -536s-325.333 -204 -534 -204
c-144 0 -275.667 33.5 -395 100.5s-208.333 153.667 -267 260s-88.667 221.166 -90 344.499h-223v-506c0 -48.667 11.667 -83.167 35 -103.5s64 -30.5 122 -30.5h23v-37h-700v37h30c40.667 0 74 6.33301 100 19s43.333 29.334 52 50.001s13 59 13 115v964
c0 55.333 -4.5 93.666 -13.5 114.999s-26.667 38.166 -53 50.499s-59.166 18.5 -98.499 18.5h-30v37h700v-37h-23c-61.333 0 -102.833 -10.167 -124.5 -30.5s-32.5 -54.833 -32.5 -103.5v-471zM1138 716.002c0 -226 38.667 -394.001 116 -504.001s169.666 -165 276.999 -165
c110.667 0 203.334 59.333 278.001 178s112 276.334 112 473.001c0 216.667 -36.667 382.167 -110 496.5s-167 171.5 -281 171.5s-207.833 -59.167 -281.5 -177.5s-110.5 -275.833 -110.5 -472.5z" />
    <glyph glyph-name="afii10049" unicode="&#x42f;" horiz-adv-x="1473" 
d="M915 642l-0.00195312 -450c0 -59.333 -12.667 -100 -38 -122s-71.666 -33 -138.999 -33h-21v-37h720v37h-20c-66.667 0 -113 10.667 -139 32s-39 62.333 -39 123v1022c0 60.667 13 101.667 39 123s72.333 32 139 32h20v37h-699c-190 0 -326.5 -37.333 -409.5 -112
s-124.5 -166.667 -124.5 -276c0 -88 25.833 -161 77.5 -219s129.167 -101 232.5 -129l-290 -463c-69.333 -110 -130.666 -166.667 -183.999 -170v-37h411l401 642h63zM914.998 1332v-615h-78c-112 0 -189.833 27.667 -233.5 83s-65.5 130 -65.5 224
c0 78 14.167 140.333 42.5 187s64.5 78.5 108.5 95.5s103 25.5 177 25.5h49z" />
    <glyph glyph-name="afii10065" unicode="&#x430;" 
d="M976 142l20.0049 -18.999c-48 -100.667 -123.667 -151 -227 -151c-55.333 0 -98.333 12.667 -129 38s-49.334 63 -56.001 113c-8.66699 -6 -29.667 -21.667 -63 -47c-92 -69.333 -175 -104 -249 -104c-50 0 -94 18 -132 54s-57 83.333 -57 142
c0 68.667 31.667 133 95 193s198.666 137.333 405.999 232v123c0 52.667 -2.33301 88.667 -7 108s-17.834 36.5 -39.501 51.5s-50.167 22.5 -85.5 22.5c-37.333 0 -69.833 -7.83301 -97.5 -23.5s-41.5 -35.5 -41.5 -59.5c0 -12.667 8 -28.334 24 -47.001
c26.667 -32 40 -62.333 40 -91c0 -32.667 -12.333 -59 -37 -79s-56 -30 -94 -30c-45.333 0 -81.5 11.833 -108.5 35.5s-40.5 54.167 -40.5 91.5c0 70.667 41 134.5 123 191.5s183.667 85.5 305 85.5c88 0 156.667 -12.333 206 -37s84.166 -56.5 104.499 -95.5
s30.5 -95.5 30.5 -169.5v-376c0 -81.333 3.66699 -134 11 -158s22.666 -36 45.999 -36c20 0 37.667 14 53 42zM584.005 520.001c-147.333 -75.333 -221 -163.333 -221 -264c0 -34 9.5 -60.833 28.5 -80.5s42.5 -29.5 70.5 -29.5c20 0 40.167 4.33301 60.5 13
s40.833 21.667 61.5 39v322z" />
    <glyph glyph-name="afii10066" unicode="&#x431;" 
d="M918 1438h37.998c-22 -86 -62 -154.667 -120 -206s-123.667 -77 -197 -77c-23.333 0 -52.666 1.66699 -87.999 5c-24 2 -43 3 -57 3c-107.333 0 -193 -38.5 -257 -115.5s-96.667 -186.167 -98 -327.5c88 168 216 252 384 252c120 0 224.5 -45.5 313.5 -136.5
s133.5 -212.833 133.5 -365.5c0 -152 -44.833 -273 -134.5 -363s-194.167 -135 -313.5 -135c-126.667 0 -236.167 45.833 -328.5 137.5s-138.5 238.167 -138.5 439.5c0 210.667 26.167 382.5 78.5 515.5s118.333 223.333 198 271s190.5 71.5 332.5 71.5
c22 0 41.667 -0.333008 59 -1c36.667 -2 61 -3 73 -3c44.667 0 85.334 11.667 122.001 35zM519.998 905c-38 0 -70.668 -15.3311 -98.001 -45.998s-45.166 -72.834 -53.499 -126.501s-12.5 -143.834 -12.5 -270.501c0 -154.667 12 -263.667 36 -327s65 -95 123 -95
c36 0 67.5 15.667 94.5 47s44 74 51 128s10.5 158.667 10.5 314c0 140 -10.833 237.667 -32.5 293s-61.167 83 -118.5 83z" />
    <glyph glyph-name="afii10067" unicode="&#x432;" horiz-adv-x="1038" 
d="M55 950h484.001c129.333 0 222.666 -22.167 279.999 -66.5s86 -100.833 86 -169.5c0 -111.333 -66.333 -182.333 -199 -213c86 -5.33301 152 -31.5 198 -78.5s69 -102.5 69 -166.5c0 -85.333 -34.167 -149.333 -102.5 -192s-170.833 -64 -307.5 -64h-508v37
c34 6 57.5 19.5 70.5 40.5s19.5 59.167 19.5 114.5v584c0 86 -30 131.667 -90 137v37zM428.001 527c66 0 116.999 16 152.999 48s54 75.667 54 131c0 54.667 -17.667 98.5 -53 131.5s-86.666 49.5 -153.999 49.5v-360zM428 464v-306c0 -36 4.5 -60.833 13.5 -74.5
s26.833 -20.5 53.5 -20.5c49.333 0 91.833 20.167 127.5 60.5s53.5 89.833 53.5 148.5c0 72 -21 122 -63 150s-103.667 42 -185 42z" />
    <glyph glyph-name="afii10068" unicode="&#x433;" horiz-adv-x="866" 
d="M69 950l782 0.000976562v-247h-38c-9.33301 63.333 -24.833 109.833 -46.5 139.5s-71.167 44.5 -148.5 44.5h-191v-697c0 -64.667 6.33301 -104.5 19 -119.5s31.667 -26.167 57 -33.5v-37h-434v37c32 10 52.667 24.667 62 44s14 55.666 14 108.999v570
c0 54 -4.83301 90.5 -14.5 109.5s-30.167 33.5 -61.5 43.5v37z" />
    <glyph glyph-name="afii10069" unicode="&#x434;" horiz-adv-x="1055" 
d="M1011 37l0.000976562 -287.001h-38c-12.667 166.667 -132.667 250 -360 250h-214c-226 0 -346.333 -83.333 -361 -250h-37v287c94 7.33301 168 83.166 222 227.499s81 307.5 81 489.5c0 68 -10.167 111.5 -30.5 130.5s-54.833 28.5 -103.5 28.5v37h812v-37
c-30 -8 -50.667 -22.5 -62 -43.5s-17 -57.167 -17 -108.5v-569c0 -57.333 7.16699 -96.666 21.5 -117.999s43.166 -33.666 86.499 -36.999zM382.001 886.999l-0.000976562 -117c0 -154.667 -16.167 -296.167 -48.5 -424.5s-76.166 -222.5 -131.499 -282.5h307
c50.667 0 84.167 10.5 100.5 31.5s24.5 58.833 24.5 113.5v679h-252z" />
    <glyph glyph-name="afii10070" unicode="&#x435;" horiz-adv-x="895" 
d="M818 282l38 -22c-88 -192 -218.333 -288 -391 -288c-132.667 0 -235.5 46.5 -308.5 139.5s-109.5 207.833 -109.5 344.5c0 146 43.167 268.5 129.5 367.5s185.166 148.5 296.499 148.5c104 0 193.833 -43.333 269.5 -130s113.5 -199 113.5 -337h-538
c6 -114 35.833 -205.667 89.5 -275s116.834 -104 189.501 -104c90 0 163.667 52 221 156zM318 572h287c0.666992 22.667 1 44.667 1 66c0 93.333 -13 161.333 -39 204s-58.667 64 -98 64c-40 0 -75.167 -26 -105.5 -78s-45.5 -137.333 -45.5 -256z" />
    <glyph glyph-name="afii10072" unicode="&#x436;" horiz-adv-x="1473" 
d="M871 526h20.9971c31.333 0 59.5 11.833 84.5 35.5s48.5 72.5 70.5 146.5c32.667 109.333 64.834 178.5 96.501 207.5s69.167 43.5 112.5 43.5s81.166 -14.167 113.499 -42.5s48.5 -67.5 48.5 -117.5c0 -39.333 -9.66699 -71.333 -29 -96s-44.666 -37 -75.999 -37
c-62 0 -94 44.333 -96 133c-0.666992 39.333 -8.66699 59 -24 59c-24.667 0 -45 -29.333 -61 -88c-37.333 -138 -73 -222.333 -107 -253c90 -7.33301 154 -50.666 192 -129.999l132 -276c22.667 -48 51.334 -72.667 86.001 -74v-37h-308l-192 405
c-18 37.333 -39.333 56.666 -64 57.999v-283c0 -51.333 6.83301 -87.166 20.5 -107.499s37.5 -32.166 71.5 -35.499v-37h-453v37c34 3.33301 57.667 15.166 71 35.499s20 56.166 20 107.499v283c-24.667 -2 -45.667 -21.333 -63 -58l-193 -405h-307v37
c34.667 2 63.334 26.667 86.001 74l132 276c37.333 79.333 101 122.666 191 129.999c-32.667 30 -68 114.333 -106 253c-16 58.667 -36 88 -60 88c-16.667 0 -25.334 -19.667 -26.001 -59c-2 -88.667 -33.667 -133 -95 -133c-31.333 0 -56.666 12.333 -75.999 37
s-29 56.334 -29 95.001c0 48 15.5 86.833 46.5 116.5s69.5 44.5 115.5 44.5c38 0 73 -11.667 105 -35s66.333 -95.333 103 -216c20 -64.667 35.167 -104.5 45.5 -119.5s28.5 -29.167 54.5 -42.5s44.333 -20 55 -20h21v244c0 50.667 -6.66699 86.167 -20 106.5
s-37 32.5 -71 36.5v37h453v-37c-34 -4 -57.833 -16.167 -71.5 -36.5s-20.5 -55.833 -20.5 -106.5v-244z" />
    <glyph glyph-name="afii10073" unicode="&#x437;" horiz-adv-x="854" 
d="M297 463v63c117.333 0 176 62 176 186c0 62.667 -15 109.334 -45 140.001s-68 46 -114 46c-106 0 -172.667 -73.667 -200 -221h-37l13 295h37c10 -27.333 25.333 -41 46 -41c10 0 24.333 2.66699 43 8c72 22 142.667 33 212 33c102 0 180.667 -23.667 236 -71
s83 -101.666 83 -162.999c0 -50.667 -20.167 -98.167 -60.5 -142.5s-98.5 -73.833 -174.5 -88.5c99.333 -16 171.5 -48.167 216.5 -96.5s67.5 -101.833 67.5 -160.5c0 -79.333 -36 -145.5 -108 -198.5s-168.667 -79.5 -290 -79.5c-180 0 -305 65.333 -375 196l32 19
c76 -76.667 156.667 -115 242 -115c61.333 0 110.5 18.167 147.5 54.5s55.5 85.833 55.5 148.5c0 55.333 -18.5 100.166 -55.5 134.499s-86.167 52.166 -147.5 53.499z" />
    <glyph glyph-name="afii10074" unicode="&#x438;" horiz-adv-x="1116" 
d="M67 950l440.002 -0.000976562v-37c-52 -9.33301 -78 -59.333 -78 -150v-455l260 470c-0.666992 79.333 -26.667 124.333 -78 135v37h438v-37c-52 -9.33301 -78 -59.333 -78 -150v-577c0 -49.333 5.66699 -84.666 17 -105.999s31.666 -35.666 60.999 -42.999v-37h-438v37
c52 9.33301 78 59 78 149v453l-260 -467c0 -79.333 26 -124.333 78 -135v-37h-440v37c52 9.33301 78 59 78 149v577c0 50 -5.83301 85.667 -17.5 107s-31.834 35.666 -60.501 42.999v37z" />
    <glyph glyph-name="afii10075" unicode="&#x439;" horiz-adv-x="1116" 
d="M567 1104c-106 0 -191.667 16.667 -257 50s-98 78.333 -98 135c0 30 8.66699 53.667 26 71s38 26 62 26c52 0 92.333 -44.667 121 -134c18.667 -60 63.334 -90 134.001 -90c46 0 78.333 6 97 18c18 11.333 32.667 34 44 68c30 92 71.333 138 124 138
c23.333 0 43.666 -8.5 60.999 -25.5s26 -40.833 26 -71.5c0 -58 -30.5 -103.333 -91.5 -136s-143.833 -49 -248.5 -49zM67 950l440.002 -0.000976562v-37c-52 -9.33301 -78 -59.333 -78 -150v-455l260 470c-0.666992 79.333 -26.667 124.333 -78 135v37h438v-37
c-52 -9.33301 -78 -59.333 -78 -150v-577c0 -49.333 5.66699 -84.666 17 -105.999s31.666 -35.666 60.999 -42.999v-37h-438v37c52 9.33301 78 59 78 149v453l-260 -467c0 -79.333 26 -124.333 78 -135v-37h-440v37c52 9.33301 78 59 78 149v577
c0 50 -5.83301 85.667 -17.5 107s-31.834 35.666 -60.501 42.999v37z" />
    <glyph glyph-name="afii10076" unicode="&#x43a;" horiz-adv-x="1147" 
d="M52 950h465v-37c-62 -6 -93 -57 -93 -153v-233c73.333 0 125.166 12.167 155.499 36.5s61.833 84.5 94.5 180.5c30.667 90.667 67 149.334 109 176.001c42 26 84.333 39 127 39c54 0 98.833 -15.167 134.5 -45.5s53.5 -69.166 53.5 -116.499
c0 -34 -10.5 -65.5 -31.5 -94.5s-50.833 -43.5 -89.5 -43.5c-70 0 -107 43.333 -111 130c-2 31.333 -5.33301 51.333 -10 60s-13.334 13 -26.001 13c-18.667 0 -35 -10 -49 -30s-33.333 -65.333 -58 -136c-32 -90.667 -65.333 -150.334 -100 -179.001
c38.667 -4 79.334 -17.333 122.001 -40s85 -73 127 -151c3.33301 -6.66699 7.33301 -13.667 12 -21l85 -146c44.667 -76.667 92.334 -117.334 143.001 -122.001v-37h-349l-270 464h-69v-274c0 -63.333 9 -104 27 -122s40 -28.333 66 -31v-37h-465v37
c62 5.33301 93 56.333 93 153v570c0 96 -31 147 -93 153v37z" />
    <glyph glyph-name="afii10077" unicode="&#x43b;" horiz-adv-x="1110" 
d="M246 950h821.001v-37c-37.333 -3.33301 -63.666 -15 -78.999 -35s-23 -55 -23 -105v-596c0 -50 7.5 -85 22.5 -105s41.5 -31.667 79.5 -35v-37h-498v37c76.667 2.66699 115 47.667 115 135v715h-266v-396c0 -178 -18.333 -305.833 -55 -383.5
s-96.334 -116.5 -179.001 -116.5c-47.333 0 -88.5 14.333 -123.5 43s-52.5 66.667 -52.5 114c0 40.667 12 74 36 100s54 39 90 39c35.333 0 62.166 -12.167 80.499 -36.5s27.5 -51.5 27.5 -81.5v-41c0 -22.667 7 -34 21 -34c30.667 0 53.667 34.167 69 102.5
s23 170.5 23 306.5v230c0 70.667 -7.5 117.667 -22.5 141s-43.833 36.333 -86.5 39v37z" />
    <glyph glyph-name="afii10078" unicode="&#x43c;" horiz-adv-x="1325" 
d="M44 950h383.998l237 -590l234 590h382v-37c-38.667 -2.66699 -65.167 -14.167 -79.5 -34.5s-21.5 -55.833 -21.5 -106.5v-595c0 -49.333 7 -84.333 21 -105s40.667 -32.334 80 -35.001v-37h-497v37c40.667 2 70 14 88 36s27 58.667 27 110v607l-323 -790h-51l-316 778
v-613c0 -84 36 -126.667 108 -128v-37h-273v37c38.667 2.66699 65.334 14.167 80.001 34.5s22 55.5 22 105.5v595c0 50 -7.16699 85.333 -21.5 106s-41.166 32.334 -80.499 35.001v37z" />
    <glyph glyph-name="afii10079" unicode="&#x43d;" horiz-adv-x="1112" 
d="M427 525l259 -0.00195312v236c0 51.333 -5.66699 87.5 -17 108.5s-32 35.5 -62 43.5v37h439v-37c-30 -8 -50.667 -22.5 -62 -43.5s-17 -57.167 -17 -108.5v-572c0 -51.333 5.66699 -87.666 17 -108.999s32 -35.666 62 -42.999v-37h-439v37
c29.333 7.33301 49.833 21.5 61.5 42.5s17.5 57.5 17.5 109.5v272h-259v-272c0 -52 5.83301 -88.5 17.5 -109.5s32.167 -35.167 61.5 -42.5v-37h-439v37c29.333 7.33301 49.833 21.5 61.5 42.5s17.5 57.5 17.5 109.5v572c0 51.333 -5.66699 87.5 -17 108.5
s-32 35.5 -62 43.5v37h439v-37c-30 -7.33301 -50.667 -21.5 -62 -42.5s-17 -57.5 -17 -109.5v-236z" />
    <glyph glyph-name="afii10080" unicode="&#x43e;" 
d="M966 469c0 -160.667 -47.332 -283.667 -141.999 -369s-197 -128 -307 -128c-114.667 0 -219.834 42.833 -315.501 128.5s-143.5 210.167 -143.5 373.5c0 148 43.667 268 131 360s194 138 320 138c128.667 0 237 -45.167 325 -135.5s132 -212.833 132 -367.5zM672.001 449
c0 182.667 -11 304.333 -33 365s-63.667 91 -125 91c-55.333 0 -96 -27.667 -122 -83s-39 -150.333 -39 -285c0 -198.667 10.833 -330.167 32.5 -394.5s64.167 -96.5 127.5 -96.5c58 0 99 28.833 123 86.5s36 163.167 36 316.5z" />
    <glyph glyph-name="afii10081" unicode="&#x43f;" horiz-adv-x="1124" 
d="M73 950h979v-37c-28.667 -10.667 -47.834 -25.167 -57.501 -43.5s-14.5 -49.5 -14.5 -93.5v-602c0 -44 4.83301 -75.167 14.5 -93.5s28.834 -32.833 57.501 -43.5v-37h-440v37c58.667 10 88 61.667 88 155v695h-271v-695c0 -56 7.33301 -94.333 22 -115
s36.667 -34 66 -40v-37h-444v37c28.667 10.667 47.834 25.167 57.501 43.5s14.5 49.5 14.5 93.5v602c0 44 -4.83301 75.167 -14.5 93.5s-28.834 32.833 -57.501 43.5v37z" />
    <glyph glyph-name="afii10082" unicode="&#x440;" 
d="M423 950l-0.00195312 -112.998c28.667 45.333 61.334 79.166 98.001 101.499s77.334 33.5 122.001 33.5c90 0 167.667 -45.833 233 -137.5s98 -212.834 98 -363.501c0 -156 -36.5 -278.167 -109.5 -366.5s-154.5 -132.5 -244.5 -132.5c-40 0 -76.333 9 -109 27
s-62 45 -88 81v-293c0 -71.333 6.66699 -119.333 20 -144s40.333 -37 81 -37h42v-38h-537v38c46.667 0 77.167 11.667 91.5 35s21.5 72 21.5 146v940c0 76 -7.33301 126 -22 150s-45 36 -91 36v37h394zM422.998 729.002l-0.000976562 -559c26 -33.333 50.667 -58.333 74 -75
s45.333 -25 66 -25c37.333 0 66 24.667 86 74s30 156.333 30 321c0 128.667 -10.667 225 -32 289s-53.666 96 -96.999 96c-24.667 0 -47.5 -10 -68.5 -30s-40.5 -50.333 -58.5 -91z" />
    <glyph glyph-name="afii10083" unicode="&#x441;" horiz-adv-x="895" 
d="M840 240l31.002 -22.001c-88 -164 -216.667 -246 -386 -246c-134.667 0 -241 48.167 -319 144.5s-117 208.833 -117 337.5c0 148.667 44.167 272.167 132.5 370.5s199.166 147.5 332.499 147.5c91.333 0 169.333 -23.333 234 -70s97 -103 97 -169
c0 -33.333 -11.5 -62.333 -34.5 -87s-53.167 -37 -90.5 -37c-90 0 -141.667 61.333 -155 184c-8 72 -39.667 108 -95 108c-46.667 0 -83.667 -26.667 -111 -80s-41 -125.666 -41 -216.999c0 -114.667 25.333 -222.5 76 -323.5s126 -151.5 226 -151.5
c79.333 0 152.666 37 219.999 111z" />
    <glyph glyph-name="afii10084" unicode="&#x442;" horiz-adv-x="1003" 
d="M45 950h913.999v-245h-38c-2.66699 46 -16.167 87.833 -40.5 125.5s-74.166 56.5 -149.499 56.5h-88v-710c0 -59.333 10.833 -97 32.5 -113s47.5 -25 77.5 -27v-37h-503v37c41.333 4.66699 70 17 86 37s24 54.333 24 103v710h-116c-97.333 0 -151.333 -60.667 -162 -182
h-37v245z" />
    <glyph glyph-name="afii10085" unicode="&#x443;" 
d="M989 950l-0.000976562 -36.999c-36 -2.66699 -65.167 -19.5 -87.5 -50.5s-57.5 -114.5 -105.5 -250.5l-262 -743c-44 -126 -87.833 -208 -131.5 -246s-94.5 -57 -152.5 -57c-52.667 0 -95.667 14.833 -129 44.5s-50 68.167 -50 115.5c0 39.333 12.167 72.166 36.5 98.499
s54.5 39.5 90.5 39.5c72 0 108 -46 108 -138c0 -36.667 11 -55 33 -55c44.667 0 93.334 77 146.001 231l18 54l-290 701c-42 101.333 -73.5 166.833 -94.5 196.5s-49.167 49.5 -84.5 59.5v37h500v-37c-60.667 -2.66699 -91 -22.334 -91 -59.001
c0 -26 10.667 -65.333 32 -118l162 -392l119 344c19.333 57.333 29 103.333 29 138c0 32 -8.16699 54.333 -24.5 67s-43.833 19.334 -82.5 20.001v37h311z" />
    <glyph glyph-name="afii10086" unicode="&#x444;" horiz-adv-x="1366" 
d="M823 52l-0.00292969 -300c0 -52 5.83301 -88 17.5 -108s35.167 -32.667 70.5 -38v-38h-455v38c34.667 5.33301 58 17.833 70 37.5s18 55.834 18 108.501v300c-27.333 -26.667 -54.666 -46.667 -81.999 -60s-55 -20 -83 -20c-84 0 -158.167 42.5 -222.5 127.5
s-96.5 208.833 -96.5 371.5c0 158 32.167 281 96.5 369s139.5 132 225.5 132c31.333 0 60.5 -6.83301 87.5 -20.5s51.833 -34.167 74.5 -61.5v333c0 51.333 -6 87 -18 107s-35.333 33 -70 39v37h367v-516c23.333 27.333 48.5 47.833 75.5 61.5s55.833 20.5 86.5 20.5
c82 0 156.167 -42.333 222.5 -127s99.5 -209.334 99.5 -374.001c0 -150 -30.333 -270.667 -91 -362s-137 -137 -229 -137c-27.333 0 -54.666 6.66699 -81.999 20s-54.666 33.333 -81.999 60zM543.997 806c-8 17.333 -18 30.167 -30 38.5s-25.667 12.5 -41 12.5
c-34.667 0 -65 -30.833 -91 -92.5s-39 -159.5 -39 -293.5c0 -128.667 10.833 -225.167 32.5 -289.5s54.167 -96.5 97.5 -96.5c11.333 0 23 4.33301 35 13s24 21.667 36 39v669zM822.997 806.001v-669.002c13.333 -17.333 26.166 -30.333 38.499 -39s24.166 -13 35.499 -13
c42.667 0 74.5 32.333 95.5 97s31.5 161.334 31.5 290.001c0 130 -12.667 226.667 -38 290s-56.666 95 -93.999 95c-14 0 -26.667 -4.16699 -38 -12.5s-21.666 -21.166 -30.999 -38.499z" />
    <glyph glyph-name="afii10087" unicode="&#x445;" horiz-adv-x="1131" 
d="M668 564l283.001 -412.999c34 -49.333 59.333 -80.666 76 -93.999s38.334 -20 65.001 -20v-37h-528v37h22c46 0 69 13.333 69 40c0 17.333 -16 49.333 -48 96l-117 175l-112 -135c-44 -53.333 -66 -93.333 -66 -120c0 -37.333 32 -56 96 -56v-37h-368v37
c42.667 0.666992 78 8.16699 106 22.5s61.333 44.833 100 91.5l208 250l-271 390c-36.667 53.333 -63.334 87 -80.001 101s-37.667 21 -63 21v37h524v-37c-60 0 -90 -13.667 -90 -41c0 -17.333 11 -42 33 -74l125 -181l124 152c27.333 33.333 41 62.333 41 87
c0 38 -28 57 -84 57v37h336v-37c-44 -2.66699 -78.333 -12.834 -103 -30.501s-63.334 -58.834 -116.001 -123.501z" />
    <glyph glyph-name="afii10088" unicode="&#x446;" horiz-adv-x="1131" 
d="M68 0v36.999c25.333 3.33301 44.5 12.833 57.5 28.5s19.5 54.5 19.5 116.5v586c0 62.667 -6.66699 101.667 -20 117s-32.333 24.666 -57 27.999v37h436v-37c-23.333 -3.33301 -41.833 -12.333 -55.5 -27s-20.5 -54 -20.5 -118v-607c0 -40.667 5.16699 -67.167 15.5 -79.5
s33.833 -18.5 70.5 -18.5h98c36 0 59.333 6.16699 70 18.5s16 38.833 16 79.5v607c0 62.667 -6.66699 101.667 -20 117s-32.333 24.666 -57 27.999v37h435v-37c-29.333 -5.33301 -49.5 -17.166 -60.5 -35.499s-16.5 -54.833 -16.5 -109.5v-576
c0 -57.333 7.16699 -96.666 21.5 -117.999s42.833 -33.666 85.5 -36.999v-287h-37c-12.667 166.667 -133 250 -361 250h-620z" />
    <glyph glyph-name="afii10089" unicode="&#x447;" horiz-adv-x="1055" 
d="M29 950l436 0.000976562v-37c-30 -8.66699 -50.5 -22.5 -61.5 -41.5s-16.5 -56.5 -16.5 -112.5v-170c0 -38 7.66699 -66.5 23 -85.5s38 -28.5 68 -28.5c34.667 0 84.667 10 150 30v254c0 56 -5.5 93.5 -16.5 112.5s-31.5 32.833 -61.5 41.5v37h437v-37
c-30 -8.66699 -50.5 -22.5 -61.5 -41.5s-16.5 -56.5 -16.5 -112.5v-569c0 -56 5.5 -93.5 16.5 -112.5s31.5 -32.5 61.5 -40.5v-37h-437v37c30 8 50.5 21.667 61.5 41s16.5 56.666 16.5 111.999v254c-117.333 -43.333 -213.333 -65 -288 -65c-56 0 -108.667 17 -158 51
c-50 33.333 -75 94 -75 182v147c0 56 -5.5 93.667 -16.5 113s-31.5 33 -61.5 41v37z" />
    <glyph glyph-name="afii10090" unicode="&#x448;" horiz-adv-x="1667" 
d="M67 950l449 0.000976562v-37c-32.667 -4.66699 -55.334 -17.5 -68.001 -38.5s-19 -58.833 -19 -113.5v-590c0 -44.667 5.5 -73.834 16.5 -87.501s34.5 -20.5 70.5 -20.5h90c35.333 0 58.5 6.66699 69.5 20s16.5 42.666 16.5 87.999v590c0 54 -6.16699 91.5 -18.5 112.5
s-34.833 34.167 -67.5 39.5v37h456v-37c-32 -4.66699 -54.5 -17.5 -67.5 -38.5s-19.5 -58.833 -19.5 -113.5v-590c0 -44.667 5.5 -73.834 16.5 -87.501s34.5 -20.5 70.5 -20.5h90c33.333 0 56 5.5 68 16.5s18 41.5 18 91.5v590c0 54 -6.16699 91.667 -18.5 113
s-34.833 34.333 -67.5 39v37h448v-37c-29.333 -8 -49.666 -22.333 -60.999 -43s-17 -57 -17 -109v-572c0 -51.333 5.5 -87.666 16.5 -108.999s31.5 -35.666 61.5 -42.999v-37h-1533v37c29.333 7.33301 49.833 21.5 61.5 42.5s17.5 57.5 17.5 109.5v572
c0 51.333 -5.66699 87.5 -17 108.5s-32 35.5 -62 43.5v37z" />
    <glyph glyph-name="afii10091" unicode="&#x449;" horiz-adv-x="1671" 
d="M66 0l0.000976562 37.0049c29.333 7.33301 49.833 21.666 61.5 42.999s17.5 58 17.5 110v572c0 50.667 -5.5 86.5 -16.5 107.5s-31.833 35.5 -62.5 43.5v37h449v-37c-32.667 -4.66699 -55.334 -17.5 -68.001 -38.5s-19 -58.5 -19 -112.5v-591
c0 -44.667 5.5 -73.834 16.5 -87.501s34.5 -20.5 70.5 -20.5h90c35.333 0 58.5 6.66699 69.5 20s16.5 42.666 16.5 87.999v591c0 53.333 -6.16699 90.5 -18.5 111.5s-34.833 34.167 -67.5 39.5v37h456v-37c-32 -4.66699 -54.5 -17.5 -67.5 -38.5s-19.5 -58.5 -19.5 -112.5
v-591c0 -44.667 5.5 -73.834 16.5 -87.501s34.5 -20.5 70.5 -20.5h90c33.333 0 56 5.5 68 16.5s18 41.5 18 91.5v591c0 53.333 -6.16699 90.666 -18.5 111.999s-34.833 34.333 -67.5 39v37h448v-37c-29.333 -8 -49.666 -22.5 -60.999 -43.5s-17 -56.833 -17 -107.5v-572
c0 -56.667 7.16699 -95.5 21.5 -116.5s43.5 -33.167 87.5 -36.5v-287h-38c-18.667 166.667 -139.334 250 -362.001 250h-1164z" />
    <glyph glyph-name="afii10092" unicode="&#x44a;" horiz-adv-x="1131" 
d="M34 950h609v-37c-36.667 -6.66699 -61 -20.834 -73 -42.501s-18 -61.834 -18 -120.501v-224h82c156 0 269 -25.167 339 -75.5s105 -114.5 105 -192.5c0 -68 -31 -128 -93 -180s-171.333 -78 -328 -78h-479v37c36.667 6.66699 61.167 20.834 73.5 42.501
s18.5 61.834 18.5 120.501v687h-32c-95.333 0 -151 -61.333 -167 -184h-37v247zM552 462l0.000976562 -289c0 -42 4.66699 -71 14 -87s25 -24 47 -24c46.667 0 86.667 19.833 120 59.5s50 87.5 50 143.5c0 63.333 -20.333 112 -61 146s-97.334 51 -170.001 51z" />
    <glyph glyph-name="afii10093" unicode="&#x44b;" horiz-adv-x="1503" 
d="M975 950h485v-37c-68 -5.33301 -102 -51 -102 -137v-604c0 -83.333 34 -128.333 102 -135v-37h-485v37c67.333 5.33301 101 50.333 101 135v604c0 86 -33.667 131.667 -101 137v37zM54 950l464 -0.000976562v-37c-36 -6.66699 -60.167 -20.5 -72.5 -41.5
s-18.5 -58.5 -18.5 -112.5v-233h149c131.333 0 230.5 -26.167 297.5 -78.5s100.5 -115.166 100.5 -188.499c0 -75.333 -33.5 -137.333 -100.5 -186s-166.167 -73 -297.5 -73h-522v37c36 6.66699 60.167 20.5 72.5 41.5s18.5 58.5 18.5 112.5v568
c0 54 -6.16699 91.5 -18.5 112.5s-36.5 34.833 -72.5 41.5v37zM427 461.999v-298c0 -68 20.667 -102 62 -102c52 0 96.833 20.667 134.5 62s56.5 92.333 56.5 153c0 49.333 -18.667 92.833 -56 130.5s-91 56.5 -161 56.5c-10 0 -22 -0.666992 -36 -2z" />
    <glyph glyph-name="afii10094" unicode="&#x44c;" horiz-adv-x="1026" 
d="M54 950l464 -0.000976562v-37c-36 -6.66699 -60.167 -20.5 -72.5 -41.5s-18.5 -58.5 -18.5 -112.5v-233h149c131.333 0 230.5 -26.167 297.5 -78.5s100.5 -115.166 100.5 -188.499c0 -75.333 -33.5 -137.333 -100.5 -186s-166.167 -73 -297.5 -73h-522v37
c36 6.66699 60.167 20.5 72.5 41.5s18.5 58.5 18.5 112.5v568c0 54 -6.16699 91.5 -18.5 112.5s-36.5 34.833 -72.5 41.5v37zM427 461.999v-298c0 -68 20.667 -102 62 -102c52 0 96.833 20.667 134.5 62s56.5 92.333 56.5 153c0 49.333 -18.667 92.833 -56 130.5
s-91 56.5 -161 56.5c-10 0 -22 -0.666992 -36 -2z" />
    <glyph glyph-name="afii10095" unicode="&#x44d;" horiz-adv-x="895" 
d="M320 523v-62.999h220c0.666992 -17.333 1 -30 1 -38c0 -116.667 -20 -204.334 -60 -263.001s-100 -88 -180 -88c-84.667 0 -160.667 36.333 -228 109l-33 -17c64.667 -127.333 177.667 -191 339 -191c137.333 0 248 49.5 332 148.5s126 223.833 126 374.5
c0 141.333 -40.667 256.166 -122 344.499s-184 132.5 -308 132.5c-48 0 -112 -12.333 -192 -37c-16.667 -5.33301 -31 -8 -43 -8c-26.667 0 -43 15 -49 45h-37l-13 -299h37c45.333 150.667 125.333 226 240 226c64 0 112 -27 144 -81s48 -135 48 -243
c0 -11.333 -0.666992 -28.666 -2 -51.999h-220z" />
    <glyph glyph-name="afii10096" unicode="&#x44e;" horiz-adv-x="1579" 
d="M427 505l185 0.000976562c1.33301 130.667 42.833 241.167 124.5 331.5s189.5 135.5 323.5 135.5c138 0 249.5 -44.333 334.5 -133s127.5 -211.334 127.5 -368.001c0 -148 -42 -268.167 -126 -360.5s-191.667 -138.5 -323 -138.5c-130 0 -236.5 39.333 -319.5 118
s-130.167 196 -141.5 352h-185v-270c0 -83.333 33.667 -128.333 101 -135v-37h-484v37c67.333 5.33301 101 50.333 101 135v604c0 86 -33.667 131.667 -101 137v37h484v-37c-67.333 -5.33301 -101 -51 -101 -137v-271zM906 505.001
c0 -130 3.33105 -225.169 9.99805 -285.502s24.334 -106.166 53.001 -137.499s61 -47 97 -47c42 0 79.5 22 112.5 66s49.5 178.333 49.5 403c0 161.333 -13.167 269.333 -39.5 324s-67.166 82 -122.499 82c-54.667 0 -95 -28.167 -121 -84.5s-39 -163.166 -39 -320.499z" />
    <glyph glyph-name="afii10097" unicode="&#x44f;" horiz-adv-x="1022" 
d="M33 0v37.002c68 1.33301 116.667 44.666 146 129.999l98 288c-137.333 43.333 -206 124.666 -206 243.999c0 73.333 29 133.5 87 180.5s169.667 70.5 335 70.5h495v-37c-60.667 -4 -91 -52 -91 -144v-588c0 -89.333 30.333 -137.333 91 -144v-37h-461v37
c60 4 90 52 90 144v245h-74l-148 -426h-362zM617 874.002c-30.667 10.667 -61.667 16.001 -93 16.001c-46 0 -83.667 -16.333 -113 -49s-44 -78.334 -44 -137.001c0 -143.333 76.667 -215 230 -215h20v385z" />
    <glyph glyph-name="afii10071" unicode="&#x451;" horiz-adv-x="895" 
d="M666 1385c36.667 0 68 -13 94 -39s39 -57.667 39 -95c0 -36.667 -13 -68 -39 -94s-57.333 -39 -94 -39s-68 13 -94 39s-39 57.333 -39 94c0 38 13.167 69.833 39.5 95.5s57.5 38.5 93.5 38.5zM292 1384c36.667 0 68 -13 94 -39s39 -57.333 39 -94
c0 -37.333 -13 -68.833 -39 -94.5s-57.333 -38.5 -94 -38.5c-36 0 -67.167 13 -93.5 39s-39.5 57.333 -39.5 94c0 38 13.333 69.667 40 95s57.667 38 93 38zM818 282l38 -22c-88 -192 -218.333 -288 -391 -288c-132.667 0 -235.5 46.5 -308.5 139.5
s-109.5 207.833 -109.5 344.5c0 146 43.167 268.5 129.5 367.5s185.166 148.5 296.499 148.5c104 0 193.833 -43.333 269.5 -130s113.5 -199 113.5 -337h-538c6 -114 35.833 -205.667 89.5 -275s116.834 -104 189.501 -104c90 0 163.667 52 221 156zM318 572h287
c0.666992 22.667 1 44.667 1 66c0 93.333 -13 161.333 -39 204s-58.667 64 -98 64c-40 0 -75.167 -26 -105.5 -78s-45.5 -137.333 -45.5 -256z" />
    <glyph glyph-name="afii10099" unicode="&#x452;" horiz-adv-x="1012" 
d="M30 1197h89.002v54c0 66 -29.667 105.333 -89 118v37h370v-209h381v-63h-381v-311c32 50 68 87.333 108 112s84 37 132 37c87.333 0 159.166 -47 215.499 -141s84.5 -242.333 84.5 -445c0 -246 -48.333 -443.833 -145 -593.5s-219.667 -224.5 -369 -224.5v38
c69.333 18.667 118.166 58.667 146.499 120s47 153.833 56 277.5s13.5 203.167 13.5 238.5l-1 112v278c0 100.667 -8 163 -24 187s-35.667 36 -59 36c-24 0 -49.167 -10.5 -75.5 -31.5s-53.833 -52.833 -82.5 -95.5v-573c0 -66 29.667 -105.333 89 -118v-37h-459v37
c59.333 12.667 89 52 89 118v979h-89v63z" />
    <glyph glyph-name="afii10100" unicode="&#x453;" horiz-adv-x="866" 
d="M718 1442l-334 -350h-85l117 350h302zM69 950l782 0.000976562v-247h-38c-9.33301 63.333 -24.833 109.833 -46.5 139.5s-71.167 44.5 -148.5 44.5h-191v-697c0 -64.667 6.33301 -104.5 19 -119.5s31.667 -26.167 57 -33.5v-37h-434v37c32 10 52.667 24.667 62 44
s14 55.666 14 108.999v570c0 54 -4.83301 90.5 -14.5 109.5s-30.167 33.5 -61.5 43.5v37z" />
    <glyph glyph-name="afii10101" unicode="&#x454;" horiz-adv-x="895" 
d="M574 523v-62.999h-220c-0.666992 -17.333 -1 -30 -1 -38c0 -116.667 20 -204.334 60 -263.001s100 -88 180 -88c84.667 0 160.667 36.333 228 109l33 -17c-64.667 -127.333 -177.667 -191 -339 -191c-137.333 0 -248 49.5 -332 148.5s-126 223.833 -126 374.5
c0 141.333 40.667 256.166 122 344.499s184 132.5 308 132.5c48 0 112 -12.333 192 -37c16.667 -5.33301 31 -8 43 -8c26.667 0 43 15 49 45h37l13 -299h-37c-45.333 150.667 -125.333 226 -240 226c-64 0 -112 -27 -144 -81s-48 -135 -48 -243
c0 -11.333 0.666992 -28.666 2 -51.999h220z" />
    <glyph glyph-name="afii10102" unicode="&#x455;" horiz-adv-x="789" 
d="M53 310l23.0029 -0.00195312c34 -87.333 81.5 -153.833 142.5 -199.5s123.167 -68.5 186.5 -68.5c37.333 0 71.166 10.833 101.499 32.5s45.5 51.167 45.5 88.5c0 34 -14.667 64.333 -44 91c-30 26.667 -85.333 58.667 -166 96c-108 50 -185 99 -231 147
s-69 109.333 -69 184c0 80.667 29 149.334 87 206.001s130 85 216 85c45.333 0 97.666 -12 156.999 -36c38 -15.333 63.333 -23 76 -23c32 0 59.667 19.667 83 59h23l17 -321h-25c-26.667 76 -70 136.667 -130 182s-122 68 -186 68c-35.333 0 -65.166 -9.5 -89.499 -28.5
s-36.5 -42.167 -36.5 -69.5c0 -52 61 -107.333 183 -166c129.333 -62 218.666 -117.667 267.999 -167c48.667 -49.333 73 -113.666 73 -192.999c0 -82 -30.333 -153.333 -91 -214s-140.334 -91 -239.001 -91c-52.667 0 -115.667 14 -189 42c-38 14.667 -63.333 22 -76 22
c-27.333 0 -50 -21.333 -68 -64h-19z" />
    <glyph glyph-name="afii10103" unicode="&#x456;" horiz-adv-x="555" 
d="M288 1438c44 0 81.667 -15.167 113 -45.5s47 -67.833 47 -112.5c0 -43.333 -15.5 -80.5 -46.5 -111.5s-68.5 -46.5 -112.5 -46.5s-81.333 15.5 -112 46.5s-46 68.5 -46 112.5c0 42 15 78.667 45 110s67.333 47 112 47zM425 950v-728.998
c0 -72.667 6.5 -120.834 19.5 -144.501s40.5 -36.834 82.5 -39.501v-37h-501v37c48 0 79.667 11.333 95 34s23 72.667 23 150v505c0 78.667 -7.66699 129.5 -23 152.5s-47 34.5 -95 34.5v37h399z" />
    <glyph glyph-name="afii10104" unicode="&#x457;" horiz-adv-x="555" 
d="M464 1384c36 0 67.333 -12.667 94 -38s40 -57 40 -95c0 -36.667 -13.167 -68 -39.5 -94s-57.833 -39 -94.5 -39s-68 13 -94 39s-39 57.333 -39 94s13.167 68 39.5 94s57.5 39 93.5 39zM89 1383c36.667 0 68 -13 94 -39s39 -57.333 39 -94c0 -36 -13 -67.167 -39 -93.5
s-57.333 -39.5 -94 -39.5s-68 13.167 -94 39.5s-39 57.5 -39 93.5c0 37.333 13 68.833 39 94.5s57.333 38.5 94 38.5zM426 950v-728.998c0 -72.667 6.5 -120.834 19.5 -144.501s40.833 -36.834 83.5 -39.501v-37h-502v37c48 0 79.833 11.333 95.5 34s23.5 72.667 23.5 150
v505c0 78.667 -7.66699 129.5 -23 152.5s-47.333 34.5 -96 34.5v37h399z" />
    <glyph glyph-name="afii10105" unicode="&#x458;" horiz-adv-x="555" 
d="M279 1438c44.667 0 82.5 -15.166 113.5 -45.499s46.5 -67.833 46.5 -112.5c0 -43.333 -15.5 -80.5 -46.5 -111.5s-68.167 -46.5 -111.5 -46.5c-44 0 -81.5 15.667 -112.5 47s-46.5 68.666 -46.5 111.999c0 42 15 78.667 45 110s67.333 47 112 47zM428 950.001v-937
c0 -112.667 -6.33301 -195.334 -19 -248.001s-43.334 -99 -92.001 -139s-108 -60 -178 -60c-54.667 0 -98.334 11.833 -131.001 35.5s-49 52.834 -49 87.501c0 24 9 45.5 27 64.5s41.667 28.5 71 28.5c42.667 0 76.334 -28.667 101.001 -86
c16.667 -38.667 35.334 -58 56.001 -58c16 0 28 5 36 15s12 25 12 45c0 24.667 -19 80.334 -57 167.001c-38 88 -57 179 -57 273v589c0 73.333 -6.83301 122.666 -20.5 147.999s-40.5 38 -80.5 38h-21v37h402z" />
    <glyph glyph-name="afii1016" unicode="&#x459;" horiz-adv-x="1579" 
d="M1072 950l0.00195312 -37.001c-36 -6.66699 -60 -20.667 -72 -42s-18 -58.666 -18 -111.999v-233h148c131.333 0 230.666 -26.167 297.999 -78.5s101 -115.166 101 -188.499c0 -76.667 -33.667 -139 -101 -187s-166.666 -72 -297.999 -72h-522v37
c36 6.66699 60.167 20.667 72.5 42s18.5 58.666 18.5 111.999v693h-275v-393c0 -178.667 -18.333 -306.667 -55 -384s-96.334 -116 -179.001 -116c-47.333 0 -88.5 14.333 -123.5 43s-52.5 66.667 -52.5 114c0 40.667 12 74 36 100s54 39 90 39
c35.333 0 62.166 -12 80.499 -36s27.5 -51.333 27.5 -82v-41c0 -22.667 7 -34 21 -34c30.667 0 53.667 34.167 69 102.5s23 170.5 23 306.5v230c0 70.667 -7.5 117.667 -22.5 141s-43.833 36.333 -86.5 39v37h820zM982.002 461.999v-297.999c0 -68 20.667 -102 62 -102
c51.333 0 95.833 20.667 133.5 62s56.5 92.666 56.5 153.999c0 46 -17.833 88.333 -53.5 127s-88.5 58 -158.5 58c-10.667 0 -24 -0.333008 -40 -1z" />
    <glyph glyph-name="afii10107" unicode="&#x45a;" horiz-adv-x="1589" 
d="M708 526v233.005c0 54 -6.16699 91.667 -18.5 113s-36.5 35 -72.5 41v37h464v-37c-36 -6.66699 -60.167 -20.667 -72.5 -42s-18.5 -58.666 -18.5 -111.999v-233h149c135.333 0 235.5 -26.833 300.5 -80.5s97.5 -115.834 97.5 -186.501
c0 -71.333 -31.667 -132.333 -95 -183s-164.333 -76 -303 -76h-522v37c36 6.66699 60.167 20.667 72.5 42s18.5 58.666 18.5 111.999v270h-279v-276c0 -50.667 5 -85.834 15 -105.501s29.333 -33.834 58 -42.501v-37h-448v37c60.667 4.66699 91 54 91 148v580
c0 94 -30.333 143.333 -91 148v37h448v-37c-28.667 -8.66699 -48 -22.834 -58 -42.501s-15 -54.834 -15 -105.501v-239h279zM990 461.005v-295.999c0 -68.667 21.667 -103 65 -103c48 0 91.333 20.5 130 61.5s58 92.167 58 153.5c0 45.333 -17.667 87.666 -53 126.999
s-88 59 -158 59c-10 0 -24 -0.666992 -42 -2z" />
    <glyph glyph-name="afii10108" unicode="&#x45b;" horiz-adv-x="1022" 
d="M400 823c38.667 50 80.667 87.334 126 112.001s94 37 146 37c166.667 0 250 -112 250 -336v-469c0 -35.333 4.83301 -63.333 14.5 -84s30.167 -36 61.5 -46v-37h-433v37c50.667 13.333 76 56.666 76 129.999v498c0 117.333 -29.667 176 -89 176
c-24.667 0 -49.667 -10 -75 -30s-51 -50 -77 -90v-566c0 -66 29.667 -105.333 89 -118v-37h-459v37c59.333 12.667 89 52 89 118v979h-89v63h89v54c0 66 -29.667 105.333 -89 118v37h370v-209h381v-63h-381v-311z" />
    <glyph glyph-name="afii10109" unicode="&#x45c;" horiz-adv-x="1147" 
d="M818 1442l-334 -350h-85l118 350h301zM52 950l465 0.000976562v-37c-62 -6 -93 -57 -93 -153v-233c73.333 0 125.166 12.167 155.499 36.5s61.833 84.5 94.5 180.5c30.667 90.667 67 149.167 109 175.5s84.333 39.5 127 39.5c54 0 98.833 -15.167 134.5 -45.5
s53.5 -69.166 53.5 -116.499c0 -34 -10.5 -65.5 -31.5 -94.5s-50.833 -43.5 -89.5 -43.5c-70 0 -107 43.333 -111 130c-2 31.333 -5.33301 51.333 -10 60s-13.334 13 -26.001 13c-18.667 0 -35 -10 -49 -30s-33.333 -65.333 -58 -136
c-32 -90.667 -65.333 -150.334 -100 -179.001c38.667 -4 79.334 -17.333 122.001 -40s85 -73 127 -151c3.33301 -6.66699 7.33301 -13.667 12 -21l85 -146c44.667 -76.667 92.334 -117.334 143.001 -122.001v-37h-349l-270 464h-69v-274c0 -63.333 9 -104 27 -122
s40 -28.333 66 -31v-37h-465v37c62 5.33301 93 56.333 93 153v570c0 96 -31 147 -93 153v37z" />
    <glyph glyph-name="afii10110" unicode="&#x45e;" 
d="M526 1104c-80.667 0 -153.831 16.167 -219.498 48.5s-98.5 77.833 -98.5 136.5c0 64.667 29.667 97 89 97c52.667 0 93 -43.333 121 -130c19.333 -60 60.666 -90 123.999 -90s104.666 30 123.999 90c28 86.667 68.333 130 121 130c59.333 0 89 -32.333 89 -97
c0 -56.667 -31.333 -101.667 -94 -135s-148 -50 -256 -50zM989.003 950l0.00292969 -37.001c-36.667 -2.66699 -66.334 -20.167 -89.001 -52.5s-57.334 -115.166 -104.001 -248.499l-262 -743c-44.667 -127.333 -88.834 -209.666 -132.501 -246.999s-94.167 -56 -151.5 -56
c-54 0 -97.333 15.333 -130 46s-49 68.667 -49 114c0 39.333 12.333 72.166 37 98.499s54.667 39.5 90 39.5c72 0 108 -46 108 -138c0 -36.667 11.333 -55 34 -55c44 0 92.333 77 145 231l18 54l-290 701c-42.667 102 -74.5 167.667 -95.5 197s-48.833 49 -83.5 59v37h500
v-37c-60.667 -0.666992 -91 -20.334 -91 -59.001c0 -26 10.667 -65.333 32 -118l162 -392l119 344c19.333 56.667 29 102 29 136c0 33.333 -8.16699 56.333 -24.5 69s-43.833 19.334 -82.5 20.001v37h311z" />
    <glyph glyph-name="afii10193" unicode="&#x45f;" horiz-adv-x="1098" 
d="M568 -250l-37 -0.000976562c0 87.333 -21 150.833 -63 190.5s-97 59.5 -165 59.5h-234v37c25.333 3.33301 44.5 12.833 57.5 28.5s19.5 54.5 19.5 116.5v586c0 62.667 -6.66699 101.667 -20 117s-32.333 24.666 -57 27.999v37h436v-37
c-23.333 -3.33301 -41.833 -12.333 -55.5 -27s-20.5 -54 -20.5 -118v-607c0 -40.667 5.16699 -67.167 15.5 -79.5s33.833 -18.5 70.5 -18.5h71c36 0 59.333 6.16699 70 18.5s16 38.833 16 79.5v607c0 53.333 -5.33301 89.5 -16 108.5s-31 31.167 -61 36.5v37h435v-37
c-30 -5.33301 -50.333 -17.166 -61 -35.499s-16 -54.833 -16 -109.5v-586c0 -54.667 5.33301 -91.167 16 -109.5s31 -30.166 61 -35.499v-37h-235c-60.667 0 -113.667 -18.5 -159 -55.5s-68 -92.833 -68 -167.5v-27z" />
    <glyph glyph-name="afii10050" unicode="&#x490;" horiz-adv-x="1022" 
d="M25 1406l648.999 0.00195312c58 0 102.833 6.83301 134.5 20.5s60.334 41.5 86.001 83.5s46.5 100.333 62.5 175h38v-365h-466v-1112c0 -72.667 13.333 -119.334 40 -140.001s77.334 -31 152.001 -31v-37h-696v37h20c42.667 0 75.667 5.66699 99 17
s39.333 28.166 48 50.499s13 63.833 13 124.5v965c0 70 -11.833 116.5 -35.5 139.5s-71.834 34.833 -144.501 35.5v37z" />
    <glyph glyph-name="afii10098" unicode="&#x491;" horiz-adv-x="735" 
d="M46 950h438.001c46.667 0 81.667 4.16699 105 12.5s43.666 26.5 60.999 54.5s28 66.333 32 115h37v-247h-292v-703c0 -53.333 7.66699 -90.333 23 -111s42.333 -32 81 -34v-37h-485v37c42 2.66699 69.167 14.667 81.5 36s18.5 64.333 18.5 129v533
c0 72.667 -5.83301 119.5 -17.5 140.5s-39.167 33.5 -82.5 37.5v37z" />
    <glyph glyph-name="endash" unicode="&#x2013;" 
d="M1039 541v-127h-1054v127h1054z" />
    <glyph glyph-name="emdash" unicode="&#x2014;" horiz-adv-x="2048" 
d="M2063 541v-127h-2078v127h2078z" />
    <glyph glyph-name="quoteleft" unicode="&#x2018;" horiz-adv-x="555" 
d="M433 1428l0.000976562 -42.999c-61.333 -22.667 -113.5 -61.5 -156.5 -116.5s-64.5 -111.833 -64.5 -170.5c0 -14 1.66699 -24.5 5 -31.5s8.33301 -10.5 15 -10.5l14 7c24 16 50 24 78 24c41.333 0 75.666 -16.833 102.999 -50.5s41 -70.167 41 -109.5
c0 -44.667 -16.333 -84.334 -49 -119.001s-74 -52 -124 -52c-60 0 -109.167 24.333 -147.5 73s-57.5 107.667 -57.5 177c0 96.667 29.667 183.167 89 259.5s144 130.5 254 162.5z" />
    <glyph glyph-name="quoteright" unicode="&#x2019;" horiz-adv-x="555" 
d="M127 756v44.001c61.333 22.667 113.5 61.5 156.5 116.5s64.5 111.833 64.5 170.5c0 14 -1.66699 24.333 -5 31s-8.66602 10 -15.999 10l-14 -7c-23.333 -15.333 -49 -23 -77 -23c-42.667 0 -77.334 17.167 -104.001 51.5s-40 70.833 -40 109.5
c0 44 16.167 83.5 48.5 118.5s73.833 52.5 124.5 52.5c61.333 0 110.833 -24.833 148.5 -74.5s56.5 -107.834 56.5 -174.501c0 -108 -31.833 -197.833 -95.5 -269.5s-146.167 -123.5 -247.5 -155.5z" />
    <glyph glyph-name="quotesinglbase" unicode="&#x201a;" horiz-adv-x="682" 
d="M188 -359v44.001c147.333 63.333 221 161.666 221 294.999c0 19.333 -7.66699 29 -23 29c-3.33301 0 -8.66602 -1.66699 -15.999 -5c-23.333 -11.333 -47 -17 -71 -17c-44 0 -79.5 16.5 -106.5 49.5s-40.5 67.833 -40.5 104.5c0 39.333 15.667 76.833 47 112.5
s72.666 53.5 123.999 53.5c58.667 0 108 -22.833 148 -68.5s60 -105.834 60 -180.501c0 -103.333 -30.833 -190.666 -92.5 -261.999s-145.167 -123 -250.5 -155z" />
    <glyph glyph-name="quotedblleft" unicode="&#x201c;" 
d="M425 1428l0.000976562 -42.999c-61.333 -22.667 -113.5 -61.5 -156.5 -116.5s-64.5 -111.833 -64.5 -170.5c0 -14 1.66699 -24.5 5 -31.5s8.33301 -10.5 15 -10.5l14 7c24 16 50 24 78 24c41.333 0 75.666 -16.833 102.999 -50.5s41 -70.167 41 -109.5
c0 -44.667 -16.333 -84.334 -49 -119.001s-74 -52 -124 -52c-60 0 -109.167 24.333 -147.5 73s-57.5 107.667 -57.5 177c0 96.667 29.667 183.167 89 259.5s144 130.5 254 162.5zM903.001 1428l-0.00195312 -43c-60.667 -22.667 -112.667 -61.5 -156 -116.5
s-65 -112.167 -65 -171.5c0 -13.333 1.83301 -23.5 5.5 -30.5s8.83398 -10.5 15.501 -10.5l14 7c24 16 50 24 78 24c42.667 0 77.167 -17.167 103.5 -51.5s39.5 -70.5 39.5 -108.5c0 -44.667 -16.167 -84.334 -48.5 -119.001s-73.5 -52 -123.5 -52
c-60.667 0 -110 24.5 -148 73.5s-57 107.833 -57 176.5c0 106.667 31.833 195.834 95.5 267.501s145.834 123.167 246.501 154.5z" />
    <glyph glyph-name="quotedblright" unicode="&#x201d;" 
d="M599 756v44c60.667 22 112.667 60.667 156 116s65 112.333 65 171c0 14 -1.66699 24.333 -5 31s-8.66602 10 -15.999 10l-14 -7c-23.333 -15.333 -49.333 -23 -78 -23c-42.667 0 -77.167 17.167 -103.5 51.5s-39.5 70.833 -39.5 109.5c0 44 16 83.5 48 118.5
s73.667 52.5 125 52.5c58 0 106.5 -24 145.5 -72s58.5 -107.333 58.5 -178c0 -97.333 -29.333 -184 -88 -260s-143.334 -130.667 -254.001 -164zM120 756v44.001c61.333 22.667 113.5 61.5 156.5 116.5s64.5 111.833 64.5 170.5c0 14 -1.66699 24.333 -5 31
s-8.66602 10 -15.999 10l-14 -7c-23.333 -15.333 -49 -23 -77 -23c-42.667 0 -77.334 17.167 -104.001 51.5s-40 70.833 -40 109.5c0 44 16.167 83.5 48.5 118.5s73.833 52.5 124.5 52.5c61.333 0 110.833 -24.833 148.5 -74.5s56.5 -107.834 56.5 -174.501
c0 -108 -31.833 -197.833 -95.5 -269.5s-146.167 -123.5 -247.5 -155.5z" />
    <glyph glyph-name="quotedblbase" unicode="&#x201e;" 
d="M120 -366v43.999c60.667 22.667 112.667 61.5 156 116.5s65 112.167 65 171.5c0 14 -1.66699 24.333 -5 31s-8.33301 10 -15 10l-15 -8c-24 -18 -50 -27 -78 -27c-42 0 -76.333 17.333 -103 52s-40 71.334 -40 110.001c0 44.667 16.167 84.5 48.5 119.5
s73.833 52.5 124.5 52.5c61.333 0 110.833 -24.667 148.5 -74s56.5 -107.333 56.5 -174c0 -106.667 -31.667 -196 -95 -268s-146 -124 -248 -156zM599 -366.001l0.000976562 44c60 22 111.833 60.667 155.5 116s65.5 112.666 65.5 171.999c0 14 -1.66699 24.333 -5 31
s-8.33301 10 -15 10l-15 -8c-24 -18 -50 -27 -78 -27c-42 0 -76.333 17.333 -103 52s-40 71.334 -40 110.001c0 44.667 16.167 84.5 48.5 119.5s73.833 52.5 124.5 52.5c60 0 109 -24.5 147 -73.5s57 -107.5 57 -175.5c0 -107.333 -31.833 -196.833 -95.5 -268.5
s-145.834 -123.167 -246.501 -154.5z" />
    <glyph glyph-name="dagger" unicode="&#x2020;" 
d="M534 891c6 -58 13.832 -97.3301 23.499 -117.997s38.834 -63.667 87.501 -129c-66 -174.667 -101 -439.334 -105 -794.001c-1.33301 -152 -3.33301 -235.667 -6 -251h-43c-3.33301 341.333 -14.5 579.666 -33.5 714.999s-44.833 245.333 -77.5 330
c38.667 46.667 64.667 84 78 112s24.333 73 33 135c-50 -3.33301 -104.667 -21.666 -164 -54.999c-49.333 -27.333 -87.666 -41 -114.999 -41c-34.667 0 -63.334 11.333 -86.001 34s-34 50.334 -34 83.001c0 33.333 11.5 60.666 34.5 81.999s51.833 32 86.5 32
c27.333 0 69 -15.333 125 -46c50.667 -28 101.667 -43.333 153 -46c-1.33301 33.333 -4.83301 60 -10.5 80s-21.834 59.333 -48.501 118c-29.333 63.333 -44 117 -44 161c0 40.667 11.5 75 34.5 103s52.833 42 89.5 42c37.333 0 67.666 -14.333 90.999 -43
s35 -61.334 35 -98.001c0 -42.667 -17.333 -102.334 -52 -179.001c-31.333 -70.667 -48.666 -132 -51.999 -184c54 5.33301 104 20.333 150 45c60 33.333 104 50 132 50c36 0 65 -11.833 87 -35.5s33 -50.167 33 -79.5c0 -32 -11.5 -59.333 -34.5 -82s-50.167 -34 -81.5 -34
c-32 0 -71 13 -117 39c-49.333 28 -105.666 46 -168.999 54z" />
    <glyph glyph-name="doubledagger" unicode="&#x2021;" 
d="M532 980c0.666992 -61.333 37.667 -123.001 111 -185.001c-32.667 -26.667 -59.167 -59.334 -79.5 -98.001s-30.5 -96.334 -30.5 -173.001c0 -76 8 -134 24 -174s44.667 -77.667 86 -113c-69.333 -63.333 -106.333 -123.666 -111 -180.999
c44 1.33301 96.333 16.333 157 45c52.667 24.667 92.667 37 120 37c30 0 56.167 -9.33301 78.5 -28s33.5 -43.667 33.5 -75c0 -32 -11 -57.167 -33 -75.5s-45 -27.5 -69 -27.5c-30.667 0 -83.667 17 -159 51c-45.333 20 -88 30.667 -128 32c6.66699 -45.333 25 -103 55 -173
c25.333 -58 38 -101.333 38 -130s-10.667 -54.834 -32 -78.501s-49.333 -35.5 -84 -35.5c-36 0 -63.833 12 -83.5 36s-29.5 50 -29.5 78c0 32.667 15 81.334 45 146.001c24.667 52 42 104.333 52 157c-43.333 -1.33301 -91.666 -14.666 -144.999 -39.999
c-59.333 -28 -104.333 -42 -135 -42c-36 0 -64 10 -84 30s-30 44 -30 72c0 30 11.333 54.667 34 74s47.667 29 75 29c34.667 0 79.334 -13 134.001 -39c60 -28.667 110.333 -43 151 -43c-7.33301 68 -45.333 128.333 -114 181c42.667 36 71.667 74.333 87 115
s23 99.334 23 176.001c0 65.333 -7.16699 115.166 -21.5 149.499s-43.833 73.5 -88.5 117.5c70.667 60 108.667 121.667 114 185c-41.333 0 -91.333 -14 -150 -42c-61.333 -28.667 -104.333 -43 -129 -43c-32.667 0 -59.667 10 -81 30s-32 44.667 -32 74
c0 28.667 10.167 52.834 30.5 72.501s45.166 29.5 74.499 29.5c33.333 0 85.666 -16.667 156.999 -50c49.333 -22 86 -33 110 -33h20c-4 32 -23.333 88.333 -58 169c-24.667 56 -37 100.333 -37 133c0 31.333 10.5 58.833 31.5 82.5s48.5 35.5 82.5 35.5
c36 0 63.833 -12.833 83.5 -38.5s29.5 -51.167 29.5 -76.5c0 -29.333 -16 -81 -48 -155c-25.333 -59.333 -40.333 -109.333 -45 -150c42.667 2 87 14 133 36c66 32 115.667 48 149 48c28 0 53.167 -9.5 75.5 -28.5s33.5 -43.833 33.5 -74.5
c0 -31.333 -11.333 -56.5 -34 -75.5s-46 -28.5 -70 -28.5c-28 0 -69.333 11.667 -124 35c-74 31.333 -128.333 48 -163 50z" />
    <glyph glyph-name="bullet" unicode="&#x2022;" horiz-adv-x="725" 
d="M657 703c0 -81.333 -29 -150.833 -87 -208.5s-127.333 -86.5 -208 -86.5c-82 0 -151.833 28.833 -209.5 86.5s-86.5 127.167 -86.5 208.5s29 151 87 209s127.667 87 209 87c84 0 154.167 -29.5 210.5 -88.5s84.5 -128.167 84.5 -207.5z" />
    <glyph glyph-name="ellipsis" unicode="&#x2026;" horiz-adv-x="2048" 
d="M344 308c46 0 85.333 -16.333 118 -49s49 -72.334 49 -119.001c0 -46 -16.333 -85.5 -49 -118.5s-72 -49.5 -118 -49.5c-45.333 0 -84.333 16.5 -117 49.5s-49 72.5 -49 118.5c0 46.667 16.333 86.334 49 119.001s71.667 49 117 49zM1026 307
c44 0 82.499 -16.001 115.499 -48.001s49.5 -71.667 49.5 -119c0 -46 -16.167 -85.5 -48.5 -118.5s-71.166 -49.5 -116.499 -49.5s-84.333 16.333 -117 49s-49 72.334 -49 119.001c0 46 16.333 85.333 49 118s71.667 49 117 49zM1705 305.999
c45.333 0 83.998 -16.167 115.998 -48.5s48 -71.166 48 -116.499s-16 -84 -48 -116s-70.667 -48 -116 -48s-84.166 16 -116.499 48s-48.5 70.667 -48.5 116c0 47.333 16.333 86.666 49 117.999s71.334 47 116.001 47z" />
    <glyph glyph-name="perthousand" unicode="&#x2030;" horiz-adv-x="2218" 
d="M1263 1439l-910 -1495h-127l910 1495h127zM596 1068c0 -104.667 -24.5 -191.833 -73.5 -261.5s-117.833 -104.5 -206.5 -104.5c-84 0 -151.5 34.167 -202.5 102.5s-76.5 155.5 -76.5 261.5s26 193.167 78 261.5s119.333 102.5 202 102.5c82 0 149 -32.5 201 -97.5
s78 -153.167 78 -264.5zM407 1116c0 122 -5.33203 199.166 -15.999 231.499s-35 48.5 -73 48.5c-41.333 0 -67 -20.5 -77 -61.5s-15 -153.5 -15 -337.5c0 -129.333 8.16699 -205.666 24.5 -228.999s39.166 -35 68.499 -35c40 0 64.333 17.5 73 52.5s13.667 145.167 15 330.5
zM1456 352c0 -108.667 -25.667 -196.5 -77 -263.5s-119 -100.5 -203 -100.5s-151.5 34 -202.5 102s-76.5 155.333 -76.5 262c0 105.333 25.667 192 77 260s119 102 203 102c82 0 149 -32.5 201 -97.5s78 -153.167 78 -264.5zM1267 402
c0 122.667 -5.33203 199.833 -15.999 231.5s-35 47.5 -73 47.5c-40.667 0 -66.167 -20 -76.5 -60s-15.5 -151.333 -15.5 -334c0 -133.333 8.16699 -211.333 24.5 -234s39.166 -34 68.499 -34c40 0 64.667 18.5 74 55.5s14 146.167 14 327.5zM2182 352.999
c0 -109.333 -25.667 -197.5 -77 -264.5s-119.333 -100.5 -204 -100.5c-91.333 0 -160.5 36 -207.5 108s-70.5 157 -70.5 255c0 106 26 193 78 261s119 102 201 102c82.667 0 150 -32.5 202 -97.5s78 -152.833 78 -263.5zM1992 399.999c0 124 -5.16699 201.832 -15.5 233.499
s-34.5 47.5 -72.5 47.5c-40.667 0 -66.167 -19.833 -76.5 -59.5s-15.5 -148.5 -15.5 -326.5c0 -135.333 7.66699 -215.166 23 -239.499s38.333 -36.5 69 -36.5c40 0 64.667 18.5 74 55.5s14 145.5 14 325.5z" />
    <glyph glyph-name="guilsinglleft" unicode="&#x2039;" horiz-adv-x="682" 
d="M594 982l-240 -460l240 -465h-79l-426 465l426 460h79z" />
    <glyph glyph-name="guillsinglright" unicode="&#x203a;" horiz-adv-x="682" 
d="M90 982h75l427 -460l-427 -465h-75l239 465z" />
    <glyph glyph-name="afii61352" unicode="&#x2116;" horiz-adv-x="2155" 
d="M201 1406l520.999 0.000976562l468 -754v407c0 114.667 22.833 202.667 68.5 264s114.834 92 207.501 92c56.667 0 107.167 -17.833 151.5 -53.5s66.5 -83.5 66.5 -143.5c0 -42 -11.833 -74.333 -35.5 -97s-51.834 -34 -84.501 -34c-70 0 -111 40 -123 120
c-9.33301 60.667 -29.666 91 -60.999 91c-34 0 -59.667 -21 -77 -63s-26 -105 -26 -189v-1074h-38l-702 1140v-711c0 -114.667 -9.5 -199.334 -28.5 -254.001s-52 -97.5 -99 -128.5s-96.167 -46.5 -147.5 -46.5c-61.333 0 -114.833 18.833 -160.5 56.5
s-68.5 85.167 -68.5 142.5c0 40 12.5 71.667 37.5 95s53.833 35 86.5 35c65.333 0 105 -39.667 119 -119c10.667 -56.667 32.667 -85 66 -85c37.333 0 64.833 24.167 82.5 72.5s26.5 129.166 26.5 242.499v831c-31.333 46 -63.833 78.333 -97.5 97
s-84.5 28.334 -152.5 29.001v37zM1456 655.001c0 99.333 32 180.501 96 243.501s140 94.5 228 94.5c87.333 0 162 -31.833 224 -95.5s93 -144.167 93 -241.5c0 -94.667 -30.5 -174.834 -91.5 -240.501s-136.5 -98.5 -226.5 -98.5c-95.333 0 -173 32.667 -233 98
s-90 145.333 -90 240zM1695 648.002c0 -124 6.00098 -201.332 18.001 -231.999s33.333 -46 64 -46c31.333 0 52.333 18.167 63 54.5s16 115.166 16 236.499c0 130.667 -7.33301 210 -22 238s-34 42 -58 42c-30.667 0 -51.834 -17 -63.501 -51s-17.5 -114.667 -17.5 -242z
M1473 191.003h600v-191h-600v191z" />
    <glyph glyph-name="trademark" unicode="&#x2122;" horiz-adv-x="2036" 
d="M12 1406h777v-226h-35c-2 50 -16 91.667 -42 125s-76.667 50 -152 50h-38v-588c0 -56.667 6.66699 -93 20 -109s41 -24 83 -24v-35h-454v35c44.667 1.33301 73 7.5 85 18.5s18 49.167 18 114.5v588h-35c-123.333 0 -188 -58.333 -194 -175h-33v226zM845 1406
l368.001 -0.000976562l231 -493l229 493h347v-37c-42.667 0 -70.167 -8.16699 -82.5 -24.5s-18.5 -52.5 -18.5 -108.5v-474c0 -50.667 6.5 -84.167 19.5 -100.5s40.167 -25.5 81.5 -27.5v-35h-462v35c50 0.666992 81.667 8.66699 95 24s20 50 20 104v506l-320 -669h-24
l-318 669v-501c0 -55.333 6.66699 -91.166 20 -107.499s44.666 -24.833 93.999 -25.5v-35h-280v35c47.333 2 77.333 10.333 90 25s19 50.667 19 108v469c0 58.667 -7 95.5 -21 110.5s-43.333 22.5 -88 22.5v37z" />
    <glyph glyph-name="glyph1" horiz-adv-x="0" 
 />
    <glyph glyph-name="glyph2" horiz-adv-x="512" 
 />
  </font>
</defs>
</svg>
